<svg width="1693" height="1093" viewBox="0 0 1693 1093" fill="none" xmlns="http://www.w3.org/2000/svg">
<path d="M183.1 953.7H1615.2C1615.2 953.7 1626 835.8 1598.4 741.3C1570.8 646.8 1542.8 544.7 1433.6 524.5C1324.5 504.2 1279.1 532.2 1192.1 501.2C1105.1 470.2 788.5 188.1 582.2 188.1C394.6 188.1 103.8 332.2 183.1 953.7Z" fill="#E6F3FC"/>
<path d="M302 953C302 953 364.9 868.4 261.3 711.3C261.3 711.3 172.3 812.3 234.3 953H302Z" fill="#CAE7FC"/>
<path d="M230.1 953H162.4C77.7999 926.1 47.2999 824 42.7999 807.5C42.3999 806 42.2 805.2 42.2 805.2C43 805.1 43.7 805 44.4 805C68.4 802.5 89.4 803.9 107.7 808.2H107.8C108.9 808.5 110 808.7 111.1 809H111.2C213.8 835.7 230.1 953 230.1 953Z" fill="#CAE7FC"/>
<path d="M139.4 879.3C139.1 879.7 138.7 879.8 138.3 879.8C138 879.8 137.6 879.7 137.3 879.4C106 852.8 52.2999 814.2 42.8999 807.4C42.4999 805.9 42.2999 805.1 42.2999 805.1C43.0999 805 43.7999 804.9 44.4999 804.9C53.6999 811.5 107.8 850.4 139.2 877.1C139.9 877.8 139.9 878.7 139.4 879.3Z" fill="#E6F3FC"/>
<path d="M284 953H216.3C214.3 951.9 212.3 950.7 210.4 949.6C165.8 922.5 138.8 881.5 122.5 841.7C122.1 840.7 121.7 839.6 121.2 838.6C119.9 835.2 118.6 831.8 117.4 828.5C117 827.5 116.7 826.4 116.3 825.4C116.2 825.2 116.1 824.9 116.1 824.7C115.8 823.9 115.5 823.1 115.3 822.3C115 821.3 114.7 820.4 114.4 819.5C113.3 816 112.2 812.6 111.2 809.1C110.7 807.3 110.2 805.5 109.7 803.7C99.3999 765.8 97.6999 734 97.3999 723.8C97.2999 721.5 97.3999 720.3 97.3999 720.3C97.8999 720.5 98.3999 720.6 98.8999 720.8C303.6 790.5 284 953 284 953Z" fill="#CAE7FC"/>
<path d="M216.9 786.9C216.9 786.9 308.6 862.2 283.9 953" stroke="#E6F3FC" stroke-width="3" stroke-miterlimit="10" stroke-linecap="round"/>
<path d="M257.7 953H254.5C244.8 925.1 219.9 885.4 192.3 846.5C191.6 845.5 190.8 844.4 190.1 843.3C187.8 840 185.4 836.8 183.1 833.5C182.3 832.4 181.6 831.4 180.8 830.3C147 783.9 111.8 741.1 97.2999 723.7C97.1999 721.4 97.2999 720.2 97.2999 720.2C97.7999 720.4 98.2999 720.5 98.7999 720.7C113 737.7 149.8 782.5 184.9 830.8C185.1 831 185.2 831.3 185.4 831.5C188.3 835.5 191.2 839.6 194.1 843.7C194.3 843.9 194.4 844.2 194.6 844.5C222.7 884.2 248.1 924.7 257.7 953Z" fill="#E6F3FC"/>
<path d="M185.5 832.2C185.4 833 184.8 833.6 184 833.6H183.9L183.1 833.5L117.3 828.4C116.9 827.4 116.6 826.3 116.2 825.3L180.7 830.3L184 830.6C184.3 830.6 184.5 830.7 184.8 830.9C185 831.1 185.2 831.3 185.3 831.6C185.5 831.8 185.5 832 185.5 832.2Z" fill="#E6F3FC"/>
<path d="M194.8 845.1C194.7 845.9 194.1 846.5 193.3 846.5H193.2L192.4 846.4L122.5 841.6C122.1 840.6 121.7 839.5 121.2 838.5L190.2 843.3L193.4 843.5C193.7 843.5 194 843.6 194.2 843.8C194.4 844 194.6 844.3 194.7 844.6C194.8 844.7 194.8 844.9 194.8 845.1Z" fill="#E6F3FC"/>
<path d="M246.2 817.4L221.4 886.8" stroke="#E6F3FC" stroke-width="3" stroke-miterlimit="10" stroke-linecap="round"/>
<path d="M217.5 952.2H210.9C173.3 939.5 147.4 901.3 132 870.8C118.3 843.7 110.5 817.9 107.8 808.2H107.9C109 808.5 110.1 808.7 111.2 809C111.9 811.5 112.9 814.8 114.1 818.6C114.4 819.5 114.7 820.5 115 821.4C115.3 822.2 115.5 823 115.8 823.8C115.9 824 116 824.3 116 824.5C120.1 836.7 126.3 852.8 134.7 869.5C149.6 899 174.4 935.8 210.1 948.7C212.2 949.5 214.3 950.1 216.4 950.7C217 950.9 217.5 951.6 217.5 952.2Z" fill="#E6F3FC"/>
<path d="M261.3 711.2C261.3 711.2 258.8 785.5 267.6 848.9" stroke="#E6F3FC" stroke-width="3" stroke-miterlimit="10" stroke-linecap="round"/>
<path d="M296.9 766.9C296.9 766.9 269.5 793.2 263.7 813.2" stroke="#E6F3FC" stroke-width="3" stroke-miterlimit="10" stroke-linecap="round"/>
<path d="M303.3 774.9C303.3 774.9 272 806.2 265 826.9" stroke="#E6F3FC" stroke-width="3" stroke-miterlimit="10" stroke-linecap="round"/>
<path d="M1653 955.2H128.9C127.5 955.2 126.4 954.1 126.4 952.7C126.4 951.3 127.5 950.2 128.9 950.2H1653C1654.4 950.2 1655.5 951.3 1655.5 952.7C1655.5 954.1 1654.4 955.2 1653 955.2Z" fill="#A1CAFA"/>
<path d="M572.4 391.6L557.3 388.5C556.6 383.3 555.5 378.3 554.1 373.4L567.2 364.7C575.2 359.4 577.4 348.6 572.1 340.6L555.7 315.9C550.4 307.9 539.6 305.7 531.6 311L517.8 320.2C514 317.3 509.9 314.5 505.6 312.1L508.9 295.7C510.8 286.3 504.7 277.1 495.3 275.2L466.2 269.3C456.8 267.4 447.6 273.5 445.7 282.9L442.4 299.3C437.5 299.9 432.7 300.8 428.1 302L418.9 288.2C413.6 280.2 402.8 278 394.8 283.3L370.1 299.7C362.1 305 359.9 315.8 365.2 323.8L373.9 336.9C370.7 340.9 367.7 345.1 365 349.6L349.9 346.5C340.5 344.6 331.3 350.7 329.4 360.1L323.5 389.2C321.6 398.6 327.7 407.8 337.1 409.7L350.9 412.5C351.4 418.1 352.4 423.6 353.8 429L342.3 436.6C334.3 441.9 332.1 452.7 337.4 460.7L353.8 485.4C359.1 493.4 369.9 495.6 377.9 490.3L388.6 483.2C393.1 486.9 398 490.2 403.1 493.1L400.6 505.5C398.7 514.9 404.8 524.1 414.2 526L443.3 531.9C452.7 533.8 461.9 527.7 463.8 518.3L466.3 505.9C472.2 505.2 477.9 504.1 483.5 502.4L490.6 513.1C495.9 521.1 506.7 523.3 514.7 518L539.4 501.6C547.4 496.3 549.6 485.5 544.3 477.5L536.7 466C540.1 461.6 543.1 456.9 545.8 452L559.6 454.8C569 456.7 578.2 450.6 580.1 441.2L586 412.1C587.9 402.7 581.8 393.5 572.4 391.6ZM402.2 435.9C401.8 435.4 401.5 434.8 401.2 434.3C393.6 421.5 390.5 406 393.7 390.3C393.8 389.7 393.9 389.1 394.1 388.5C394.2 387.8 394.4 387.2 394.6 386.5C398.5 371.8 407.5 359.7 419.3 351.6C421 350.4 422.7 349.3 424.5 348.4C435.8 342.2 449.1 339.4 462.7 341.3C464 341.5 465.2 341.7 466.5 341.9C467.8 342.2 469 342.4 470.2 342.8C483.5 346.3 494.7 354 502.7 364.2C504 365.8 505.2 367.4 506.2 369.2C514 381.2 517.5 395.9 515.4 411C515.3 411.7 515.2 412.4 515.1 413C515 413.6 514.9 414.2 514.8 414.8C511.6 430.5 502.8 443.6 490.8 452.4C490.3 452.8 489.8 453.1 489.2 453.5C476.3 462.3 460.2 466.3 443.7 463.4C443.1 463.3 442.6 463.2 442 463.1C441.4 463 440.8 462.9 440.2 462.7C424 459 410.6 449.1 402.2 435.9Z" fill="#CAE7FC"/>
<path d="M1577 836L1570.4 834.7C1570.1 832.5 1569.6 830.2 1569 828.1L1574.7 824.3C1578.2 822 1579.2 817.3 1576.8 813.8L1569.6 803C1567.3 799.5 1562.6 798.5 1559.1 800.9L1553.1 804.9C1551.4 803.6 1549.6 802.4 1547.8 801.4L1549.2 794.2C1550 790.1 1547.4 786.1 1543.3 785.2L1530.6 782.6C1526.5 781.8 1522.5 784.4 1521.6 788.5L1520.2 795.7C1518.1 795.9 1516 796.3 1513.9 796.9L1509.9 790.9C1507.6 787.4 1502.9 786.5 1499.4 788.8L1488.6 796C1485.1 798.3 1484.1 803 1486.5 806.5L1490.3 812.2C1488.9 813.9 1487.6 815.8 1486.4 817.7L1479.8 816.4C1475.7 815.6 1471.7 818.2 1470.8 822.3L1468.2 835C1467.4 839.1 1470 843.1 1474.1 844L1480.1 845.2C1480.3 847.7 1480.8 850.1 1481.4 852.4L1476.4 855.7C1472.9 858 1471.9 862.7 1474.3 866.2L1481.5 877C1483.8 880.5 1488.5 881.5 1492 879.1L1496.7 876C1498.7 877.6 1500.8 879.1 1503 880.3L1501.9 885.7C1501.1 889.8 1503.7 893.8 1507.8 894.6L1520.5 897.2C1524.6 898 1528.6 895.4 1529.5 891.3L1530.6 885.9C1533.2 885.6 1535.7 885.1 1538.1 884.4L1541.2 889.1C1543.5 892.6 1548.2 893.6 1551.7 891.2L1562.5 884C1566 881.7 1567 877 1564.6 873.5L1561.3 868.5C1562.8 866.6 1564.1 864.5 1565.3 862.4L1571.3 863.6C1575.4 864.4 1579.4 861.8 1580.2 857.7L1582.8 845C1583.7 840.8 1581.1 836.8 1577 836ZM1502.7 855.4C1502.5 855.2 1502.4 854.9 1502.3 854.7C1499 849.1 1497.6 842.4 1499 835.5C1499.1 835.2 1499.1 835 1499.2 834.7C1499.3 834.4 1499.3 834.1 1499.4 833.8C1501.1 827.4 1505 822.1 1510.2 818.6C1510.9 818.1 1511.7 817.6 1512.5 817.2C1517.4 814.5 1523.2 813.3 1529.2 814.1C1529.8 814.2 1530.3 814.3 1530.9 814.4C1531.5 814.5 1532 814.6 1532.5 814.8C1538.3 816.3 1543.2 819.7 1546.7 824.1C1547.3 824.8 1547.8 825.5 1548.2 826.3C1551.6 831.6 1553.1 838 1552.2 844.6C1552.2 844.9 1552.1 845.2 1552.1 845.5C1552.1 845.8 1552 846 1552 846.3C1550.6 853.2 1546.7 858.9 1541.5 862.7C1541.3 862.9 1541 863 1540.8 863.2C1535.2 867.1 1528.1 868.8 1520.9 867.5C1520.7 867.5 1520.4 867.4 1520.1 867.4C1519.8 867.4 1519.6 867.3 1519.3 867.2C1512.2 865.5 1506.3 861.1 1502.7 855.4Z" fill="#CAE7FC"/>
<path d="M1431.1 814.3L1427.2 813.5C1427 812.2 1426.7 810.8 1426.4 809.6L1429.8 807.3C1431.9 805.9 1432.4 803.1 1431.1 801L1426.8 794.6C1425.4 792.5 1422.6 792 1420.5 793.3L1416.9 795.7C1415.9 794.9 1414.8 794.2 1413.7 793.6L1414.6 789.3C1415.1 786.8 1413.5 784.5 1411.1 784L1403.5 782.5C1401.1 782 1398.7 783.6 1398.2 786L1397.3 790.3C1396 790.4 1394.8 790.7 1393.6 791L1391.2 787.4C1389.8 785.3 1387 784.8 1384.9 786.1L1378.5 790.4C1376.4 791.8 1375.9 794.6 1377.2 796.7L1379.5 800.1C1378.7 801.1 1377.9 802.2 1377.2 803.4L1373.3 802.6C1370.8 802.1 1368.5 803.7 1368 806.1L1366.5 813.7C1366 816.2 1367.6 818.5 1370 819L1373.6 819.7C1373.7 821.2 1374 822.6 1374.4 824L1371.4 826C1369.3 827.4 1368.8 830.2 1370.1 832.3L1374.4 838.7C1375.8 840.8 1378.6 841.3 1380.7 840L1383.5 838.2C1384.7 839.2 1385.9 840 1387.3 840.8L1386.6 844C1386.1 846.4 1387.7 848.8 1390.1 849.3L1397.7 850.8C1400.2 851.3 1402.5 849.7 1403 847.3L1403.7 844.1C1405.2 843.9 1406.7 843.6 1408.2 843.2L1410 846C1411.4 848.1 1414.2 848.6 1416.3 847.3L1422.7 843C1424.8 841.6 1425.3 838.8 1424 836.7L1422 833.7C1422.9 832.6 1423.7 831.3 1424.4 830.1L1428 830.8C1430.4 831.3 1432.8 829.7 1433.3 827.3L1434.8 819.7C1435.1 817.2 1433.5 814.8 1431.1 814.3ZM1391 823.2C1390.9 823.1 1390.9 823 1390.8 822.9C1389.4 820.6 1388.9 817.8 1389.4 814.9C1389.4 814.8 1389.4 814.7 1389.5 814.6C1389.5 814.5 1389.6 814.4 1389.6 814.2C1390.3 811.5 1391.9 809.3 1394.1 807.9C1394.4 807.7 1394.7 807.5 1395 807.3C1397 806.2 1399.4 805.7 1401.9 806C1402.1 806 1402.4 806.1 1402.6 806.1C1402.8 806.1 1403.1 806.2 1403.3 806.3C1405.7 806.9 1407.7 808.3 1409.2 810.2C1409.4 810.5 1409.6 810.8 1409.8 811.1C1411.2 813.3 1411.8 815.9 1411.5 818.7C1411.5 818.8 1411.5 818.9 1411.4 819.1C1411.4 819.2 1411.4 819.3 1411.3 819.4C1410.7 822.2 1409.1 824.6 1407 826.2C1406.9 826.3 1406.8 826.3 1406.7 826.4C1404.4 828 1401.5 828.7 1398.5 828.2C1398.4 828.2 1398.3 828.2 1398.2 828.1C1398.1 828.1 1398 828.1 1397.9 828C1394.9 827.4 1392.5 825.6 1391 823.2Z" fill="#CAE7FC"/>
<path d="M1545.8 704.2L1538 697.2C1539.4 693.9 1540.5 690.6 1541.4 687.2L1552.1 686.7C1558.7 686.4 1563.7 680.8 1563.4 674.2L1562.3 654C1562 647.4 1556.4 642.4 1549.8 642.7L1538.5 643.3C1537.3 640.2 1535.8 637.2 1534.1 634.3L1541.7 625.8C1546.1 620.9 1545.7 613.4 1540.8 609L1525.8 595.4C1520.9 591 1513.4 591.4 1509 596.3L1501.4 604.8C1498.3 603.4 1495.2 602.3 1492 601.4L1491.4 590.1C1491.1 583.5 1485.5 578.5 1478.9 578.8L1458.7 579.8C1452.1 580.1 1447.1 585.7 1447.4 592.3L1447.9 603C1444.6 604.2 1441.4 605.7 1438.3 607.4L1430.5 600.4C1425.6 596 1418.1 596.4 1413.7 601.3L1400.1 616.3C1395.7 621.2 1396.1 628.7 1401 633.1L1408.1 639.5C1406.5 643 1405.1 646.6 1404.1 650.2L1394.7 650.7C1388.1 651 1383.1 656.6 1383.4 663.2L1384.4 683.4C1384.7 690 1390.3 695 1396.9 694.7L1405.6 694.3C1407 698 1408.7 701.7 1410.7 705.2L1404.9 711.6C1400.5 716.5 1400.9 724 1405.8 728.4L1420.8 742C1425.7 746.4 1433.2 746 1437.6 741.1L1443.4 734.7C1447.1 736.4 1450.9 737.7 1454.7 738.6L1455.1 747.3C1455.4 753.9 1461 758.9 1467.6 758.6L1487.8 757.6C1494.4 757.3 1499.4 751.7 1499.1 745.1L1498.6 735.7C1502.1 734.3 1505.5 732.6 1508.8 730.6L1515.9 737C1520.8 741.4 1528.3 741 1532.7 736.1L1546.3 721.1C1551 716.1 1550.7 708.6 1545.8 704.2ZM1430.4 671.1C1430.4 670.7 1430.4 670.2 1430.4 669.8C1430.3 659.7 1433.9 649.5 1441.3 641.4C1441.6 641.1 1441.8 640.8 1442.1 640.5C1442.4 640.1 1442.7 639.8 1443.1 639.5C1450.5 632.2 1460 628.2 1469.7 627.6C1471.1 627.5 1472.5 627.5 1473.9 627.5C1482.7 627.8 1491.5 630.8 1498.8 636.6C1499.5 637.1 1500.2 637.7 1500.8 638.3C1501.5 638.9 1502.1 639.5 1502.7 640.1C1509.3 646.8 1513.2 655.2 1514.3 663.9C1514.5 665.3 1514.6 666.7 1514.7 668C1515.1 677.8 1512.1 687.6 1505.6 695.8C1505.3 696.2 1505 696.5 1504.7 696.9C1504.4 697.2 1504.2 697.5 1503.9 697.8C1496.6 705.9 1486.8 710.5 1476.7 711.5C1476.3 711.5 1475.8 711.6 1475.4 711.6C1464.8 712.3 1453.9 709 1445.2 701.6C1444.9 701.4 1444.6 701.1 1444.3 700.8C1444 700.5 1443.7 700.3 1443.4 700C1435.1 692.2 1430.8 681.7 1430.4 671.1Z" fill="#CAE7FC"/>
<path d="M394.6 587L385.4 585.1C385 582 384.3 578.9 383.4 575.9L391.3 570.6C396.2 567.4 397.5 560.8 394.3 555.9L384.3 540.9C381.1 536 374.5 534.7 369.6 537.9L361.2 543.5C358.9 541.7 356.4 540 353.8 538.6L355.8 528.6C357 522.9 353.3 517.3 347.5 516.1L329.8 512.5C324.1 511.3 318.5 515 317.3 520.8L315.3 530.8C312.3 531.1 309.4 531.7 306.6 532.4L301 524C297.8 519.1 291.2 517.8 286.3 521L271.3 531C266.4 534.2 265.1 540.8 268.3 545.7L273.6 553.6C271.6 556 269.8 558.6 268.2 561.3L259 559.4C253.3 558.2 247.7 562 246.5 567.7L242.9 585.4C241.7 591.1 245.4 596.7 251.2 597.9L259.6 599.6C259.9 603 260.5 606.4 261.4 609.6L254.4 614.2C249.5 617.4 248.2 624 251.4 628.9L261.4 643.9C264.6 648.8 271.2 650.1 276.1 646.9L282.6 642.6C285.3 644.8 288.3 646.9 291.4 648.6L289.9 656.2C288.7 661.9 292.5 667.5 298.2 668.7L315.9 672.3C321.6 673.5 327.2 669.8 328.4 664L329.9 656.4C333.5 656 337 655.3 340.4 654.3L344.7 660.8C347.9 665.7 354.5 667 359.4 663.8L374.5 653.8C379.4 650.6 380.7 644 377.5 639.1L372.9 632.1C375 629.4 376.8 626.6 378.4 623.6L386.8 625.3C392.5 626.5 398.1 622.8 399.3 617L402.9 599.3C404.1 593.8 400.4 588.2 394.6 587ZM299.8 608.5C299.6 608.3 299.5 608 299.4 607.8C296 602.2 294.7 595.3 296.1 588.4C296.2 588.1 296.2 587.9 296.3 587.6C296.4 587.3 296.4 587 296.5 586.7C298.2 580.2 302.2 574.8 307.4 571.3C308.1 570.8 308.9 570.3 309.7 569.9C314.7 567.1 320.6 565.9 326.6 566.8C327.2 566.9 327.7 567 328.3 567.1C328.9 567.2 329.4 567.3 329.9 567.5C335.8 569.1 340.7 572.5 344.3 577C344.9 577.7 345.4 578.4 345.9 579.2C349.3 584.5 350.9 591 350 597.7C350 598 349.9 598.3 349.9 598.6C349.9 598.9 349.8 599.1 349.8 599.4C348.4 606.3 344.5 612.1 339.2 616C339 616.2 338.7 616.3 338.5 616.5C332.8 620.4 325.7 622.2 318.4 620.9C318.2 620.9 317.9 620.8 317.6 620.8C317.3 620.7 317.1 620.7 316.8 620.6C309.4 618.7 303.5 614.3 299.8 608.5Z" fill="#CAE7FC"/>
<path d="M518.7 921.7L525.6 926" stroke="#F5821F" stroke-width="3" stroke-miterlimit="10" stroke-linecap="round" stroke-linejoin="round"/>
<path d="M472.9 921.6L466.1 925.9" stroke="#F5821F" stroke-width="3" stroke-miterlimit="10" stroke-linecap="round" stroke-linejoin="round"/>
<path d="M603.3 946.3C602.7 947.4 601.9 948.4 601.2 949.1C600.5 949.9 599.5 950.3 598.4 950.3L528.2 950.2C526.4 950.2 524.9 948.8 524.9 947V946L524.8 940V937.8L524.4 915.4L562.1 914.2C570 915.8 599.3 935.2 603 940C604.8 942.1 604.3 944.4 603.3 946.3Z" fill="#FA9746"/>
<path d="M576.2 946.3C576.1 946.8 575.7 947.1 575.2 947.1C575.1 947.1 575.1 947.1 575 947.1C573 946.7 570.1 945.3 566.3 943.5C559.9 940.5 551.2 936.4 543.6 935.6C532.1 934.5 525.5 939.5 525.4 939.6C525.2 939.7 525 939.8 524.8 939.8V937.6C526.8 936.3 533.4 932.6 543.8 933.7C551.8 934.5 560.7 938.7 567.2 941.7C570.7 943.3 573.7 944.8 575.4 945.1C576 945.2 576.3 945.8 576.2 946.3Z" fill="#F5821F"/>
<path d="M603.3 946.3C602.7 947.4 601.9 948.4 601.2 949.1C600.5 949.9 599.5 950.3 598.4 950.3L528.2 950.2C526.4 950.2 524.9 948.8 524.9 947V946L603.3 946.3Z" fill="#1D458A"/>
<path d="M573.6 927.5C573.6 927.5 575.3 922.1 578.3 920.2" stroke="#FFF5E8" stroke-width="3" stroke-miterlimit="10" stroke-linecap="round" stroke-linejoin="round"/>
<path d="M580.1 930.7C580.1 930.7 581.8 925.3 584.8 923.4" stroke="#FFF5E8" stroke-width="3" stroke-miterlimit="10" stroke-linecap="round" stroke-linejoin="round"/>
<path d="M586.5 934.7C586.5 934.7 588.2 929.3 591.2 927.4" stroke="#FFF5E8" stroke-width="3" stroke-miterlimit="10" stroke-linecap="round" stroke-linejoin="round"/>
<path d="M467.2 915.2L466.8 937.6V939.8L466.7 945.8V946.8C466.7 948.6 465.2 950 463.4 950L393.2 950.1C392.2 950.1 391.2 949.7 390.4 948.9C389.7 948.2 388.9 947.2 388.3 946.1C387.3 944.2 386.8 941.9 388.5 939.7C392.3 934.9 421.5 915.5 429.4 913.9L467.2 915.2Z" fill="#FA9746"/>
<path d="M466.8 937.6V939.8C466.6 939.8 466.4 939.7 466.2 939.6C466.1 939.5 459.5 934.5 448 935.6C440.4 936.4 431.6 940.5 425.3 943.4C421.6 945.2 418.6 946.5 416.6 947C416.5 947 416.5 947 416.4 947C415.9 947 415.5 946.7 415.4 946.2C415.3 945.7 415.6 945.1 416.2 945C417.9 944.6 421 943.2 424.4 941.6C430.9 938.6 439.8 934.4 447.8 933.6C458.3 932.6 464.8 936.3 466.8 937.6Z" fill="#F5821F"/>
<path d="M388.4 946.2C389 947.3 389.8 948.3 390.5 949C391.2 949.8 392.2 950.2 393.3 950.2L463.5 950.1C465.3 950.1 466.8 948.7 466.8 946.9V945.9L388.4 946.2Z" fill="#1D458A"/>
<path d="M418.1 927.4C418.1 927.4 416.4 922 413.4 920.1" stroke="#FFF5E8" stroke-width="3" stroke-miterlimit="10" stroke-linecap="round" stroke-linejoin="round"/>
<path d="M411.6 930.7C411.6 930.7 409.9 925.3 406.9 923.4" stroke="#FFF5E8" stroke-width="3" stroke-miterlimit="10" stroke-linecap="round" stroke-linejoin="round"/>
<path d="M405.2 934.7C405.2 934.7 403.5 929.3 400.5 927.4" stroke="#FFF5E8" stroke-width="3" stroke-miterlimit="10" stroke-linecap="round" stroke-linejoin="round"/>
<path d="M571.3 915.9C545.6 927.6 523.4 915.9 523.4 915.9L518.6 715.6L470.6 915.9C445.3 928.2 418.9 915.9 418.9 915.9L473.1 685.2L475.6 674.6L569.5 676.2L569.6 686.3L571.3 915.9Z" fill="#1D458A"/>
<path d="M1320 774.7C1320 781 1314.9 786.5 1308.2 786.5H606.4C603.8 786.5 601.4 785.7 599.4 784.2C597.2 782.6 595.6 780.2 594.9 777.4L473 273.7C469.5 259.2 480.5 245.2 495.4 245.2H1182.9C1188.4 245.2 1193.1 248.9 1194.4 254.2L1319.6 771.8C1319.9 772.8 1320 773.7 1320 774.7Z" fill="#1D458A"/>
<path d="M1320.9 771.9H611.9L487.6 259.1C485.9 252 491.2 245.2 498.5 245.2H1179.3C1187.5 245.2 1194.6 250.8 1196.5 258.7L1320.9 771.9Z" fill="#041C52"/>
<path d="M1301.1 759.4H625.6L504 256.9H1179.5L1301.1 759.4Z" fill="#E6F3FC"/>
<path d="M769 595.6C767.1 595.6 765.3 595.1 763.6 594C758.8 591 757.4 584.7 760.4 580L835.6 460.5C838.6 455.7 844.9 454.3 849.6 457.3C854.4 460.3 855.8 466.6 852.8 471.3L777.6 590.8C775.7 594 772.4 595.6 769 595.6Z" fill="#1D458A"/>
<path d="M922 543.7C922.1 543.6 922.1 543.4 922.2 543.3C922.3 543.2 922.3 543 922.4 542.8C922.4 542.7 922.5 542.6 922.5 542.4C922.6 542.2 922.6 542.1 922.6 541.9C922.6 541.8 922.7 541.7 922.7 541.6C922.7 541.4 922.8 541.3 922.8 541.1C922.8 541 922.8 540.9 922.8 540.7C922.8 540.5 922.8 540.4 922.8 540.2C922.8 540.1 922.8 539.9 922.8 539.8C922.8 539.7 922.8 539.5 922.8 539.4C922.8 539.2 922.8 539.1 922.8 538.9C922.8 538.8 922.8 538.7 922.8 538.5C922.8 538.3 922.8 538.2 922.7 538C922.7 537.9 922.6 537.8 922.6 537.7C922.6 537.5 922.5 537.4 922.5 537.2C922.5 537.1 922.4 537 922.4 536.8C922.3 536.6 922.3 536.5 922.2 536.3C922.1 536.2 922.1 536 922 535.9C921.9 535.8 921.9 535.7 921.8 535.6C921.7 535.4 921.6 535.2 921.5 535.1C921.5 535 921.4 535 921.4 534.9C921.3 534.7 921.1 534.5 921 534.4C920.9 534.3 920.9 534.3 920.8 534.2C920.7 534.1 920.6 533.9 920.4 533.8C920.3 533.7 920.2 533.6 920.1 533.5C920 533.4 919.9 533.3 919.8 533.2C919.7 533.1 919.5 532.9 919.4 532.8C919.3 532.7 919.3 532.7 919.2 532.6C919 532.5 918.8 532.3 918.7 532.2L868.4 499.5C864.2 496.8 858.6 498 855.9 502.2C853.2 506.4 854.4 512 858.6 514.7L897.2 539.8L858.6 564.9C854.4 567.6 853.2 573.2 855.9 577.4C857.6 580.1 860.5 581.5 863.5 581.5C865.2 581.5 866.9 581 868.4 580L918.7 547.3L918.8 547.2C918.9 547.1 919 547 919.2 546.9C919.4 546.8 919.5 546.6 919.7 546.5C919.8 546.4 919.9 546.3 920 546.2C920.2 546 920.4 545.8 920.6 545.6L920.7 545.5C920.9 545.2 921.2 544.9 921.4 544.6C921.4 544.5 921.5 544.5 921.5 544.4C921.6 544.2 921.7 544 921.8 543.9C921.9 543.9 922 543.8 922 543.7Z" fill="#1D458A"/>
<path d="M697.2 487C697.1 487.1 697.1 487.3 697 487.4C696.9 487.5 696.9 487.7 696.8 487.8C696.8 487.9 696.7 488 696.7 488.2C696.6 488.4 696.6 488.5 696.6 488.7C696.6 488.8 696.5 488.9 696.5 489C696.5 489.2 696.4 489.3 696.4 489.5C696.4 489.6 696.4 489.7 696.4 489.9C696.4 490.1 696.4 490.2 696.4 490.4C696.4 490.5 696.4 490.7 696.4 490.8C696.4 490.9 696.4 491.1 696.4 491.2C696.4 491.4 696.4 491.5 696.4 491.7C696.4 491.8 696.4 491.9 696.4 492.1C696.4 492.3 696.4 492.4 696.5 492.6C696.5 492.7 696.5 492.8 696.6 492.9C696.6 493.1 696.7 493.2 696.7 493.4C696.7 493.5 696.8 493.6 696.8 493.8C696.9 493.9 696.9 494.1 697 494.2C697.1 494.3 697.1 494.5 697.2 494.6C697.3 494.7 697.3 494.8 697.4 494.9C697.5 495.1 697.6 495.3 697.7 495.4C697.7 495.5 697.8 495.5 697.8 495.6C697.9 495.8 698 496 698.2 496.1C698.3 496.2 698.3 496.2 698.4 496.3C698.5 496.4 698.6 496.6 698.8 496.7C698.9 496.8 699 496.9 699.1 497C699.2 497.1 699.3 497.2 699.4 497.2C699.5 497.3 699.7 497.4 699.8 497.6C699.9 497.7 699.9 497.7 700 497.8C700.2 497.9 700.3 498.1 700.5 498.2L750.3 530.5C754.5 533.2 760 532 762.7 527.9C765.4 523.7 764.2 518.2 760.1 515.5L721.9 490.7L760 466C764.2 463.3 765.3 457.8 762.6 453.6C760.9 451 758 449.5 755.1 449.5C753.4 449.5 751.7 450 750.2 450.9L700.4 483.2L700.3 483.3C700.2 483.4 700.1 483.5 699.9 483.6C699.7 483.7 699.6 483.9 699.4 484C699.3 484.1 699.2 484.2 699.1 484.3C698.9 484.5 698.7 484.7 698.5 484.9L698.4 485C698.2 485.3 698 485.6 697.8 485.9C697.8 486 697.7 486 697.7 486.1C697.6 486.3 697.5 486.4 697.4 486.6C697.3 486.8 697.3 486.9 697.2 487Z" fill="#1D458A"/>
<path d="M1323.2 786.5H606.4C603.8 786.5 601.4 785.7 599.4 784.2L611.7 771.9H1319.7L1323.2 786.5Z" fill="#052569"/>
<path d="M1098.3 950.2H870.3C860 950.2 850.8 945.5 844.6 938.2C838.8 931.4 835.6 922.3 836.5 912.5L848.4 786.4H1042.3L1031.3 903.5C1029.7 920.4 1041.3 935.3 1057.2 938.2C1059 938.5 1060.9 938.7 1062.9 938.7H1087C1090.1 938.7 1092.9 940 1095 942.1C1097 944.2 1098.3 947.1 1098.3 950.2Z" fill="#1D458A"/>
<path d="M1098.3 950.2H883.4C873.1 950.2 863.9 945.5 857.7 938.2C851.9 931.4 848.7 922.3 849.6 912.5L859 813L861.5 786.5H1042.3L1039.8 813L1031.3 903.6C1029.7 920.5 1041.3 935.4 1057.2 938.3C1059 938.6 1060.9 938.8 1062.9 938.8H1087C1090.1 938.8 1092.9 940.1 1095 942.2C1097 944.2 1098.3 947.1 1098.3 950.2Z" fill="#052569"/>
<path d="M1095 942.1C1093 940 1090.1 938.7 1087 938.7H1062.9C1061 938.7 1059.1 938.5 1057.2 938.2H866.4C845.1 938.2 850.2 906.1 850.2 906.1L845.1 938.2H844.5C850.7 945.5 859.9 950.2 870.2 950.2H1098.2C1098.3 947.1 1097 944.2 1095 942.1Z" fill="#1D458A"/>
<path d="M1042.3 786.5L1039.8 813H859L861.5 786.5H1042.3Z" fill="#041C52"/>
<path d="M569.6 689.9C534.4 706.6 483.9 693.1 473.2 685.3L475.7 674.7L569.6 676.3V689.9Z" fill="#052569"/>
<path d="M579.8 637.5C579.3 638.5 579.9 645.5 578.6 655.5C577.3 665.5 570.2 672.7 570.2 672.7L569.6 684.3C548.1 693.7 524.5 694.1 505.8 692.1C505.1 692 504.5 692 503.8 691.9C501.7 691.7 499.6 691.4 497.7 691.1C497 691 496.4 690.9 495.7 690.8C493.1 690.4 490.6 689.9 488.2 689.4C487.5 689.3 486.9 689.1 486.3 689C483.4 688.4 480.9 687.7 478.7 687.2C478 687 477.4 686.8 476.8 686.7C473.1 685.7 471 684.9 471 684.9L472.4 674.9C472.4 674.9 462 659.3 473.3 618.4C473.5 617.7 471.8 602.7 472.4 597.4C474 584 477.2 580.4 480.1 576.2C484.1 570.2 510.8 558.8 523 556.5L545.3 560.4C545.6 560.4 564.6 560.5 578.3 585.8C582.9 594.2 579.8 637.5 579.8 637.5Z" fill="#FA9746"/>
<path d="M518.6 715.5L525.1 701.2C526.1 699 529.4 699.8 529.2 702.2L521.3 830.6L518.6 715.5Z" fill="#052569"/>
<path d="M542.8 564.6C542.8 564.6 532.8 568.5 522.3 557.9C522.3 557.9 527 547.2 527.7 544.4L531.7 534.2L538.1 542.2L546.6 552.8L544.2 560.3L542.8 564.6Z" fill="#C3604A"/>
<path d="M544.2 560.2C537.1 555.1 538.1 542.1 538.1 542.1L546.6 552.7L544.2 560.2Z" fill="#9A2B1E"/>
<path d="M568.6 525.2C568.6 525.2 564.2 554.5 555.4 556.1C546.6 557.7 537.5 545.7 537.5 545.7L530.4 535.8L529.7 513L572.4 514.6L568.6 525.2Z" fill="#C3604A"/>
<path d="M568.6 525.2C568.6 525.2 581.4 520.4 583 513.5C584.6 506.6 579.6 502.9 577.5 502.6C575.4 502.3 568.5 503.5 565.4 501.3C562.2 499.1 553.4 488.8 541.7 492.2C530 495.6 530.5 504.6 530.5 504.6C530.5 504.6 524.5 504.1 522 508.4C519.5 512.7 521.4 520.8 523.6 523.8C525.8 526.8 526 531 525.7 534.6C525.4 538.1 524.8 543.1 527.4 545.2C527.4 545.2 533 537.1 532.6 532.9C532.2 528.7 529.4 525.1 532.5 521.3C535.6 517.4 539.5 518.2 540.8 519.4C542.1 520.6 542.6 524.2 543.9 524.6C545.2 525 547.3 523.9 551.7 520.4C556.1 516.9 559.6 515.4 563.1 516.8C566.7 518.1 569.8 520.4 568.6 525.2Z" fill="#1D2954"/>
<path d="M559.3 543.8C558.7 543.8 558.2 543.7 557.7 543.5C557.3 543.3 557.2 542.9 557.4 542.5C557.6 542.1 558 542 558.4 542.2C558.9 542.4 560.1 542.4 560.7 542C561 541.8 561 541.7 561 541.6C561 540.8 559.7 540.2 559.4 540C559.1 539.9 558.9 539.5 559 539.2L560.2 532.6C560.3 532.2 560.7 531.9 561.1 532C561.5 532.1 561.8 532.5 561.7 532.9L560.6 539C561.4 539.4 562.6 540.3 562.6 541.7C562.6 542.4 562.2 543 561.6 543.4C560.8 543.6 560 543.8 559.3 543.8Z" fill="#9A2B1E"/>
<path d="M557.7 549C555.2 549 551.8 546.5 551.4 546.1C551.1 545.8 551 545.4 551.3 545C551.6 544.7 552 544.6 552.4 544.9C554 546.1 557 547.9 558.3 547.4C558.7 547.3 559.1 547.5 559.3 547.8C559.4 548.2 559.2 548.6 558.9 548.8C558.4 548.9 558.1 549 557.7 549Z" fill="#9A2B1E"/>
<path d="M540.3 528.9C540.3 528.9 540.2 528.9 540.3 528.9C539.8 528.9 539.5 528.5 539.6 528.1C539.9 524.3 536.3 522.4 536.3 522.4C535.9 522.2 535.8 521.8 536 521.4C536.2 521 536.6 520.9 537 521.1C537.2 521.2 541.5 523.4 541.1 528.2C541 528.6 540.7 528.9 540.3 528.9Z" fill="#9A2B1E"/>
<path d="M535.6 527.1C535.5 527.1 535.4 527.1 535.2 527C534.8 526.8 534.7 526.3 534.9 526C535.9 524.2 538.7 523.5 539 523.5C539.4 523.4 539.8 523.7 539.9 524.1C540 524.5 539.7 524.9 539.3 525C538.6 525.1 536.8 525.7 536.2 526.8C536.1 526.9 535.9 527.1 535.6 527.1Z" fill="#9A2B1E"/>
<path d="M556.465 531.841C556.593 530.633 555.984 529.578 555.105 529.486C554.226 529.393 553.41 530.297 553.283 531.506C553.156 532.714 553.765 533.769 554.644 533.861C555.523 533.954 556.338 533.049 556.465 531.841Z" fill="#1D2954"/>
<path d="M566.96 533.141C567.088 531.933 566.478 530.878 565.6 530.786C564.721 530.693 563.905 531.597 563.778 532.806C563.651 534.014 564.26 535.069 565.139 535.161C566.017 535.254 566.833 534.349 566.96 533.141Z" fill="#1D2954"/>
<path d="M557.5 527.5C557.4 528.3 556.1 527.9 554.4 527.8C552.7 527.7 551.4 527.9 551.4 527C551.4 526.1 552.9 524.9 554.6 525C556.3 525.1 557.5 526.7 557.5 527.5Z" fill="#1D2954"/>
<path d="M569.2 528.6C569.1 529.4 567.8 529 566.1 528.8C564.4 528.6 563.1 528.7 563.1 527.9C563.2 527.1 564.7 525.9 566.4 526C568.1 526.2 569.3 527.8 569.2 528.6Z" fill="#1D2954"/>
<path d="M1379.8 626.6C1374.1 632.8 1293.8 602.7 1293.8 602.7C1293.8 602.7 1292.4 597 1294.1 594.3C1295.8 591.6 1302.1 590.2 1303 586.4C1303.9 582.6 1303.7 578.7 1303.7 578.7L1303.2 550.7C1303.2 550.7 1301 542.8 1307.2 536.5C1312.3 531.3 1320.9 529.9 1325.5 530.1C1326.5 530.2 1327.4 530.3 1327.9 530.5C1328.3 530.5 1342.6 529.1 1346.2 538.2C1349.9 547.5 1348.7 553.2 1348.9 556.5C1349 559.8 1350.3 563 1353.6 565.9C1356.9 568.8 1360.7 570.7 1362.5 574.4C1364.3 578.1 1363.4 582.3 1365.2 586.2C1367 590.1 1376.4 593.2 1377.3 598C1378.2 602.8 1376.4 606.5 1377.3 609.4C1378.1 612.4 1385.5 620.3 1379.8 626.6Z" fill="#1D2954"/>
<path opacity="0.14" d="M855.4 849.8L1038.1 829.9L1034.6 867.2L851.6 889.9L855.4 849.8Z" fill="white"/>
<path d="M743 360.4L746.1 368" stroke="#F5821F" stroke-width="4" stroke-miterlimit="10" stroke-linecap="round" stroke-linejoin="round"/>
<path d="M804.3 419.9C804.4 422.7 802.7 424.3 800.8 425.2C799.7 425.8 798.5 426.1 797.5 426.3C796.5 426.5 795.4 426.3 794.6 425.7L737.5 385C736 383.9 735.7 381.9 736.7 380.4L737.3 379.5L740.7 374.5L741.9 372.7L750 360.8L786 375.1C791.4 381 804 413.7 804.3 419.9Z" fill="#FA9746"/>
<path d="M778.7 409.5C778.5 409.7 778.3 409.8 778 409.8C777.7 409.8 777.5 409.7 777.3 409.5C775.9 408 774.3 405.2 772.3 401.6C768.8 395.5 764.1 387.1 758.3 382C749.6 374.4 741.3 374.7 741.2 374.7C741 374.7 740.8 374.6 740.6 374.5L741.8 372.7C744.1 372.8 751.7 373.6 759.6 380.5C765.6 385.8 770.5 394.3 774 400.6C775.9 404 777.5 406.8 778.7 408.2C779.1 408.5 779.1 409.2 778.7 409.5Z" fill="#F5821F"/>
<path d="M800.7 425.2C799.6 425.8 798.4 426.1 797.4 426.3C796.4 426.5 795.3 426.3 794.5 425.7L737.4 385C735.9 383.9 735.6 381.9 736.6 380.4L737.2 379.5L800.7 425.2Z" fill="#1D458A"/>
<path d="M787.4 392.6C787.4 392.6 791.9 389.2 795.5 389.4L787.4 392.6Z" fill="black"/>
<path d="M787.4 392.6C787.4 392.6 791.9 389.2 795.5 389.4" stroke="#E6F3FC" stroke-width="4" stroke-miterlimit="10" stroke-linecap="round" stroke-linejoin="round"/>
<path d="M799.5 362.9L803.1 370.2" stroke="#F5821F" stroke-width="4" stroke-miterlimit="10" stroke-linecap="round" stroke-linejoin="round"/>
<path d="M790.1 398.6C790.1 398.6 794.6 395.2 798.2 395.4L790.1 398.6Z" fill="black"/>
<path d="M790.1 398.6C790.1 398.6 794.6 395.2 798.2 395.4" stroke="#E6F3FC" stroke-width="4" stroke-miterlimit="10" stroke-linecap="round" stroke-linejoin="round"/>
<path d="M793.8 406.1C793.8 406.1 798.3 402.7 801.9 402.9L793.8 406.1Z" fill="black"/>
<path d="M793.8 406.1C793.8 406.1 798.3 402.7 801.9 402.9" stroke="#E6F3FC" stroke-width="4" stroke-miterlimit="10" stroke-linecap="round" stroke-linejoin="round"/>
<path d="M862 423C860.9 423.7 859.7 424.1 858.8 424.3C857.8 424.6 856.7 424.4 855.8 423.9L795.7 387.7C794.2 386.8 793.7 384.8 794.5 383.2L795 382.3L798 377.1L799.1 375.2L806.2 362.7L843.2 374.2C849.1 379.6 864.3 411.3 865 417.4C865.4 420.1 863.9 421.9 862 423Z" fill="#FA9746"/>
<path d="M838.8 409.1C838.6 409.3 838.3 409.4 838.1 409.4C837.9 409.4 837.6 409.3 837.4 409.1C835.9 407.7 834.1 405 831.8 401.6C827.9 395.8 822.5 387.8 816.4 383.2C807.1 376.3 798.9 377.2 798.8 377.2C798.6 377.2 798.4 377.2 798.2 377.1L799.3 375.2C801.7 375.1 809.2 375.3 817.7 381.6C824.1 386.4 829.6 394.6 833.6 400.5C835.7 403.7 837.6 406.4 838.9 407.7C839.1 408 839.2 408.7 838.8 409.1Z" fill="#F5821F"/>
<path d="M862 423C860.9 423.6 859.7 424.1 858.8 424.3C857.8 424.6 856.7 424.4 855.8 423.9L795.7 387.7C794.2 386.8 793.6 384.8 794.5 383.2L795 382.3L862 423Z" fill="#1D458A"/>
<path d="M846.2 391.6C846.2 391.6 850.4 387.8 854 387.8L846.2 391.6Z" fill="black"/>
<path d="M846.2 391.6C846.2 391.6 850.4 387.8 854 387.8" stroke="#E6F3FC" stroke-width="4" stroke-miterlimit="10" stroke-linecap="round" stroke-linejoin="round"/>
<path d="M849.3 397.2C849.3 397.2 853.5 393.4 857.1 393.4L849.3 397.2Z" fill="black"/>
<path d="M849.3 397.2C849.3 397.2 853.5 393.4 857.1 393.4" stroke="#E6F3FC" stroke-width="4" stroke-miterlimit="10" stroke-linecap="round" stroke-linejoin="round"/>
<path d="M853.6 404.4C853.6 404.4 857.8 400.6 861.4 400.6L853.6 404.4Z" fill="black"/>
<path d="M853.6 404.4C853.6 404.4 857.8 400.6 861.4 400.6" stroke="#E6F3FC" stroke-width="4" stroke-miterlimit="10" stroke-linecap="round" stroke-linejoin="round"/>
<path d="M716.8 193.4C716.8 193.4 705.4 223.4 724.1 247.2H790.8L746.6 358.9C746.6 358.9 754.9 377.6 792.3 376.2L805.3 347.5V363.2C805.3 363.2 820.3 375 845.6 376.3C845.6 376.3 853.3 270.5 853.8 256.7C854.3 242.9 855 216.9 844.3 212.4L805.6 193.4H716.8Z" fill="#1D458A"/>
<path d="M819.6 210C819.6 210 837.3 220.2 839.9 237.6C842.5 255 805.2 347.6 805.2 347.6" stroke="#052569" stroke-width="2" stroke-miterlimit="10" stroke-linecap="round" stroke-linejoin="round"/>
<path d="M757.4 87.4C757.4 87.4 727.5 93.9 720.7 105.4C713.9 116.9 695.9 161.1 707.5 177.4C707.5 177.4 710.9 183.1 715.7 188.1L714.1 194.2C714.1 194.2 725.4 197.2 732.4 198.7C732.4 198.7 750.4 208.2 758.7 208.2C758.7 208.2 761.4 201.9 763.4 199.4H796.6C796.6 199.4 802.9 186.7 801.4 178.4L807.6 189.6L853.6 154.5C853.6 154.5 807.6 105.6 799.1 99.4C790.6 93.2 778.1 90.9 778.1 90.9L757.4 87.4Z" fill="#052569"/>
<path d="M738.8 164.4C738.8 164.4 734.6 165.8 733 168.4" stroke="#020F2B" stroke-width="2" stroke-miterlimit="10" stroke-linecap="round"/>
<path d="M801.3 127.1C801.3 127.1 800.1 143.3 799.4 156C798.9 165.6 801.3 173.6 801.5 178.4" stroke="#020F2B" stroke-width="2" stroke-miterlimit="10" stroke-linecap="round"/>
<path d="M715.7 188.1C715.7 188.1 724.7 194.9 732.5 198.7" stroke="#020F2B" stroke-width="2" stroke-miterlimit="10" stroke-linecap="round"/>
<path d="M760.6 73.2L757.4 87.4C757.4 87.4 770.1 101.5 777.4 93.9L780.1 85.7L760.6 73.2Z" fill="#F4AB9B"/>
<path d="M768.5 80.7C768.5 80.7 770.4 88.8 777.7 92.9L780.1 85.7L769.5 78.9L768.5 80.7Z" fill="#DE846F"/>
<path d="M768.5 80.6999C768.5 80.6999 779.3 91.6999 789.1 85.4999C798.9 79.2999 801.3 54.4999 801.3 54.4999C801.3 54.4999 795 45.2999 773.5 47.7999C752 50.2999 761.2 67.4999 760.7 72.2999C760.2 77.0999 768.5 80.6999 768.5 80.6999Z" fill="#F4AB9B"/>
<path d="M785.1 53.7C790.9 51.7 794.3 57.4 801 56.8C807.7 56.2 808.6 39.6 799.4 36.5C790.9 33.6 784.8 33.7 778.7 34C773.2 34.3 768.8 36.5 765 38.6C753.2 45.3 754.7 62.2 755.4 67.5C755.7 70.2 757 75.9 758.5 77.1C759.5 77.9 759.6 78.2 760.4 76.5C761.1 74.8 765.4 67.3 764.9 65.6C764.4 63.9 760.1 58.6 765.4 55.5C770.6 52.4 773.6 56.5 773.9 58.1C774.4 60.7 773.3 62.9 775.1 63.9C776.9 65 780.6 61.7 782 57.5C782.9 54.7 785.1 53.7 785.1 53.7Z" fill="#1D2954"/>
<path d="M767.6 58C767.6 58 770.4 59.4 770.7 63.2" stroke="#DE846F" stroke-width="1.5" stroke-miterlimit="10" stroke-linecap="round" stroke-linejoin="round"/>
<path d="M769.9 60.4C769.9 60.4 768.9 60.4 767.6 62.1" stroke="#DE846F" stroke-width="1.5" stroke-miterlimit="10" stroke-linecap="round" stroke-linejoin="round"/>
<path d="M789.795 68.0979C790.209 66.8388 789.865 65.5943 789.025 65.3183C788.186 65.0422 787.17 65.8391 786.756 67.0982C786.342 68.3573 786.686 69.6017 787.526 69.8778C788.365 70.1538 789.381 69.357 789.795 68.0979Z" fill="#1D2954"/>
<path d="M799.737 70.0317C800.151 68.7726 799.806 67.5282 798.967 67.2521C798.128 66.976 797.112 67.7729 796.698 69.032C796.283 70.2911 796.628 71.5356 797.468 71.8116C798.307 72.0877 799.323 71.2907 799.737 70.0317Z" fill="#1D2954"/>
<path d="M794.5 68.6L792.6 74.1C792.6 74.1 793.2 74.8 793.9 75.2C794.2 75.3 794.3 75.7 794.1 75.9C793.6 76.6 792.6 77.6 791.2 77.2" stroke="#DE846F" stroke-width="1.5" stroke-miterlimit="10" stroke-linecap="round" stroke-linejoin="round"/>
<path d="M782 76.4C782 76.4 783.5 80.8 788.3 81.3" stroke="#DE846F" stroke-width="1.5" stroke-miterlimit="10" stroke-linecap="round" stroke-linejoin="round"/>
<path d="M792.3 63.5C792.1 64.3 791.1 63.9 789.8 63.5C788.4 63.1 787.2 63.1 787.4 62.2C787.6 61.4 789 60.8 790.4 61.1C791.8 61.5 792.6 62.7 792.3 63.5Z" fill="#1D2954"/>
<path d="M801.8 65.5C801.6 66.3 800.6 65.9 799.3 65.5C797.9 65.1 796.7 65.1 796.9 64.2C797.1 63.4 798.5 62.8 799.9 63.1C801.2 63.5 802 64.7 801.8 65.5Z" fill="#1D2954"/>
<path d="M747.5 128.5C747.5 128.5 738.3 162.7 738.7 164.4C739.1 166.1 745.7 169.4 746 170.2C746.3 171 755.8 173.2 757.7 174.9C759.5 176.6 762.9 182.8 764.4 183.7C765.8 184.6 770.2 188.7 770.2 188.7C770.2 188.7 761.6 198.5 758.7 208.2" stroke="#020F2B" stroke-width="2" stroke-miterlimit="10" stroke-linecap="round" stroke-linejoin="round"/>
<path d="M893.5 145V209.7C893.5 211.1 892.4 212.2 891 212.2H765.3C763.9 212.2 762.8 211.1 762.8 209.7V145C762.8 143.6 763.9 142.5 765.3 142.5H766.3C767.7 142.5 768.8 141.4 768.8 140V135C768.8 133.6 769.9 132.5 771.3 132.5H794.4C795.8 132.5 796.9 133.6 796.9 135V139.9C796.9 141.3 798 142.4 799.4 142.4H811C812.4 142.4 813.5 141.3 813.5 139.9V135C813.5 133.6 814.6 132.5 816 132.5H839.1C840.5 132.5 841.6 133.6 841.6 135V139.9C841.6 141.3 842.7 142.4 844.1 142.4H857.4C858.8 142.4 859.9 141.3 859.9 139.9V135C859.9 133.6 861 132.5 862.4 132.5H885.5C886.9 132.5 888 133.6 888 135V139.9C888 140.6 888.3 141.2 888.8 141.7C889.3 142.2 889.9 142.5 890.6 142.5C892.3 142.5 893.5 143.6 893.5 145Z" fill="url(#paint0_linear_903_6731)"/>
<path d="M747.5 128.5C747.5 128.5 738.3 162.7 738.7 164.4C739.1 166.1 745.7 169.4 746 170.2C746.3 171 755.8 173.2 757.7 174.9C759.5 176.6 762.9 182.8 764.4 183.7C765.8 184.6 770.2 188.7 770.2 188.7C770.2 188.7 761.6 198.5 758.7 208.2" fill="#052569"/>
<path d="M893.5 154.5C893.5 154.5 897.2 159.3 898 164.4C898.8 169.5 895.8 176.7 893.5 178C891.2 179.3 885.9 179.3 885.6 178.1C885.6 178.1 882.6 178.1 882 176.6C881.6 175.7 881.5 174.3 881.5 174.3C881.5 174.3 878 173.1 878.2 170.7C878.2 170.7 875.5 167.4 878.2 166.1C880.9 164.9 889.5 164.7 893.5 160.5V154.5Z" fill="#F4AB9B"/>
<path d="M878.2 170.7C878.2 170.7 889.8 168.9 894.9 165.6" stroke="#DE846F" stroke-width="1.5" stroke-miterlimit="10" stroke-linecap="round"/>
<path d="M881.5 174.3C881.5 174.3 890.7 173.3 895.3 169.7" stroke="#DE846F" stroke-width="1.5" stroke-miterlimit="10" stroke-linecap="round"/>
<path d="M885.3 177.7C885.3 177.7 891.7 176.8 893.9 174.3" stroke="#DE846F" stroke-width="1.5" stroke-miterlimit="10" stroke-linecap="round"/>
<path d="M747.5 128.5C747.5 128.5 738.3 162.7 738.7 164.4C739.1 166.1 745.7 169.4 746 170.2C746.3 171 755.8 173.2 757.7 174.9C759.5 176.6 762.9 182.8 764.4 183.7C765.8 184.6 770.2 188.7 770.2 188.7C770.2 188.7 761.6 198.5 758.7 208.2" fill="#052569"/>
<path d="M770.3 188C770.3 188 772 189.1 770.3 193.2C768.6 197.4 762.2 210.7 759 206.9C758.9 207 765.4 190.5 770.3 188Z" fill="#020F2B"/>
<path d="M767.2 192.6C767.2 192.6 769.1 195.6 773.6 194.9C778.1 194.2 789.3 187.4 791.4 188.9C793.6 190.4 792.4 194.8 784.1 199.4C784.1 199.4 790.9 209.1 796.3 212.2C796.3 212.2 795.5 215.5 790.9 214.8C790.9 214.8 788.7 217.1 784.4 215.9C784.4 215.9 782.6 218 779.1 217.3C779.1 217.3 773.7 218.1 770.3 216.3C767 214.5 761.4 207.6 759 207C758.9 207 762.6 200.6 767.2 192.6Z" fill="#F4AB9B"/>
<path d="M780.8 208.2C780.8 208.2 785.2 212.7 790.9 214.8" stroke="#DE846F" stroke-width="1.5" stroke-miterlimit="10" stroke-linecap="round"/>
<path d="M776.9 210.5C776.9 210.5 780.5 214.3 784.4 215.9" stroke="#DE846F" stroke-width="1.5" stroke-miterlimit="10" stroke-linecap="round"/>
<path d="M772.3 213.2C772.3 213.2 775 216.4 779.1 217.3" stroke="#DE846F" stroke-width="1.5" stroke-miterlimit="10" stroke-linecap="round"/>
<path d="M747.5 128.5C747.5 128.5 738.3 162.7 738.7 164.4C739.1 166.1 745.7 169.4 746 170.2C746.3 171 755.8 173.2 757.7 174.9C759.5 176.6 762.9 182.8 764.4 183.7C765.8 184.6 770.2 188.7 770.2 188.7C770.2 188.7 761.6 198.5 758.7 208.2" stroke="#020F2B" stroke-width="2" stroke-miterlimit="10" stroke-linecap="round" stroke-linejoin="round"/>
<g opacity="0.62">
<g opacity="0.62">
<path opacity="0.62" d="M813 200.5C812.4 200.5 811.8 200.3 811.3 200C809.9 199 809.6 197.2 810.6 195.8L835.6 160.1C836.6 158.7 838.4 158.4 839.8 159.4C841.2 160.4 841.5 162.2 840.5 163.6L815.5 199.3C814.9 200 814 200.5 813 200.5Z" fill="white"/>
</g>
<g opacity="0.62">
<path opacity="0.62" d="M838.7 196.3C837.5 196.3 836.3 195.5 835.9 194.3C835.3 192.7 836.2 191 837.7 190.5L851.7 185.6L837.3 177.8C835.8 177 835.3 175.2 836.1 173.7C836.9 172.2 838.7 171.7 840.2 172.5L860.5 183.5C861.5 184.1 862.2 185.2 862.1 186.4C862 187.6 861.2 188.6 860.1 189L839.8 196.2C839.4 196.2 839 196.3 838.7 196.3Z" fill="white"/>
</g>
<g opacity="0.62">
<path opacity="0.62" d="M814.1 180.5C813.8 180.5 813.5 180.5 813.2 180.3L791.4 173.1C790.2 172.7 789.4 171.7 789.3 170.5C789.2 169.3 789.9 168.1 790.9 167.6L812.7 156.6C814.2 155.9 816 156.5 816.7 157.9C817.4 159.4 816.8 161.2 815.4 161.9L800 169.6L814.9 174.5C816.5 175 817.3 176.7 816.8 178.3C816.5 179.7 815.3 180.5 814.1 180.5Z" fill="white"/>
</g>
</g>
<path d="M799.5 142.5H766.3C767.7 142.5 768.8 141.4 768.8 140V135C768.8 133.6 769.9 132.5 771.3 132.5H794.4C795.8 132.5 796.9 133.6 796.9 135V139.9C797 141.3 798.1 142.5 799.5 142.5Z" fill="url(#paint1_linear_903_6731)"/>
<path d="M844.3 142.5H811.1C812.5 142.5 813.6 141.4 813.6 140V135C813.6 133.6 814.7 132.5 816.1 132.5H839.2C840.6 132.5 841.7 133.6 841.7 135V139.9C841.8 141.3 842.9 142.5 844.3 142.5Z" fill="url(#paint2_linear_903_6731)"/>
<path d="M890.9 142.5H857.7C859.1 142.5 860.2 141.4 860.2 140V135C860.2 133.6 861.3 132.5 862.7 132.5H885.8C887.2 132.5 888.3 133.6 888.3 135V139.9C888.3 140.6 888.6 141.2 889.1 141.7C889.6 142.2 890.2 142.5 890.9 142.5Z" fill="url(#paint3_linear_903_6731)"/>
<path d="M624.6 708.1L640.3 726.7L618.8 723.7L599.8 704.1L624.6 708.1Z" fill="#C3604A"/>
<path d="M575.2 580.4C582.2 589 593.8 629.9 599.4 645.5C605 661.2 607 666.6 612.3 674.6C617.6 682.6 629.7 703.8 630.7 710.6C630.7 710.6 612.6 721.4 608.8 720C595 714.7 588 696.8 584.8 690C582.9 685.8 570.7 677.5 568.5 668.3C566.3 659.3 575.2 580.4 575.2 580.4Z" fill="#FA9746"/>
<path d="M934.8 629.6V687.5C934.8 688.4 934.1 689.1 933.2 689.1H809.7C808.8 689.1 808.1 688.4 808.1 687.5V629.6C808.1 628.7 808.8 627.9 809.7 627.9H819.3C820.2 627.9 820.9 627.2 820.9 626.2V618C820.9 617.1 821.6 616.3 822.5 616.3H845.3C846.2 616.3 846.9 617 846.9 618V626.2C846.9 627.1 847.6 627.9 848.5 627.9H892.9C893.8 627.9 894.5 627.2 894.5 626.2V618C894.5 617.1 895.2 616.3 896.1 616.3H918.9C919.8 616.3 920.5 617 920.5 618V626.2C920.5 627.1 921.2 627.9 922.1 627.9H933.2C934 627.9 934.8 628.6 934.8 629.6Z" fill="url(#paint4_linear_903_6731)"/>
<path d="M848.5 627.9H819.3C820.2 627.9 820.9 627.2 820.9 626.2V618C820.9 617.1 821.6 616.3 822.5 616.3H845.3C846.2 616.3 846.9 617 846.9 618V626.2C846.9 627.2 847.6 627.9 848.5 627.9Z" fill="url(#paint5_linear_903_6731)"/>
<path d="M922.1 627.9H892.9C893.8 627.9 894.5 627.2 894.5 626.2V618C894.5 617.1 895.2 616.3 896.1 616.3H918.9C919.8 616.3 920.5 617 920.5 618V626.2C920.5 627.2 921.2 627.9 922.1 627.9Z" fill="url(#paint6_linear_903_6731)"/>
<path d="M1061.5 629.6V687.5C1061.5 688.4 1060.8 689.1 1059.9 689.1H936.4C935.5 689.1 934.8 688.4 934.8 687.5V629.6C934.8 628.7 935.5 627.9 936.4 627.9H946C946.1 627.9 946.1 627.9 946.2 627.9C947 627.8 947.6 627.1 947.6 626.3V618.1C947.6 617.2 948.3 616.4 949.2 616.4H972C972.9 616.4 973.6 617.1 973.6 618.1V626.3C973.6 627.1 974.2 627.8 975 627.9C975.1 627.9 975.1 627.9 975.2 627.9H1019.6C1020.5 627.9 1021.2 627.2 1021.2 626.2V618C1021.2 617.1 1021.9 616.3 1022.8 616.3H1045.6C1046.5 616.3 1047.2 617 1047.2 618V626.2C1047.2 627.1 1047.9 627.9 1048.8 627.9H1059.9C1060.8 627.9 1061.5 628.6 1061.5 629.6Z" fill="url(#paint7_linear_903_6731)"/>
<path d="M1172.4 626.7H1165.3C1164.5 626.7 1163.8 625.9 1163.8 625V616.6C1163.8 615.7 1163.1 614.9 1162.3 614.9H1141.5C1140.7 614.9 1140 615.7 1140 616.6V625C1140 625.9 1139.3 626.7 1138.5 626.7H1098.1C1097.3 626.7 1096.6 625.9 1096.6 625V616.6C1096.6 615.7 1095.9 614.9 1095.1 614.9H1074.3C1073.5 614.9 1072.8 615.7 1072.8 616.6V625C1072.8 625.9 1072.1 626.7 1071.3 626.7H1066.4H1062.5C1061.7 626.7 1061 627.5 1061 628.4V687.5C1061 688.4 1061.7 689.2 1062.5 689.2H1175C1175.8 689.2 1176.5 688.4 1176.5 687.5V628.4C1176.5 627.5 1175.8 626.7 1175 626.7H1172.4Z" fill="url(#paint8_linear_903_6731)"/>
<path d="M1176.9 528.8V623.4C1176.9 625.4 1175.4 627.1 1173.5 627.1H1005C1003.1 627.1 1001.6 625.4 1001.6 623.4V528.8C1001.6 526.7 1003.1 525.1 1005 525.1H1006.3C1006.5 525.1 1006.6 525.1 1006.8 525.1C1008.4 524.8 1009.7 523.3 1009.7 521.4V514.2C1009.7 512.1 1011.2 510.5 1013.1 510.5H1044.1C1046 510.5 1047.5 512.2 1047.5 514.2V521.4C1047.5 523.3 1048.8 524.8 1050.4 525.1C1050.6 525.1 1050.7 525.1 1050.9 525.1H1066.5C1066.7 525.1 1066.8 525.1 1067 525.1C1068.6 524.8 1069.9 523.3 1069.9 521.4V514.2C1069.9 512.1 1071.4 510.5 1073.3 510.5H1104.3C1106.2 510.5 1107.7 512.2 1107.7 514.2V521.4C1107.7 523.3 1109 524.8 1110.6 525.1C1110.8 525.1 1110.9 525.1 1111.1 525.1H1129C1129.2 525.1 1129.4 525.1 1129.5 525.1C1131.1 524.8 1132.4 523.3 1132.4 521.4V514.2C1132.4 512.1 1133.9 510.5 1135.8 510.5H1166.8C1168.7 510.5 1170.2 512.2 1170.2 514.2V521.4C1170.2 522.4 1170.6 523.4 1171.2 524C1171.7 524.5 1172.4 524.9 1173.1 525C1173.3 525 1173.4 525 1173.6 525C1175.4 525 1176.9 526.7 1176.9 528.8Z" fill="url(#paint9_linear_903_6731)"/>
<path d="M1050.4 525H1006.8C1008.4 524.7 1009.7 523.2 1009.7 521.3V514.1C1009.7 512 1011.2 510.4 1013.1 510.4H1044.1C1046 510.4 1047.5 512.1 1047.5 514.1V521.3C1047.5 523.2 1048.7 524.7 1050.4 525Z" fill="url(#paint10_linear_903_6731)"/>
<path d="M1110.5 525H1067C1068.6 524.7 1069.9 523.2 1069.9 521.3V514.1C1069.9 512 1071.4 510.4 1073.3 510.4H1104.3C1106.2 510.4 1107.7 512.1 1107.7 514.1V521.3C1107.6 523.2 1108.9 524.7 1110.5 525Z" fill="url(#paint11_linear_903_6731)"/>
<path d="M1173 525H1129.4C1131 524.7 1132.3 523.2 1132.3 521.3V514.1C1132.3 512 1133.8 510.4 1135.7 510.4H1166.7C1168.6 510.4 1170.1 512.1 1170.1 514.1V521.3C1170.1 522.3 1170.5 523.3 1171.1 523.9C1171.6 524.5 1172.3 524.9 1173 525Z" fill="url(#paint12_linear_903_6731)"/>
<path d="M689.2 782.1V811.6C689.2 814.6 691.7 817 694.8 817H703.7C706.8 817 709.3 819.4 709.3 822.4V848C709.3 851 706.8 853.4 703.7 853.4H694.8C691.7 853.4 689.2 855.8 689.2 858.8V888.3C689.2 891.3 691.7 893.7 694.8 893.7H703.7C706.8 893.7 709.3 896.1 709.3 899.1V924.8C709.3 927.8 706.8 930.2 703.7 930.2H694.8C691.7 930.2 689.2 932.6 689.2 935.6V945.1C689.2 948.1 686.7 950.5 683.6 950.5H589.1C586 950.5 583.5 948.1 583.5 945.1V728.1C583.5 725.1 586 722.7 589.1 722.7H683.6C686.7 722.7 689.2 725.1 689.2 728.1V735C689.2 738 691.7 740.4 694.8 740.4H703.7C706.8 740.4 709.3 742.8 709.3 745.8V771.5C709.3 774.5 706.8 776.9 703.7 776.9H694.8C691.7 776.8 689.2 779.2 689.2 782.1Z" fill="url(#paint13_linear_903_6731)"/>
<path d="M709.3 745.1V771.3C709.3 774.3 706.8 776.8 703.7 776.8H694.8C691.7 776.8 689.2 779.3 689.2 782.3V734.2C689.2 737.2 691.7 739.7 694.8 739.7H703.7C706.8 739.6 709.3 742.1 709.3 745.1Z" fill="url(#paint14_linear_903_6731)"/>
<path d="M709.3 822.4V848.6C709.3 851.6 706.8 854.1 703.7 854.1H694.8C691.7 854.1 689.2 856.6 689.2 859.6V811.5C689.2 814.5 691.7 817 694.8 817H703.7C706.8 817 709.3 819.4 709.3 822.4Z" fill="url(#paint15_linear_903_6731)"/>
<path d="M709.3 900.7V927C709.3 930 706.8 932.5 703.7 932.5H694.8C691.7 932.5 689.2 935 689.2 938V889.9C689.2 892.9 691.7 895.4 694.8 895.4H703.7C706.8 895.3 709.3 897.7 709.3 900.7Z" fill="url(#paint16_linear_903_6731)"/>
<path d="M587.5 707.2C587.5 707.2 597.8 716.2 602.8 717.5C607.8 718.8 616 718.5 616 722.7L604 722.8C604 722.8 604.4 724.8 606.4 726.3C608.4 727.8 613.1 730.9 615.2 731.5C617.3 732.2 617.7 734.3 617.1 734.9C617.1 734.9 619.1 737.1 618.9 738C618.7 738.8 617.7 740.5 615.9 740.2C615.9 740.2 616.7 743.8 614 744.2C611.3 744.6 610.6 744.2 610.6 744.2C610.6 744.2 609.5 747 602.5 745.6C595.5 744.3 589.6 737.4 585.1 732.4C580.6 727.4 574.6 721.4 574.6 721.4L587.5 707.2Z" fill="#C3604A"/>
<path d="M598.8 333.3C602.445 333.3 605.4 329.27 605.4 324.3C605.4 319.329 602.445 315.3 598.8 315.3C595.155 315.3 592.2 319.329 592.2 324.3C592.2 329.27 595.155 333.3 598.8 333.3Z" stroke="#77B0F2" stroke-width="3" stroke-miterlimit="10"/>
<path d="M899.8 327.7C903.445 327.7 906.4 323.671 906.4 318.7C906.4 313.729 903.445 309.7 899.8 309.7C896.155 309.7 893.2 313.729 893.2 318.7C893.2 323.671 896.155 327.7 899.8 327.7Z" stroke="#77B0F2" stroke-width="3" stroke-miterlimit="10"/>
<path d="M921 327.7C924.645 327.7 927.6 323.671 927.6 318.7C927.6 313.729 924.645 309.7 921 309.7C917.355 309.7 914.4 313.729 914.4 318.7C914.4 323.671 917.355 327.7 921 327.7Z" stroke="#77B0F2" stroke-width="3" stroke-miterlimit="10"/>
<path d="M941.3 327.7C944.945 327.7 947.9 323.671 947.9 318.7C947.9 313.729 944.945 309.7 941.3 309.7C937.655 309.7 934.7 313.729 934.7 318.7C934.7 323.671 937.655 327.7 941.3 327.7Z" stroke="#77B0F2" stroke-width="3" stroke-miterlimit="10"/>
<path d="M1001.6 327.7C1005.25 327.7 1008.2 323.671 1008.2 318.7C1008.2 313.729 1005.25 309.7 1001.6 309.7C997.955 309.7 995 313.729 995 318.7C995 323.671 997.955 327.7 1001.6 327.7Z" stroke="#77B0F2" stroke-width="3" stroke-miterlimit="10"/>
<path d="M1022.8 327.7C1026.45 327.7 1029.4 323.671 1029.4 318.7C1029.4 313.729 1026.45 309.7 1022.8 309.7C1019.16 309.7 1016.2 313.729 1016.2 318.7C1016.2 323.671 1019.16 327.7 1022.8 327.7Z" stroke="#77B0F2" stroke-width="3" stroke-miterlimit="10"/>
<path d="M1043.1 327.7C1046.75 327.7 1049.7 323.671 1049.7 318.7C1049.7 313.729 1046.75 309.7 1043.1 309.7C1039.45 309.7 1036.5 313.729 1036.5 318.7C1036.5 323.671 1039.45 327.7 1043.1 327.7Z" stroke="#77B0F2" stroke-width="3" stroke-miterlimit="10"/>
<path d="M1093.4 327.7C1097.05 327.7 1100 323.671 1100 318.7C1100 313.729 1097.05 309.7 1093.4 309.7C1089.76 309.7 1086.8 313.729 1086.8 318.7C1086.8 323.671 1089.76 327.7 1093.4 327.7Z" stroke="#77B0F2" stroke-width="3" stroke-miterlimit="10"/>
<path d="M1126.4 327.8C1130.05 327.8 1133 323.77 1133 318.8C1133 313.829 1130.05 309.8 1126.4 309.8C1122.76 309.8 1119.8 313.829 1119.8 318.8C1119.8 323.77 1122.76 327.8 1126.4 327.8Z" stroke="#77B0F2" stroke-width="3" stroke-miterlimit="10"/>
<path d="M652 333.3C655.645 333.3 658.6 329.27 658.6 324.3C658.6 319.329 655.645 315.3 652 315.3C648.355 315.3 645.4 319.329 645.4 324.3C645.4 329.27 648.355 333.3 652 333.3Z" stroke="#77B0F2" stroke-width="3" stroke-miterlimit="10"/>
<path d="M673.1 333.3C676.745 333.3 679.7 329.27 679.7 324.3C679.7 319.329 676.745 315.3 673.1 315.3C669.455 315.3 666.5 319.329 666.5 324.3C666.5 329.27 669.455 333.3 673.1 333.3Z" stroke="#77B0F2" stroke-width="3" stroke-miterlimit="10"/>
<path d="M719.4 333.3C723.045 333.3 726 329.27 726 324.3C726 319.329 723.045 315.3 719.4 315.3C715.755 315.3 712.8 319.329 712.8 324.3C712.8 329.27 715.755 333.3 719.4 333.3Z" stroke="#77B0F2" stroke-width="3" stroke-miterlimit="10"/>
<path d="M740.5 333.3C744.145 333.3 747.1 329.27 747.1 324.3C747.1 319.329 744.145 315.3 740.5 315.3C736.855 315.3 733.9 319.329 733.9 324.3C733.9 329.27 736.855 333.3 740.5 333.3Z" stroke="#77B0F2" stroke-width="3" stroke-miterlimit="10"/>
<path d="M580.6 315.9V332.9" stroke="#FA9746" stroke-width="3" stroke-miterlimit="10" stroke-linecap="round"/>
<path d="M614.1 396.8C617.745 396.8 620.7 392.77 620.7 387.8C620.7 382.829 617.745 378.8 614.1 378.8C610.455 378.8 607.5 382.829 607.5 387.8C607.5 392.77 610.455 396.8 614.1 396.8Z" stroke="#77B0F2" stroke-width="3" stroke-miterlimit="10"/>
<path d="M636.3 396.8C639.945 396.8 642.9 392.77 642.9 387.8C642.9 382.829 639.945 378.8 636.3 378.8C632.655 378.8 629.7 382.829 629.7 387.8C629.7 392.77 632.655 396.8 636.3 396.8Z" stroke="#77B0F2" stroke-width="3" stroke-miterlimit="10"/>
<path d="M660.4 396.8C664.045 396.8 667 392.77 667 387.8C667 382.829 664.045 378.8 660.4 378.8C656.755 378.8 653.8 382.829 653.8 387.8C653.8 392.77 656.755 396.8 660.4 396.8Z" stroke="#77B0F2" stroke-width="3" stroke-miterlimit="10"/>
<path d="M917 396.8C920.645 396.8 923.6 392.77 923.6 387.8C923.6 382.829 920.645 378.8 917 378.8C913.355 378.8 910.4 382.829 910.4 387.8C910.4 392.77 913.355 396.8 917 396.8Z" stroke="#77B0F2" stroke-width="3" stroke-miterlimit="10"/>
<path d="M939.1 396.8C942.745 396.8 945.7 392.77 945.7 387.8C945.7 382.829 942.745 378.8 939.1 378.8C935.455 378.8 932.5 382.829 932.5 387.8C932.5 392.77 935.455 396.8 939.1 396.8Z" stroke="#77B0F2" stroke-width="3" stroke-miterlimit="10"/>
<path d="M963.2 396.8C966.845 396.8 969.8 392.77 969.8 387.8C969.8 382.829 966.845 378.8 963.2 378.8C959.555 378.8 956.6 382.829 956.6 387.8C956.6 392.77 959.555 396.8 963.2 396.8Z" stroke="#77B0F2" stroke-width="3" stroke-miterlimit="10"/>
<path d="M1085 396.8C1088.65 396.8 1091.6 392.77 1091.6 387.8C1091.6 382.829 1088.65 378.8 1085 378.8C1081.36 378.8 1078.4 382.829 1078.4 387.8C1078.4 392.77 1081.36 396.8 1085 396.8Z" stroke="#77B0F2" stroke-width="3" stroke-miterlimit="10"/>
<path d="M1109.1 396.8C1112.75 396.8 1115.7 392.77 1115.7 387.8C1115.7 382.829 1112.75 378.8 1109.1 378.8C1105.45 378.8 1102.5 382.829 1102.5 387.8C1102.5 392.77 1105.45 396.8 1109.1 396.8Z" stroke="#77B0F2" stroke-width="3" stroke-miterlimit="10"/>
<path d="M595.9 379.4V396.3" stroke="#FA9746" stroke-width="3" stroke-miterlimit="10" stroke-linecap="round"/>
<path d="M655.5 586.7C659.145 586.7 662.1 582.671 662.1 577.7C662.1 572.729 659.145 568.7 655.5 568.7C651.855 568.7 648.9 572.729 648.9 577.7C648.9 582.671 651.855 586.7 655.5 586.7Z" stroke="#77B0F2" stroke-width="3" stroke-miterlimit="10"/>
<path d="M677.6 586.7C681.245 586.7 684.2 582.671 684.2 577.7C684.2 572.729 681.245 568.7 677.6 568.7C673.955 568.7 671 572.729 671 577.7C671 582.671 673.955 586.7 677.6 586.7Z" stroke="#77B0F2" stroke-width="3" stroke-miterlimit="10"/>
<path d="M637.2 569.3V586.2" stroke="#FA9746" stroke-width="3" stroke-miterlimit="10" stroke-linecap="round"/>
<path d="M665.9 641.1C669.545 641.1 672.5 637.07 672.5 632.1C672.5 627.129 669.545 623.1 665.9 623.1C662.255 623.1 659.3 627.129 659.3 632.1C659.3 637.07 662.255 641.1 665.9 641.1Z" stroke="#77B0F2" stroke-width="3" stroke-miterlimit="10"/>
<path d="M700.9 641.1C704.545 641.1 707.5 637.07 707.5 632.1C707.5 627.129 704.545 623.1 700.9 623.1C697.255 623.1 694.3 627.129 694.3 632.1C694.3 637.07 697.255 641.1 700.9 641.1Z" stroke="#77B0F2" stroke-width="3" stroke-miterlimit="10"/>
<path d="M733.2 725.8C736.845 725.8 739.8 721.77 739.8 716.8C739.8 711.829 736.845 707.8 733.2 707.8C729.555 707.8 726.6 711.829 726.6 716.8C726.6 721.77 729.555 725.8 733.2 725.8Z" stroke="#77B0F2" stroke-width="3" stroke-miterlimit="10"/>
<path d="M756 725.8C759.645 725.8 762.6 721.77 762.6 716.8C762.6 711.829 759.645 707.8 756 707.8C752.355 707.8 749.4 711.829 749.4 716.8C749.4 721.77 752.355 725.8 756 725.8Z" stroke="#77B0F2" stroke-width="3" stroke-miterlimit="10"/>
<path d="M778.8 725.8C782.445 725.8 785.4 721.77 785.4 716.8C785.4 711.829 782.445 707.8 778.8 707.8C775.155 707.8 772.2 711.829 772.2 716.8C772.2 721.77 775.155 725.8 778.8 725.8Z" stroke="#77B0F2" stroke-width="3" stroke-miterlimit="10"/>
<path d="M860.5 725.8C864.145 725.8 867.1 721.77 867.1 716.8C867.1 711.829 864.145 707.8 860.5 707.8C856.855 707.8 853.9 711.829 853.9 716.8C853.9 721.77 856.855 725.8 860.5 725.8Z" stroke="#77B0F2" stroke-width="3" stroke-miterlimit="10"/>
<path d="M892.2 725.8C895.845 725.8 898.8 721.77 898.8 716.8C898.8 711.829 895.845 707.8 892.2 707.8C888.555 707.8 885.6 711.829 885.6 716.8C885.6 721.77 888.555 725.8 892.2 725.8Z" stroke="#77B0F2" stroke-width="3" stroke-miterlimit="10"/>
<path d="M965 725.8C968.645 725.8 971.6 721.77 971.6 716.8C971.6 711.829 968.645 707.8 965 707.8C961.355 707.8 958.4 711.829 958.4 716.8C958.4 721.77 961.355 725.8 965 725.8Z" stroke="#77B0F2" stroke-width="3" stroke-miterlimit="10"/>
<path d="M988.5 725.8C992.145 725.8 995.1 721.77 995.1 716.8C995.1 711.829 992.145 707.8 988.5 707.8C984.855 707.8 981.9 711.829 981.9 716.8C981.9 721.77 984.855 725.8 988.5 725.8Z" stroke="#77B0F2" stroke-width="3" stroke-miterlimit="10"/>
<path d="M1035.3 725.8C1038.95 725.8 1041.9 721.77 1041.9 716.8C1041.9 711.829 1038.95 707.8 1035.3 707.8C1031.66 707.8 1028.7 711.829 1028.7 716.8C1028.7 721.77 1031.66 725.8 1035.3 725.8Z" stroke="#77B0F2" stroke-width="3" stroke-miterlimit="10"/>
<path d="M1129.8 725.8C1133.45 725.8 1136.4 721.77 1136.4 716.8C1136.4 711.829 1133.45 707.8 1129.8 707.8C1126.16 707.8 1123.2 711.829 1123.2 716.8C1123.2 721.77 1126.16 725.8 1129.8 725.8Z" stroke="#77B0F2" stroke-width="3" stroke-miterlimit="10"/>
<path d="M1165.4 725.8C1169.05 725.8 1172 721.77 1172 716.8C1172 711.829 1169.05 707.8 1165.4 707.8C1161.76 707.8 1158.8 711.829 1158.8 716.8C1158.8 721.77 1161.76 725.8 1165.4 725.8Z" stroke="#77B0F2" stroke-width="3" stroke-miterlimit="10"/>
<path d="M647.7 623.7V640.6" stroke="#FA9746" stroke-width="3" stroke-miterlimit="10" stroke-linecap="round"/>
<path d="M684.3 623.7V640.6" stroke="#FA9746" stroke-width="3" stroke-miterlimit="10" stroke-linecap="round"/>
<path d="M1021.6 379.4V396.3" stroke="#FA9746" stroke-width="3" stroke-miterlimit="10" stroke-linecap="round"/>
<path d="M1064.8 379.4V396.3" stroke="#FA9746" stroke-width="3" stroke-miterlimit="10" stroke-linecap="round"/>
<path d="M1128.1 379.4V396.3" stroke="#FA9746" stroke-width="3" stroke-miterlimit="10" stroke-linecap="round"/>
<path d="M628.9 450.4C632.545 450.4 635.5 446.37 635.5 441.4C635.5 436.429 632.545 432.4 628.9 432.4C625.255 432.4 622.3 436.429 622.3 441.4C622.3 446.37 625.255 450.4 628.9 450.4Z" stroke="#77B0F2" stroke-width="3" stroke-miterlimit="10"/>
<path d="M610.7 433V449.9" stroke="#FA9746" stroke-width="3" stroke-miterlimit="10" stroke-linecap="round"/>
<path d="M948.9 450.4C952.545 450.4 955.5 446.37 955.5 441.4C955.5 436.429 952.545 432.4 948.9 432.4C945.255 432.4 942.3 436.429 942.3 441.4C942.3 446.37 945.255 450.4 948.9 450.4Z" stroke="#77B0F2" stroke-width="3" stroke-miterlimit="10"/>
<path d="M971.6 450.4C975.245 450.4 978.2 446.37 978.2 441.4C978.2 436.429 975.245 432.4 971.6 432.4C967.955 432.4 965 436.429 965 441.4C965 446.37 967.955 450.4 971.6 450.4Z" stroke="#77B0F2" stroke-width="3" stroke-miterlimit="10"/>
<path d="M1010.2 450.4C1013.85 450.4 1016.8 446.37 1016.8 441.4C1016.8 436.429 1013.85 432.4 1010.2 432.4C1006.56 432.4 1003.6 436.429 1003.6 441.4C1003.6 446.37 1006.56 450.4 1010.2 450.4Z" stroke="#77B0F2" stroke-width="3" stroke-miterlimit="10"/>
<path d="M1032.9 450.5C1036.55 450.5 1039.5 446.471 1039.5 441.5C1039.5 436.529 1036.55 432.5 1032.9 432.5C1029.26 432.5 1026.3 436.529 1026.3 441.5C1026.3 446.471 1029.26 450.5 1032.9 450.5Z" stroke="#77B0F2" stroke-width="3" stroke-miterlimit="10"/>
<path d="M1056.3 450.4C1059.95 450.4 1062.9 446.37 1062.9 441.4C1062.9 436.429 1059.95 432.4 1056.3 432.4C1052.66 432.4 1049.7 436.429 1049.7 441.4C1049.7 446.37 1052.66 450.4 1056.3 450.4Z" stroke="#77B0F2" stroke-width="3" stroke-miterlimit="10"/>
<path d="M1079 450.5C1082.65 450.5 1085.6 446.471 1085.6 441.5C1085.6 436.529 1082.65 432.5 1079 432.5C1075.36 432.5 1072.4 436.529 1072.4 441.5C1072.4 446.471 1075.36 450.5 1079 450.5Z" stroke="#77B0F2" stroke-width="3" stroke-miterlimit="10"/>
<path d="M1103.5 450.4C1107.15 450.4 1110.1 446.37 1110.1 441.4C1110.1 436.429 1107.15 432.4 1103.5 432.4C1099.86 432.4 1096.9 436.429 1096.9 441.4C1096.9 446.37 1099.86 450.4 1103.5 450.4Z" stroke="#77B0F2" stroke-width="3" stroke-miterlimit="10"/>
<path d="M1126.2 450.5C1129.85 450.5 1132.8 446.471 1132.8 441.5C1132.8 436.529 1129.85 432.5 1126.2 432.5C1122.55 432.5 1119.6 436.529 1119.6 441.5C1119.6 446.471 1122.55 450.5 1126.2 450.5Z" stroke="#77B0F2" stroke-width="3" stroke-miterlimit="10"/>
<path d="M1182.4 450.5C1186.05 450.5 1189 446.471 1189 441.5C1189 436.529 1186.05 432.5 1182.4 432.5C1178.76 432.5 1175.8 436.529 1175.8 441.5C1175.8 446.471 1178.76 450.5 1182.4 450.5Z" stroke="#77B0F2" stroke-width="3" stroke-miterlimit="10"/>
<path d="M930.7 433V449.9" stroke="#FA9746" stroke-width="3" stroke-miterlimit="10" stroke-linecap="round"/>
<path d="M990.5 433V449.9" stroke="#FA9746" stroke-width="3" stroke-miterlimit="10" stroke-linecap="round"/>
<path d="M1148.5 433V449.9" stroke="#FA9746" stroke-width="3" stroke-miterlimit="10" stroke-linecap="round"/>
<path d="M1163.3 433V449.9" stroke="#FA9746" stroke-width="3" stroke-miterlimit="10" stroke-linecap="round"/>
<path d="M881.6 310.3V327.2" stroke="#FA9746" stroke-width="3" stroke-miterlimit="10" stroke-linecap="round"/>
<path d="M633.8 315.9V332.9" stroke="#FA9746" stroke-width="3" stroke-miterlimit="10" stroke-linecap="round"/>
<path d="M1062.3 310.3V327.2" stroke="#FA9746" stroke-width="3" stroke-miterlimit="10" stroke-linecap="round"/>
<path d="M1109.5 310.3V327.2" stroke="#FA9746" stroke-width="3" stroke-miterlimit="10" stroke-linecap="round"/>
<path d="M796.2 707.8V725.8" stroke="#FA9746" stroke-width="3" stroke-miterlimit="10" stroke-linecap="round"/>
<path d="M845.1 707.8V725.8" stroke="#FA9746" stroke-width="3" stroke-miterlimit="10" stroke-linecap="round"/>
<path d="M877.1 707.8V725.8" stroke="#FA9746" stroke-width="3" stroke-miterlimit="10" stroke-linecap="round"/>
<path d="M1008.2 707.8V725.8" stroke="#FA9746" stroke-width="3" stroke-miterlimit="10" stroke-linecap="round"/>
<path d="M1019.2 707.8V725.8" stroke="#FA9746" stroke-width="3" stroke-miterlimit="10" stroke-linecap="round"/>
<path d="M1148.5 707.8V725.8" stroke="#FA9746" stroke-width="3" stroke-miterlimit="10" stroke-linecap="round"/>
<path d="M1183.5 707.8V725.8" stroke="#FA9746" stroke-width="3" stroke-miterlimit="10" stroke-linecap="round"/>
<path d="M529.3 651.6C529.3 651.6 582 688.5 588.8 702C588.8 702 585.8 721 571.3 723.8C571.3 723.8 556.5 720 552.3 716C548.1 712 544.3 708 541.8 707.2C539.3 706.4 518.8 696.7 508.3 682.8L529.3 651.6Z" fill="#FA9746"/>
<path d="M473.2 618.2C473.2 618.2 479.5 642.4 487.3 653.7C495.1 665 506.4 680.4 508.3 682.8C510.2 685.2 520.1 697.3 530 701.1C539.8 704.9 543.8 708 545.3 709.4C546.9 710.8 554.1 720.4 571.3 723.7C571.3 723.7 586 719.7 588.8 701.9C588.8 701.9 579.7 689.9 565.3 678.6C550.9 667.3 529.1 653.6 526.9 645.5C524.7 637.3 521.4 600 514.2 592" stroke="#F5821F" stroke-width="2" stroke-miterlimit="10" stroke-linecap="round"/>
<path d="M472.3 674.7C472.3 674.7 490.7 678.5 505.6 679.4" stroke="#F5821F" stroke-width="2" stroke-miterlimit="10" stroke-linecap="round"/>
<path d="M480.4 676.2L478.8 686.9V687C478.1 686.8 477.5 686.6 476.9 686.5L478.5 675.9C478.6 675.3 479.1 675 479.6 675.1C480.1 675.1 480.5 675.6 480.4 676.2Z" fill="#F5821F"/>
<path d="M489.9 677.7L488.2 689.2C488.2 689.2 488.2 689.2 488.2 689.3C487.5 689.2 486.9 689 486.3 688.9L488 677.5C488.1 677 488.6 676.6 489.1 676.7C489.6 676.6 490 677.1 489.9 677.7Z" fill="#F5821F"/>
<path d="M498.9 678.8L497.7 690.9C497.7 690.9 497.7 690.9 497.7 691C497 690.9 496.4 690.8 495.7 690.7L496.9 678.7C496.9 678.2 497.4 677.8 498 677.8C498.6 677.7 499 678.2 498.9 678.8Z" fill="#F5821F"/>
<path d="M506.6 680.3L505.7 692C505 691.9 504.4 691.9 503.7 691.8L504.5 680.2C504.5 679.7 505 679.2 505.6 679.3C506.2 679.3 506.7 679.8 506.6 680.3Z" fill="#F5821F"/>
<path d="M1372.8 726.2C1372.8 726.2 1365.6 733.3 1358 732.2L1358.8 720.2L1372.8 726.2Z" fill="#1D2954"/>
<path d="M1314.8 966.7C1314.8 966.7 1264 978.2 1252.6 970.5C1252.6 970.5 1252.7 969.8 1253 968.7C1254 965.7 1257 959.3 1266.3 953.6C1279.1 945.9 1282.5 942.4 1282.5 942.4L1311.7 940.4C1311.7 940.4 1313.6 954 1314.4 962.4C1314.6 964.1 1314.7 965.6 1314.8 966.7Z" fill="#1D448A"/>
<path d="M1460.2 819.6C1460.1 819.6 1460 819.6 1459.9 819.7C1456.1 820.2 1450 820.3 1442.9 816.8C1435.1 812.9 1431.4 812.1 1429.8 812C1429.1 811.9 1428.5 811.6 1428.1 811L1413.9 789.5C1413.3 788.5 1413.5 787.2 1414.4 786.5C1417.5 784.1 1424.3 778.7 1427.8 775.9C1428 775.8 1428.1 775.6 1428.3 775.5C1429.3 774.7 1430.7 774.9 1431.4 775.9L1461.5 816C1462.6 817.4 1461.8 819.3 1460.2 819.6Z" fill="#1D448A"/>
<path d="M614.2 736.7C612.2 736.7 609.7 735.9 606.7 734.2C603.2 732.2 600.3 729.9 600.1 729.8C599.8 729.5 599.7 729.1 600 728.7C600.3 728.4 600.7 728.3 601.1 728.6C604.2 731.2 613.1 737.3 616.5 734.5C616.8 734.2 617.3 734.3 617.6 734.6C617.9 734.9 617.8 735.4 617.5 735.7C616.6 736.3 615.5 736.7 614.2 736.7Z" fill="#9A2B1E"/>
<path d="M1429.5 812.7C1429.5 812.7 1362.5 866 1337.5 850.9C1314.8 837.1 1316.9 763.8 1317.5 750.6C1317.5 749.9 1317.6 749.4 1317.6 749.1C1317.6 748.8 1317.6 748.6 1317.6 748.6C1317.6 748.6 1317.6 748.8 1317.5 749.2C1317.4 749.6 1317.3 750.1 1317.2 750.8C1315.4 761.9 1307.4 811.7 1307.2 830C1306.8 863 1314.2 941.8 1314.2 941.8C1314.2 941.8 1294.2 952.6 1277.5 943.6C1277.5 943.6 1261.8 852.3 1263.5 824.6C1264.3 811.4 1268 786.4 1271.6 763.9C1275.6 739.3 1279.5 717.6 1279.5 717.6L1317.6 718.8L1329.3 719.2L1362.7 720.3L1362.6 723.9L1360.7 806.1C1360.7 806.1 1398.6 788.2 1409 783.8C1409.1 783.7 1430 797.5 1429.5 812.7Z" fill="#F39745"/>
<path d="M615.8 741.1C615.7 741.1 615.7 741.1 615.8 741.1C604.7 739.8 600.3 734.9 600.1 734.7C599.8 734.4 599.9 733.9 600.2 733.6C600.5 733.3 601 733.4 601.3 733.7C601.4 733.8 605.6 738.4 616 739.6C616.4 739.6 616.7 740 616.7 740.4C616.5 740.9 616.1 741.1 615.8 741.1Z" fill="#9A2B1E"/>
<path d="M610.4 745.1C610.3 745.1 610.3 745.1 610.2 745.1C599.6 742.4 597 739.1 596.9 739C596.7 738.7 596.7 738.2 597.1 738C597.4 737.8 597.9 737.8 598.1 738.2C598.1 738.3 600.6 741.2 610.5 743.8C610.9 743.9 611.1 744.3 611 744.7C611.1 744.9 610.8 745.1 610.4 745.1Z" fill="#9A2B1E"/>
<path d="M571.3 597.7C571.3 597.7 574.4 666.6 569.5 678.1L569.6 681.3" stroke="#F5821F" stroke-width="2" stroke-miterlimit="10" stroke-linecap="round"/>
<path d="M1386.9 684.6C1386.9 684.6 1385 691.3 1370.2 702.5C1370.2 702.5 1373.4 720.5 1372.7 726.3C1372.7 726.3 1368.7 725 1362.6 723.9C1354.2 722.3 1341.9 721 1330.9 723.6C1328.2 724.3 1325.6 725.1 1323.1 726.3L1317.6 718.8L1262.1 643.9L1250.7 628.5C1250.7 628.5 1276.6 594.9 1317.1 592.4L1338.1 592.3C1338.1 592.3 1366.6 601.3 1371.3 606.6C1375.9 611.9 1395.3 669.6 1386.9 684.6Z" fill="#1D448A"/>
<path opacity="0.09" d="M1317.6 749.1C1317.6 748.8 1317.6 748.6 1317.6 748.6C1317.6 748.6 1317.6 748.8 1317.6 749.1C1317.5 749.5 1317.4 750.1 1317.3 750.8L1286 769.5L1271.7 763.8C1275.7 739.2 1279.6 717.5 1279.6 717.5L1317.7 718.7L1262.2 643.8L1261.3 629.2L1301.2 640.3L1329.4 719.1L1331 723.5L1336.6 739.2L1317.6 750.6C1317.6 750 1317.6 749.4 1317.6 749.1Z" fill="black"/>
<path d="M1289.1 622.7C1289.1 622.7 1283.3 633.7 1282.8 640.4" stroke="#052569" stroke-width="2" stroke-miterlimit="10" stroke-linecap="round" stroke-linejoin="round"/>
<path d="M1294.4 641.8L1291.6 637.9C1291.4 637.7 1291.1 637.5 1290.7 637.4L1248.7 629.3C1248.3 629.2 1247.9 629.3 1247.5 629.4L1211.3 646.4C1209.3 647.4 1208.2 649.6 1208.7 651.8L1208.9 652.4L1212.4 649.3L1253.8 660.8C1254.3 660.9 1254.8 660.9 1255.3 660.6L1288.6 640.6L1288.5 640.9L1294.4 641.8Z" fill="url(#paint17_linear_903_6731)"/>
<path d="M1280.8 759.4L1233.5 751.2L1207.8 648.2L1254.5 658.1L1280.8 759.4Z" fill="url(#paint18_linear_903_6731)"/>
<path d="M1280.8 759.4L1322.5 738.2L1293.3 638L1254.5 658.1L1280.8 759.4Z" fill="url(#paint19_linear_903_6731)"/>
<path d="M1272.9 683.1C1272.7 683.1 1272.6 683.1 1272.4 683C1271.3 682.7 1270.7 681.7 1270.9 680.6L1275.6 661.6C1275.8 660.9 1276.4 660.3 1277.1 660.1C1277.8 659.9 1278.6 660.2 1279.1 660.8L1290.6 674.6C1291.3 675.4 1291.2 676.7 1290.3 677.4C1289.5 678.1 1288.2 678 1287.5 677.1L1278.5 666.3L1274.8 681.4C1274.7 682.5 1273.8 683.1 1272.9 683.1Z" fill="#B0DBF7"/>
<path d="M1291.9 694.4C1291.8 694.4 1291.7 694.4 1291.6 694.4L1269.4 690.9C1268.3 690.7 1267.6 689.7 1267.7 688.6C1267.9 687.5 1268.9 686.8 1270 686.9L1292.2 690.4C1293.3 690.6 1294 691.6 1293.9 692.7C1293.8 693.7 1292.9 694.4 1291.9 694.4Z" fill="#B0DBF7"/>
<path d="M1287.1 719.6C1286.5 719.6 1285.8 719.3 1285.5 718.7L1274.7 703.2C1274.1 702.3 1274.3 701 1275.2 700.4C1276.1 699.8 1277.4 700 1278 700.9L1286.3 712.7L1288.9 701.5C1289.2 700.4 1290.2 699.8 1291.3 700C1292.4 700.3 1293 701.3 1292.8 702.4L1289 718C1288.8 718.8 1288.2 719.4 1287.4 719.5C1287.4 719.6 1287.2 719.6 1287.1 719.6Z" fill="#B0DBF7"/>
<path d="M1245.7 678.5C1243.5 672.2 1238.6 667.8 1234.6 668.3L1229.7 669L1236.8 693L1242.3 692.2C1246.5 691.2 1248 685.1 1245.7 678.5Z" fill="url(#paint20_linear_903_6731)"/>
<path d="M1240.7 679.3C1243 685.9 1241.5 692 1237.3 692.9C1233.1 693.9 1227.9 689.3 1225.6 682.7C1223.3 676.1 1224.8 670 1229 669.1C1233.2 668.1 1238.4 672.7 1240.7 679.3Z" fill="url(#paint21_linear_903_6731)"/>
<path d="M1256.8 725.5C1254.6 719.2 1249.7 714.8 1245.7 715.3L1240.8 716L1247.9 740L1253.4 739.2C1257.6 738.1 1259.1 732 1256.8 725.5Z" fill="url(#paint22_linear_903_6731)"/>
<path d="M1251.8 726.2C1254.1 732.8 1252.6 738.9 1248.4 739.8C1244.2 740.8 1239 736.2 1236.7 729.6C1234.4 723 1235.9 716.9 1240.1 716C1244.3 715.1 1249.5 719.6 1251.8 726.2Z" fill="url(#paint23_linear_903_6731)"/>
<path d="M1217.8 688.2C1215.9 687.9 1214.7 689 1214.7 690.7C1214.7 692.4 1218.6 694.4 1218.6 694.4C1218.6 694.4 1216.7 693.7 1216.1 696.2C1215.5 698.7 1218.9 699.4 1218.9 699.4C1218.9 699.4 1217.3 702.7 1220.6 704.6C1220.6 704.6 1219.4 708.7 1222.1 709.6C1224.9 710.5 1226.4 707.5 1225.3 706.4C1224 705.1 1223.2 705.2 1223.2 705.2C1223.2 705.2 1225.3 705.1 1225.5 703.4C1225.6 701.7 1223.9 700.9 1223.9 700.9C1223.9 700.9 1226 701.2 1226.4 700.1C1226.8 699 1225 696.4 1224.4 695.9C1223.8 695.4 1226.8 694.7 1225.6 692.8C1224.4 690.9 1220.5 688.7 1217.8 688.2Z" fill="#F4AB9B"/>
<path d="M1282.8 707.5C1278.5 708.2 1279.7 722.5 1279.7 722.5C1279.7 722.5 1280.6 738.4 1287.6 737C1294.6 735.6 1286.6 706.9 1282.8 707.5Z" fill="#1D2954"/>
<path d="M1343.9 648.2L1342 674C1342 674 1300 701.8 1282.8 707.5C1282.8 707.5 1290.3 724 1287.6 737C1287.6 737 1301.9 739.7 1336.4 722.6C1370.9 705.5 1370.4 702.5 1370.4 702.5L1343.9 648.2Z" fill="#1D448A"/>
<path d="M1283.5 709.3C1283.5 709.3 1277.7 709.4 1276.3 708.5C1274.9 707.6 1262.7 698.7 1260.9 700.3C1259.1 701.9 1269.5 710.6 1268.8 711.3C1268.1 712 1256.2 713.4 1253.1 712.3C1250 711.2 1245.7 714.5 1249.6 717.9C1249.6 717.9 1249.1 719.4 1249.4 721.3C1249.7 723.2 1254.5 724.8 1254.5 724.8C1254.5 724.8 1253.4 729 1261.1 730.4C1261.1 730.4 1260.6 735 1265.7 735.4C1270.8 735.8 1277.7 733 1280.7 732.4C1283.7 731.8 1288 732.1 1288 732.1C1288 732.1 1290.9 717.8 1283.5 709.3Z" fill="#F4AB9B"/>
<path d="M1249.4 718.8C1249.4 718.8 1261.7 722.3 1273.2 718.2" stroke="#DE846F" stroke-width="1.5" stroke-miterlimit="10" stroke-linecap="round" stroke-linejoin="round"/>
<path d="M1254.5 724.7C1254.5 724.7 1264.7 727.2 1273.1 722.9" stroke="#DE846F" stroke-width="1.5" stroke-miterlimit="10" stroke-linecap="round" stroke-linejoin="round"/>
<path d="M1261.1 730.4C1261.1 730.4 1268.7 731.9 1275.3 727.6" stroke="#DE846F" stroke-width="1.5" stroke-miterlimit="10" stroke-linecap="round" stroke-linejoin="round"/>
<path d="M595 818.4C595 817.3 595.3 816.3 595.9 815.3C597.6 812.6 601.2 811.8 603.9 813.5L671.8 856.2C674.5 857.9 675.3 861.5 673.6 864.2C671.9 866.9 668.3 867.7 665.6 866L597.7 823.3C596 822.2 595 820.3 595 818.4Z" fill="#E6F3FC"/>
<path d="M624.5 905.3C624.6 905.3 624.7 905.4 624.7 905.4C624.8 905.4 624.9 905.5 625 905.5C625.1 905.5 625.1 905.5 625.2 905.6C625.3 905.6 625.4 905.7 625.5 905.7C625.6 905.7 625.6 905.7 625.7 905.7C625.8 905.7 625.9 905.7 626 905.7C626.1 905.7 626.1 905.7 626.2 905.7C626.3 905.7 626.4 905.7 626.5 905.7C626.6 905.7 626.7 905.7 626.7 905.7C626.8 905.7 626.9 905.7 626.9 905.7C627 905.7 627.1 905.7 627.2 905.7C627.3 905.7 627.3 905.7 627.4 905.7C627.5 905.7 627.6 905.7 627.7 905.7C627.8 905.7 627.8 905.7 627.9 905.7C628 905.7 628.1 905.7 628.2 905.6C628.3 905.6 628.3 905.6 628.4 905.5C628.5 905.5 628.6 905.4 628.7 905.4C628.8 905.4 628.9 905.3 628.9 905.3C629 905.3 629 905.2 629.1 905.2C629.2 905.1 629.3 905.1 629.4 905C629.4 905 629.5 905 629.5 904.9C629.6 904.8 629.7 904.8 629.8 904.7L629.9 904.6C630 904.5 630.1 904.5 630.1 904.4C630.2 904.4 630.2 904.3 630.3 904.3C630.3 904.3 630.4 904.2 630.4 904.1C630.5 904 630.5 903.9 630.6 903.9L630.7 903.8C630.8 903.7 630.9 903.6 630.9 903.5L649.5 874.9C651 872.5 650.4 869.3 648 867.8C645.6 866.3 642.4 866.9 640.9 869.3L626.6 891.2L612.3 869.3C610.8 866.9 607.6 866.2 605.2 867.8C603.7 868.8 602.9 870.4 602.9 872.1C602.9 873.1 603.2 874 603.7 874.9L622.3 903.5C622.3 903.5 622.3 903.5 622.4 903.6C622.4 903.7 622.5 903.7 622.5 903.8C622.6 903.9 622.6 904 622.7 904.1C622.7 904.2 622.8 904.2 622.8 904.3C622.9 904.4 623 904.5 623.1 904.6C623.1 904.6 623.2 904.6 623.2 904.7C623.4 904.8 623.5 905 623.7 905.1C623.7 905.1 623.8 905.1 623.8 905.2C623.9 905.3 624 905.3 624.1 905.4C624.4 905.3 624.5 905.3 624.5 905.3Z" fill="#E6F3FC"/>
<path d="M656.7 777.7C656.6 777.7 656.5 777.6 656.5 777.6C656.4 777.6 656.3 777.5 656.2 777.5C656.1 777.5 656.1 777.5 656 777.4C655.9 777.4 655.8 777.3 655.7 777.3C655.6 777.3 655.6 777.3 655.5 777.3C655.4 777.3 655.3 777.3 655.2 777.3C655.1 777.3 655.1 777.3 655 777.3C654.9 777.3 654.8 777.3 654.7 777.3C654.6 777.3 654.5 777.3 654.5 777.3C654.4 777.3 654.3 777.3 654.3 777.3C654.2 777.3 654.1 777.3 654 777.3C653.9 777.3 653.9 777.3 653.8 777.3C653.7 777.3 653.6 777.3 653.5 777.3C653.4 777.3 653.4 777.3 653.3 777.3C653.2 777.3 653.1 777.3 653 777.4C652.9 777.4 652.9 777.4 652.8 777.5C652.7 777.5 652.6 777.6 652.5 777.6C652.4 777.6 652.3 777.7 652.3 777.7C652.2 777.7 652.2 777.8 652.1 777.8C652 777.9 651.9 777.9 651.8 778C651.8 778 651.7 778 651.7 778.1C651.6 778.2 651.5 778.2 651.4 778.3L651.3 778.4C651.2 778.5 651.1 778.5 651.1 778.6C651 778.6 651 778.7 650.9 778.7C650.9 778.7 650.8 778.8 650.8 778.9C650.7 779 650.7 779.1 650.6 779.1L650.5 779.2C650.4 779.3 650.4 779.4 650.3 779.5L631.9 807.8C630.4 810.2 631 813.3 633.4 814.8C635.8 816.3 638.9 815.7 640.4 813.3L654.5 791.6L668.6 813.3C670.1 815.7 673.3 816.3 675.6 814.8C677.1 813.8 677.9 812.2 677.9 810.5C677.9 809.5 677.6 808.6 677.1 807.7L658.7 779.4C658.7 779.4 658.7 779.4 658.6 779.3C658.6 779.2 658.5 779.2 658.5 779.1C658.4 779 658.4 778.9 658.3 778.8C658.3 778.7 658.2 778.7 658.2 778.6C658.1 778.5 658 778.4 657.9 778.3C657.9 778.3 657.8 778.3 657.8 778.2C657.6 778.1 657.5 777.9 657.3 777.8C657.3 777.8 657.2 777.8 657.2 777.7C657.1 777.6 657 777.6 656.9 777.5C656.8 777.7 656.8 777.7 656.7 777.7Z" fill="#E6F3FC"/>
<path d="M1342.3 638L1342.1 672.1C1342 673.3 1341.4 674.3 1340.4 675C1332.6 680.1 1298 702.4 1282.7 707.5C1282.7 707.5 1291.9 721.4 1287.5 737C1287.5 737 1301.8 739.7 1336.3 722.6C1370.8 705.5 1388.8 689.6 1388.7 678.3" stroke="#052569" stroke-width="2" stroke-miterlimit="10" stroke-linecap="round" stroke-linejoin="round"/>
<path d="M1349.3 671.6C1349.3 671.6 1343.6 673 1342.1 674C1342.1 674 1350.2 677.2 1351.2 681.8" stroke="#052569" stroke-width="2" stroke-miterlimit="10" stroke-linecap="round" stroke-linejoin="round"/>
<path d="M1338.1 592.3C1331.4 600.9 1318.2 597.9 1317.1 596C1316 594.1 1317.1 592.4 1317.1 592.4L1317.4 590.6L1318.4 583.7C1318.4 583.7 1327.3 578.4 1332.4 575.9C1334.2 575 1335.5 574.4 1335.8 574.5C1336.9 574.9 1337.7 579.7 1337.3 583.3C1336.9 587 1338.1 592.3 1338.1 592.3Z" fill="#F4AB9B"/>
<path d="M1332.4 575.9C1332 587.6 1317.9 590.5 1317.4 590.6L1318.4 583.7C1318.4 583.8 1327.3 578.5 1332.4 575.9Z" fill="#DE846F"/>
<path d="M1327.9 530.5C1327.9 530.6 1327.8 530.6 1327.7 530.6C1320.8 533.8 1317.3 541.2 1317.3 541.3C1317.2 541.5 1316.9 541.7 1316.7 541.7C1316.6 541.7 1316.4 541.7 1316.3 541.6C1315.9 541.4 1315.8 541 1315.9 540.6C1316 540.3 1319.2 533.7 1325.5 530.1C1326.6 530.2 1327.4 530.3 1327.9 530.5Z" fill="#131B38"/>
<path d="M1305.3 545.6C1305.3 545.6 1293.4 570.5 1304.5 581.7C1315.5 592.9 1335.8 574.6 1335.8 574.6C1335.8 574.6 1334.5 573.2 1335.2 572.6C1335.9 571.9 1340.5 572.3 1342 566.6C1343.4 560.9 1340.5 560 1339.2 559.4C1337.9 558.8 1334.1 559.3 1331.5 561.1C1331.5 561.1 1330.7 560.6 1329.9 557.9C1329.1 555.2 1327.4 554.3 1326.1 553.3C1324.7 552.3 1322.5 552.2 1321.7 550.3C1320.9 548.4 1320.4 541.2 1317 540.6C1313.6 540.1 1312.3 542 1311.8 543C1311.1 543.8 1308.6 545.9 1305.3 545.6Z" fill="#F4AB9B"/>
<path d="M1332.4 566C1332.4 566 1335.7 561.8 1338.8 561.9" stroke="#DE846F" stroke-width="1.5" stroke-miterlimit="10" stroke-linecap="round" stroke-linejoin="round"/>
<path d="M1335.6 563.4C1335.6 563.4 1337.6 564.2 1337.6 566.2" stroke="#DE846F" stroke-width="1.5" stroke-miterlimit="10" stroke-linecap="round" stroke-linejoin="round"/>
<path d="M1308.8 557L1307.2 564C1307.2 564 1304.7 564.5 1304.1 565.3C1303.5 566.1 1305.7 567.8 1306.5 568" stroke="#DE846F" stroke-width="1.5" stroke-miterlimit="10" stroke-linecap="round" stroke-linejoin="round"/>
<path d="M1316.22 560.391C1316.52 559.043 1316.02 557.786 1315.1 557.582C1314.19 557.378 1313.2 558.306 1312.9 559.653C1312.6 561.001 1313.1 562.259 1314.02 562.463C1314.94 562.667 1315.92 561.739 1316.22 560.391Z" fill="#1D2954"/>
<path d="M1306.02 557.297C1306.32 555.949 1305.82 554.691 1304.91 554.488C1303.99 554.284 1303 555.211 1302.7 556.559C1302.4 557.907 1302.9 559.165 1303.82 559.369C1304.74 559.572 1305.72 558.645 1306.02 557.297Z" fill="#1D2954"/>
<path d="M1319.3 555.6C1319 556.5 1317.9 556 1316.4 555.4C1314.9 554.9 1313.7 554.5 1314 553.6C1314.3 552.7 1316 552.2 1317.5 552.7C1318.9 553.3 1319.6 554.7 1319.3 555.6Z" fill="#1D2954"/>
<path d="M1308.3 551.7C1308.2 552.7 1307 552.5 1305.5 552.3C1303.9 552.2 1302.6 552.2 1302.7 551.2C1302.8 550.2 1304.2 549.3 1305.8 549.4C1307.3 549.5 1308.4 550.7 1308.3 551.7Z" fill="#1D2954"/>
<path d="M1305.5 572.2C1305.5 572.2 1312.6 573.7 1317.4 567.9" stroke="#DE846F" stroke-width="1.5" stroke-miterlimit="10" stroke-linecap="round" stroke-linejoin="round"/>
<path d="M1316.7 593.4C1316.7 593.4 1314.9 597.1 1322.3 598.1C1329.7 599.1 1334.6 596.3 1338.1 592.3" stroke="#052569" stroke-width="2" stroke-miterlimit="10" stroke-linecap="round" stroke-linejoin="round"/>
<path d="M1314.8 966.7C1314.8 966.7 1264 978.2 1252.6 970.5C1252.6 970.5 1252.7 969.8 1253 968.7C1256.1 969.8 1263.7 971.7 1276.8 969.5C1291.3 967.1 1308.4 963.7 1314.5 962.5C1314.6 964.1 1314.7 965.6 1314.8 966.7Z" fill="#052569"/>
<path d="M1265.5 953.1C1265.5 953.1 1271.4 950.5 1276.3 956.8" stroke="#F39745" stroke-width="2" stroke-miterlimit="10" stroke-linecap="round"/>
<path d="M1270.9 949C1270.9 949 1276.8 946.4 1281.7 952.7" stroke="#F39745" stroke-width="2" stroke-miterlimit="10" stroke-linecap="round"/>
<path d="M1460.2 819.6C1460.1 819.6 1460 819.6 1459.9 819.7L1427.9 776C1428.1 775.9 1428.2 775.7 1428.4 775.6C1429.4 774.8 1430.8 775 1431.5 776L1461.6 816.1C1462.6 817.4 1461.8 819.3 1460.2 819.6Z" fill="#052569"/>
<path d="M1437.8 809.7C1437.8 809.7 1437.8 812.2 1436 813.6" stroke="#F39745" stroke-width="2" stroke-miterlimit="10" stroke-linecap="round"/>
<path d="M1443 810.6C1443 810.6 1442.9 814.7 1440.9 815.7" stroke="#F39745" stroke-width="2" stroke-miterlimit="10" stroke-linecap="round"/>
<path d="M1182.9 627.9H997.7C996.9 627.9 996.2 627.2 996.2 626.4C996.2 625.6 996.9 624.9 997.7 624.9H1182.8C1183.6 624.9 1184.3 625.6 1184.3 626.4C1184.3 627.2 1183.7 627.9 1182.9 627.9Z" fill="#E6F3FC"/>
<path d="M1059.9 627.9V699" stroke="#E6F3FC" stroke-width="4" stroke-miterlimit="10" stroke-linecap="round"/>
<path d="M934.8 627.9V699" stroke="#E6F3FC" stroke-width="4" stroke-miterlimit="10" stroke-linecap="round"/>
<path d="M975 627.9H946.2C947 627.8 947.6 627.1 947.6 626.3V618.1C947.6 617.2 948.3 616.4 949.2 616.4H972C972.9 616.4 973.6 617.1 973.6 618.1V626.3C973.6 627.1 974.2 627.8 975 627.9Z" fill="url(#paint24_linear_903_6731)"/>
<path opacity="0.6" fill-rule="evenodd" clip-rule="evenodd" d="M1461.45 371.756C1439.57 371.756 1421.84 354.023 1421.84 332.147C1421.84 310.271 1439.57 292.538 1461.45 292.538C1483.32 292.538 1501.05 310.271 1501.05 332.147C1501.05 354.023 1483.32 371.756 1461.45 371.756ZM1580.32 350.065V314.229L1552.08 307.053C1550.01 299.554 1547.03 292.432 1543.27 285.811L1558.17 260.76L1532.83 235.421L1507.78 250.321C1501.16 246.563 1494.04 243.587 1486.54 241.516L1479.36 213.273H1443.53L1436.35 241.516C1428.85 243.587 1421.73 246.563 1415.11 250.321L1390.06 235.421L1364.72 260.76L1379.62 285.811C1375.86 292.432 1372.88 299.555 1370.81 307.053L1342.57 314.229V350.065L1370.81 357.24C1372.88 364.739 1375.86 371.861 1379.62 378.483L1364.72 403.534L1390.06 428.871L1415.11 413.974C1421.73 417.729 1428.85 420.708 1436.35 422.777L1443.53 451.02H1479.36L1486.54 422.777C1494.04 420.708 1501.16 417.729 1507.78 413.974L1532.83 428.871L1558.17 403.534L1543.27 378.483C1547.03 371.861 1550.01 364.739 1552.08 357.24L1580.32 350.065Z" fill="#ADC6FF"/>
<path fill-rule="evenodd" clip-rule="evenodd" d="M1246.22 186.423C1239.13 172.508 1244.66 155.479 1258.58 148.389C1272.5 141.298 1289.52 146.831 1296.61 160.747C1303.7 174.662 1298.17 191.691 1284.25 198.781C1270.34 205.872 1253.31 200.339 1246.22 186.423ZM1298.55 255.011L1321.35 243.396L1316.76 223.104C1320.85 219.356 1324.42 215.155 1327.42 210.618L1348.18 211.976L1356.08 187.645L1338.49 176.538C1338.73 171.108 1338.32 165.613 1337.21 160.172L1352.84 146.453L1341.23 123.658L1320.94 128.246C1317.19 124.148 1312.99 120.582 1308.45 117.588L1309.81 96.8229L1285.48 88.9171L1274.37 106.515C1268.94 106.271 1263.44 106.686 1258 107.799L1244.28 92.1589L1221.49 103.774L1226.08 124.066C1221.98 127.814 1218.42 132.015 1215.42 136.551L1194.65 135.193L1186.75 159.525L1204.35 170.631C1204.1 176.061 1204.52 181.556 1205.63 186.998L1189.99 200.717L1201.61 223.512L1221.9 218.924C1225.65 223.022 1229.85 226.587 1234.38 229.582L1233.03 250.347L1257.36 258.253L1268.46 240.655C1273.89 240.899 1279.39 240.484 1284.83 239.371L1298.55 255.011Z" fill="#F39745" fill-opacity="0.6"/>
<defs>
<linearGradient id="paint0_linear_903_6731" x1="828.124" y1="239.563" x2="828.124" y2="129.564" gradientUnits="userSpaceOnUse">
<stop offset="0.3333" stop-color="#F39745"/>
<stop offset="0.4951" stop-color="#F69E50"/>
<stop offset="0.8455" stop-color="#FCAC65"/>
</linearGradient>
<linearGradient id="paint1_linear_903_6731" x1="782.884" y1="143.063" x2="782.884" y2="132.103" gradientUnits="userSpaceOnUse">
<stop offset="0.3333" stop-color="#F39745"/>
<stop offset="0.4951" stop-color="#F69E50"/>
<stop offset="0.8455" stop-color="#FCAC65"/>
</linearGradient>
<linearGradient id="paint2_linear_903_6731" x1="827.724" y1="143.397" x2="827.724" y2="131.634" gradientUnits="userSpaceOnUse">
<stop offset="0.3333" stop-color="#F39745"/>
<stop offset="0.4951" stop-color="#F69E50"/>
<stop offset="0.8455" stop-color="#FCAC65"/>
</linearGradient>
<linearGradient id="paint3_linear_903_6731" x1="874.314" y1="142.73" x2="874.314" y2="130.729" gradientUnits="userSpaceOnUse">
<stop offset="0.3333" stop-color="#F39745"/>
<stop offset="0.4951" stop-color="#F69E50"/>
<stop offset="0.8455" stop-color="#FCAC65"/>
</linearGradient>
<linearGradient id="paint4_linear_903_6731" x1="871.414" y1="687.23" x2="871.414" y2="626.472" gradientUnits="userSpaceOnUse">
<stop offset="0.3228" stop-color="#A1CAFA"/>
<stop offset="0.6811" stop-color="#B4D4FA"/>
</linearGradient>
<linearGradient id="paint5_linear_903_6731" x1="833.874" y1="627.9" x2="833.874" y2="611.776" gradientUnits="userSpaceOnUse">
<stop offset="0.3228" stop-color="#A1CAFA"/>
<stop offset="0.6811" stop-color="#B4D4FA"/>
</linearGradient>
<linearGradient id="paint6_linear_903_6731" x1="907.464" y1="627.9" x2="907.464" y2="611.776" gradientUnits="userSpaceOnUse">
<stop offset="0.3228" stop-color="#A1CAFA"/>
<stop offset="0.6811" stop-color="#B4D4FA"/>
</linearGradient>
<linearGradient id="paint7_linear_903_6731" x1="998.124" y1="690.73" x2="998.124" y2="623.482" gradientUnits="userSpaceOnUse">
<stop offset="0.3228" stop-color="#77B0F2"/>
<stop offset="0.45" stop-color="#7FB5F3"/>
<stop offset="0.8703" stop-color="#97C4F7"/>
</linearGradient>
<linearGradient id="paint8_linear_903_6731" x1="1119.21" y1="692.564" x2="1119.21" y2="621.227" gradientUnits="userSpaceOnUse">
<stop offset="0.3228" stop-color="#A1CAFA"/>
<stop offset="0.6811" stop-color="#B4D4FA"/>
</linearGradient>
<linearGradient id="paint9_linear_903_6731" x1="1089.27" y1="627.23" x2="1089.27" y2="501.167" gradientUnits="userSpaceOnUse">
<stop offset="0.3228" stop-color="#77B0F2"/>
<stop offset="0.45" stop-color="#7FB5F3"/>
<stop offset="0.8703" stop-color="#97C4F7"/>
</linearGradient>
<linearGradient id="paint10_linear_903_6731" x1="1028.59" y1="525.23" x2="1028.59" y2="508.227" gradientUnits="userSpaceOnUse">
<stop offset="0.3228" stop-color="#77B0F2"/>
<stop offset="0.45" stop-color="#7FB5F3"/>
<stop offset="0.8703" stop-color="#97C4F7"/>
</linearGradient>
<linearGradient id="paint11_linear_903_6731" x1="1088.74" y1="525.23" x2="1088.74" y2="508.227" gradientUnits="userSpaceOnUse">
<stop offset="0.3228" stop-color="#77B0F2"/>
<stop offset="0.45" stop-color="#7FB5F3"/>
<stop offset="0.8703" stop-color="#97C4F7"/>
</linearGradient>
<linearGradient id="paint12_linear_903_6731" x1="1151.23" y1="525.23" x2="1151.23" y2="508.227" gradientUnits="userSpaceOnUse">
<stop offset="0.3228" stop-color="#77B0F2"/>
<stop offset="0.45" stop-color="#7FB5F3"/>
<stop offset="0.8703" stop-color="#97C4F7"/>
</linearGradient>
<linearGradient id="paint13_linear_903_6731" x1="646.399" y1="1008.9" x2="646.399" y2="699.739" gradientUnits="userSpaceOnUse">
<stop offset="0.3228" stop-color="#77B0F2"/>
<stop offset="0.45" stop-color="#7FB5F3"/>
<stop offset="0.8703" stop-color="#97C4F7"/>
</linearGradient>
<linearGradient id="paint14_linear_903_6731" x1="699.259" y1="782.285" x2="699.259" y2="734.165" gradientUnits="userSpaceOnUse">
<stop offset="0.3228" stop-color="#77B0F2"/>
<stop offset="0.45" stop-color="#7FB5F3"/>
<stop offset="0.8703" stop-color="#97C4F7"/>
</linearGradient>
<linearGradient id="paint15_linear_903_6731" x1="699.259" y1="859.615" x2="699.259" y2="811.495" gradientUnits="userSpaceOnUse">
<stop offset="0.3228" stop-color="#77B0F2"/>
<stop offset="0.45" stop-color="#7FB5F3"/>
<stop offset="0.8703" stop-color="#97C4F7"/>
</linearGradient>
<linearGradient id="paint16_linear_903_6731" x1="699.259" y1="937.905" x2="699.259" y2="889.785" gradientUnits="userSpaceOnUse">
<stop offset="0.3228" stop-color="#77B0F2"/>
<stop offset="0.45" stop-color="#7FB5F3"/>
<stop offset="0.8703" stop-color="#97C4F7"/>
</linearGradient>
<linearGradient id="paint17_linear_903_6731" x1="1297.64" y1="638.405" x2="1173.01" y2="656.782" gradientUnits="userSpaceOnUse">
<stop offset="0.2631" stop-color="#71A7E6"/>
<stop offset="0.3954" stop-color="#7FB2EC"/>
<stop offset="0.6502" stop-color="#97C4F7"/>
</linearGradient>
<linearGradient id="paint18_linear_903_6731" x1="1257" y1="757.247" x2="1231.5" y2="650.247" gradientUnits="userSpaceOnUse">
<stop offset="0.3228" stop-color="#A1CAFA"/>
<stop offset="0.6811" stop-color="#B4D4FA"/>
</linearGradient>
<linearGradient id="paint19_linear_903_6731" x1="1310.43" y1="686.793" x2="1268.43" y2="708.543" gradientUnits="userSpaceOnUse">
<stop offset="0.3228" stop-color="#77B0F2"/>
<stop offset="0.45" stop-color="#7FB5F3"/>
<stop offset="0.8703" stop-color="#97C4F7"/>
</linearGradient>
<linearGradient id="paint20_linear_903_6731" x1="1255.3" y1="675.592" x2="1204.05" y2="688.842" gradientUnits="userSpaceOnUse">
<stop offset="0.2631" stop-color="#71A7E6"/>
<stop offset="0.3954" stop-color="#7FB2EC"/>
<stop offset="0.6502" stop-color="#97C4F7"/>
</linearGradient>
<linearGradient id="paint21_linear_903_6731" x1="1224.24" y1="683.446" x2="1242.49" y2="678.446" gradientUnits="userSpaceOnUse">
<stop offset="0.3228" stop-color="#77B0F2"/>
<stop offset="0.45" stop-color="#7FB5F3"/>
<stop offset="0.8703" stop-color="#97C4F7"/>
</linearGradient>
<linearGradient id="paint22_linear_903_6731" x1="1267.37" y1="722.291" x2="1216.12" y2="735.541" gradientUnits="userSpaceOnUse">
<stop offset="0.2631" stop-color="#71A7E6"/>
<stop offset="0.3954" stop-color="#7FB2EC"/>
<stop offset="0.6502" stop-color="#97C4F7"/>
</linearGradient>
<linearGradient id="paint23_linear_903_6731" x1="1236.98" y1="729.947" x2="1255.23" y2="724.947" gradientUnits="userSpaceOnUse">
<stop offset="0.3228" stop-color="#77B0F2"/>
<stop offset="0.45" stop-color="#7FB5F3"/>
<stop offset="0.8703" stop-color="#97C4F7"/>
</linearGradient>
<linearGradient id="paint24_linear_903_6731" x1="960.579" y1="628.23" x2="960.579" y2="615.889" gradientUnits="userSpaceOnUse">
<stop offset="0.3228" stop-color="#77B0F2"/>
<stop offset="0.45" stop-color="#7FB5F3"/>
<stop offset="0.8703" stop-color="#97C4F7"/>
</linearGradient>
</defs>
</svg>
