<svg width="2311" height="1134" viewBox="0 0 2311 1134" fill="none" xmlns="http://www.w3.org/2000/svg">
<path d="M2150.27 958.682H190.837C190.837 895.556 150.256 836.277 157.02 781.374C157.285 779.517 157.55 777.528 157.683 775.671C162.722 736.417 169.353 699.417 177.575 664.672C177.973 662.815 178.371 661.091 178.902 659.235C185.267 632.844 192.561 607.912 200.651 584.174C201.712 580.858 202.905 577.676 204.099 574.493C234.601 489.353 276.111 422.515 326.24 375.436C327.566 374.243 328.893 373.049 330.219 371.855C386.051 320.931 452.227 294.408 525.167 294.408C612.695 294.408 667.201 318.279 712.424 347.189C714.148 348.25 715.739 349.311 717.463 350.504C783.507 393.737 831.117 446.386 938.139 446.386C1120.09 446.386 1210.01 335.519 1357.21 335.519C1430.55 335.519 1473.92 362.572 1508.13 394.665C1509.59 395.992 1511.05 397.45 1512.51 398.777C1544.73 430.207 1569.27 465.482 1604.68 485.11C1658.39 514.816 1693.53 493.464 1794.85 503.411C1797.9 503.676 1800.95 504.074 1804 504.339C1840.07 508.45 1884.24 516.407 1939.94 531.658C1960.23 537.228 1978.39 545.185 1994.97 555.396C1997.49 556.988 2000.01 558.579 2002.4 560.17C2029.45 578.206 2051.6 601.812 2069.77 628.6C2070.83 630.192 2071.89 631.783 2072.95 633.507C2125.33 714.138 2142.58 821.026 2148.01 889.854C2148.15 892.108 2148.28 894.23 2148.54 896.352C2151.06 933.882 2150.27 958.682 2150.27 958.682Z" fill="#E6F3FC"/>
<path d="M1102.72 955.631H1082.56C980.71 928.578 885.755 879.245 803.002 833.89C790.005 826.729 776.743 819.435 763.879 812.273C674.097 762.542 581.132 711.22 481.668 679.392C421.327 660.163 361.782 649.686 304.889 648.493C259.666 647.564 216.963 652.338 177.443 663.08C177.841 661.224 178.239 659.5 178.769 657.643C218.024 647.299 260.329 642.657 305.021 643.586C362.445 644.779 422.388 655.389 483.26 674.751C583.254 706.711 676.352 758.166 766.399 808.03C779.13 815.058 792.392 822.485 805.521 829.514C893.049 877.521 994.237 929.904 1102.72 955.631Z" fill="white"/>
<path d="M2148.41 893.169C2097.22 855.506 2047.22 827.259 1997.23 807.764C1975.87 799.41 1953.33 792.248 1931.58 785.352C1882.11 769.571 1831.06 753.259 1789.28 722.227C1755.46 697.163 1731.46 654.858 1751.35 622.367C1764.35 601.016 1790.61 592.661 1816.47 585.898C1879.33 569.321 1937.95 555.396 1994.84 553.937C1997.36 555.529 1999.88 556.987 2002.27 558.711C1943.65 559.242 1883.04 573.564 1817.79 590.672C1792.99 597.17 1767.8 605.26 1755.73 624.887C1741.8 647.564 1750.03 687.084 1792.46 718.381C1833.71 748.883 1884.37 765.062 1933.3 780.711C1955.19 787.739 1977.73 794.901 1999.22 803.256C2048.42 822.485 2097.62 850.069 2148.01 886.671C2148.01 888.925 2148.28 891.18 2148.41 893.169Z" fill="white"/>
<path d="M2034.36 770.102C2034.36 775.274 2034.62 778.191 2034.62 778.191L2084.09 789.994C2085.95 788.933 2096.56 781.639 2103.98 776.6C2144.83 749.148 2172.95 714.005 2189.26 676.872C2189.65 675.944 2190.05 675.016 2190.45 673.955C2191.78 670.772 2193.1 667.589 2194.3 664.539C2194.69 663.611 2195.09 662.55 2195.36 661.622C2195.49 661.356 2195.49 661.224 2195.62 660.958C2195.89 660.163 2196.15 659.5 2196.42 658.704C2196.68 657.776 2197.08 656.98 2197.35 656.052C2198.54 652.736 2199.6 649.553 2200.53 646.371C2201.06 644.647 2201.59 642.923 2202.12 641.331C2212.6 605.79 2214.98 575.952 2215.52 566.271C2215.65 564.149 2215.65 562.955 2215.65 562.955C2215.12 563.088 2214.72 563.22 2214.19 563.353C2164.72 578.869 2128.78 600.486 2102.79 623.826C2101.2 625.285 2099.47 626.876 2097.88 628.335C2096.69 629.528 2095.5 630.589 2094.44 631.783C2040.06 686.288 2034.49 748.353 2034.36 770.102Z" fill="#CAE7FC"/>
<path d="M2073.35 651.41L2095.1 717.32" stroke="#E6F3FC" stroke-width="3" stroke-miterlimit="10" stroke-linecap="round"/>
<path d="M2059.42 778.854L2062.47 778.987C2072.29 752.862 2096.56 716.127 2123.48 679.923C2124.14 678.994 2124.94 677.933 2125.73 677.005C2127.99 673.955 2130.24 671.037 2132.5 667.987C2133.29 667.059 2133.96 665.998 2134.75 665.07C2167.64 622.102 2201.72 582.45 2215.78 566.403C2215.91 564.281 2215.91 563.088 2215.91 563.088C2215.38 563.221 2214.98 563.353 2214.45 563.486C2200.79 579.134 2164.99 620.643 2130.77 665.335C2130.64 665.6 2130.37 665.733 2130.24 665.998C2127.46 669.711 2124.54 673.557 2121.75 677.27C2121.62 677.536 2121.36 677.668 2121.22 677.933C2093.9 714.801 2069.1 752.464 2059.42 778.854Z" fill="#E6F3FC"/>
<path d="M2130.11 666.661C2130.11 667.457 2130.77 667.987 2131.44 667.987C2131.44 667.987 2131.44 667.987 2131.57 667.987H2132.23L2194.3 664.672C2194.69 663.743 2195.09 662.682 2195.36 661.754L2134.49 665.07L2131.3 665.202C2131.04 665.202 2130.77 665.335 2130.64 665.467C2130.37 665.6 2130.24 665.865 2130.11 666.13C2130.11 666.263 2130.11 666.528 2130.11 666.661Z" fill="#E6F3FC"/>
<path d="M2121.09 678.596C2121.09 679.392 2121.75 679.923 2122.42 679.923H2122.55H2123.35L2189.39 676.872C2189.79 675.944 2190.19 675.016 2190.58 673.955L2125.47 676.872L2122.42 677.005C2122.15 677.005 2121.89 677.138 2121.62 677.27C2121.36 677.403 2121.22 677.668 2121.09 677.933C2121.09 678.199 2121.09 678.464 2121.09 678.596Z" fill="#E6F3FC"/>
<path d="M2030.38 796.757C2028.39 800.736 2027.6 803.123 2027.6 803.123L2061.41 830.707C2063.27 830.575 2074.14 828.851 2081.84 827.79C2123.61 821.822 2158.36 805.245 2184.88 782.567C2185.54 782.037 2186.21 781.374 2186.87 780.843C2189.12 778.854 2191.25 776.998 2193.37 775.008C2194.03 774.345 2194.69 773.815 2195.36 773.152C2195.49 773.019 2195.62 772.887 2195.76 772.754C2196.29 772.223 2196.82 771.826 2197.21 771.295C2197.74 770.765 2198.41 770.102 2198.94 769.571C2201.06 767.449 2203.05 765.327 2205.04 763.338C2206.1 762.277 2207.16 761.084 2208.09 760.023C2229.44 736.55 2242.44 714.27 2246.42 707.109C2247.34 705.518 2247.74 704.589 2247.74 704.589C2247.34 704.589 2246.95 704.457 2246.55 704.457C2202.52 697.958 2166.84 701.274 2137.93 709.629C2136.08 710.159 2134.35 710.69 2132.5 711.22C2131.17 711.618 2129.84 712.148 2128.52 712.546C2065.92 734.03 2038.6 779.915 2030.38 796.757Z" fill="#CAE7FC"/>
<path d="M2104.65 719.575L2096.95 778.589" stroke="#E6F3FC" stroke-width="3" stroke-miterlimit="10" stroke-linecap="round"/>
<path d="M2046.43 812.804L2048.68 813.997C2065.92 797.553 2098.41 778.191 2132.63 760.288C2133.56 759.757 2134.49 759.36 2135.41 758.829C2138.33 757.37 2141.12 755.912 2144.03 754.453C2144.96 753.922 2145.89 753.524 2146.82 752.994C2188.2 732.041 2229.31 714.27 2246.15 707.109C2247.08 705.517 2247.48 704.589 2247.48 704.589C2247.08 704.589 2246.68 704.457 2246.28 704.457C2229.84 711.485 2186.87 730.051 2143.77 751.933C2143.5 752.066 2143.37 752.198 2143.11 752.198C2139.53 754.055 2135.94 755.912 2132.36 757.768C2132.1 757.901 2131.97 758.033 2131.7 758.166C2096.95 776.202 2063.8 795.962 2046.43 812.804Z" fill="#E6F3FC"/>
<path d="M2142.84 752.596C2142.58 753.127 2142.84 753.922 2143.37 754.188C2143.37 754.188 2143.37 754.188 2143.5 754.188L2144.03 754.453L2193.24 775.008C2193.9 774.345 2194.56 773.815 2195.22 773.152L2146.95 752.994L2144.43 751.933C2144.17 751.801 2144.03 751.801 2143.77 751.801C2143.5 751.801 2143.24 751.933 2143.11 752.066C2143.11 752.198 2142.97 752.331 2142.84 752.596Z" fill="#E6F3FC"/>
<path d="M2131.44 758.431C2131.17 758.962 2131.44 759.757 2131.97 760.023H2132.1L2132.63 760.288L2184.75 782.567C2185.41 782.037 2186.07 781.374 2186.74 780.843L2135.41 758.829L2133.03 757.768C2132.76 757.636 2132.63 757.636 2132.36 757.636C2132.1 757.636 2131.83 757.768 2131.7 758.033C2131.57 758.166 2131.57 758.299 2131.44 758.431Z" fill="#E6F3FC"/>
<path d="M1925.88 955.631H1886.76C1786.76 941.839 1697.24 919.029 1616.08 886.936C1561.84 865.452 1509.06 838.929 1458 813.202C1407.87 788.005 1356.02 761.879 1302.97 740.793C1244.35 717.453 1187.86 702.467 1135.21 696.234C1073.67 689.073 1016.65 693.847 965.856 710.557C953.523 714.535 925.01 726.338 925.275 748.087C925.408 763.073 939.598 774.743 953.523 784.026C1058.82 855.108 1173.14 912.664 1293.82 955.499H1279.37C1163.06 913.062 1052.59 856.833 950.738 788.005C935.752 777.926 920.501 765.327 920.368 748.087C920.103 723.155 951.003 710.292 964.398 705.915C1015.85 688.941 1073.67 684.034 1136.01 691.328C1189.18 697.561 1246.08 712.679 1305.23 736.284C1358.54 757.503 1410.39 783.628 1460.65 808.958C1511.58 834.553 1564.36 861.076 1618.34 882.427C1708.91 918.366 1810.77 942.635 1925.88 955.631Z" fill="white"/>
<path d="M717.331 350.106C640.28 381.934 578.214 398.777 518.006 404.479C504.081 405.805 490.421 406.468 476.894 406.468C421.858 406.468 370.137 395.726 326.24 375.038C327.566 373.845 328.893 372.651 330.219 371.458C383.796 396.257 449.044 406.203 517.608 399.572C576.49 394.002 637.362 377.558 712.424 346.791C714.015 347.852 715.607 349.045 717.331 350.106Z" fill="white"/>
<path d="M1858.38 782.435C1858.11 782.435 1857.98 782.302 1857.84 782.17C1857.31 781.639 1804.13 727.664 1745.25 722.625C1686.24 717.586 1585.85 757.768 1584.78 758.166C1584.39 758.299 1583.99 758.166 1583.72 757.768C1583.59 757.37 1583.72 756.972 1584.12 756.707C1585.18 756.309 1685.97 715.994 1745.25 721.034C1804.67 726.073 1858.24 780.446 1858.77 780.976C1859.04 781.241 1859.04 781.772 1858.77 782.037C1858.77 782.435 1858.64 782.435 1858.38 782.435Z" fill="#1D458A"/>
<path d="M1112.53 951.653C1109.08 951.122 1109.08 934.545 1110.14 923.273C1111.21 912.001 1115.32 888.926 1117.57 889.058C1119.83 889.323 1130.17 905.37 1130.17 918.897C1130.04 932.556 1112.53 951.653 1112.53 951.653Z" fill="#1D2954"/>
<path d="M1125.93 929.373L1112.53 927.649L1102.19 926.323C1096.75 913.062 1102.19 889.986 1102.19 889.986L1116.25 891.578L1121.42 892.108L1125.93 929.373Z" fill="#F3A07D"/>
<path d="M1112.53 927.649C1117.97 913.857 1116.51 895.026 1116.25 891.578L1121.42 892.108L1126.06 929.373L1112.53 927.649Z" fill="#D67D58"/>
<path d="M1104.71 926.721C1097.15 928.843 1091.05 943.829 1090.25 950.592C1090.12 951.786 1089.85 952.846 1089.46 953.642C1087.73 957.223 1083.62 956.56 1075.27 950.592C1065.05 943.298 1070.62 923.406 1072.61 915.714C1074.47 908.022 1077.65 882.693 1077.65 882.693C1079.24 882.295 1080.84 882.162 1082.43 882.162C1087.07 882.162 1091.18 883.488 1094.5 885.08C1095.03 885.345 1095.42 885.478 1095.95 885.743C1099.8 887.865 1102.19 889.986 1102.19 889.986C1098.74 904.309 1104.71 926.721 1104.71 926.721Z" fill="#FA9746"/>
<path d="M1095.95 885.743C1095.56 887.6 1093.17 898.739 1087.6 904.442C1085.48 906.696 1083.49 908.288 1081.76 909.746C1078.98 912.133 1077.12 913.725 1076.73 915.714C1076.73 916.112 1076.33 916.377 1075.93 916.377H1075.8C1075.4 916.377 1075.13 915.979 1075.13 915.582C1075.53 912.929 1077.65 911.205 1080.7 908.685C1082.43 907.227 1084.28 905.635 1086.41 903.513C1091.98 897.811 1094.36 885.478 1094.36 885.478C1094.36 885.345 1094.36 885.345 1094.36 885.212C1095.03 885.345 1095.42 885.478 1095.95 885.743Z" fill="#F5821F"/>
<path d="M1089.46 953.642C1087.73 957.223 1083.62 956.56 1075.27 950.592C1065.05 943.298 1070.62 923.406 1072.61 915.714C1074.47 908.022 1077.65 882.693 1077.65 882.693C1079.24 882.295 1080.84 882.162 1082.43 882.162C1082.43 882.162 1071.15 933.087 1074.74 941.176C1077.65 947.542 1086.14 952.051 1089.46 953.642Z" fill="#1D458A"/>
<path d="M1093.83 928.312C1093.83 928.312 1098.21 930.434 1098.34 933.352L1093.83 928.312Z" fill="black"/>
<path d="M1098.34 934.413C1097.68 934.413 1097.15 933.882 1097.15 933.352C1097.15 931.495 1094.23 929.771 1093.3 929.241C1092.77 928.976 1092.51 928.313 1092.77 927.649C1093.04 927.119 1093.7 926.854 1094.36 927.119C1094.89 927.384 1099.4 929.639 1099.54 933.219C1099.54 933.882 1099.01 934.413 1098.34 934.413Z" fill="#E6F3FC"/>
<path d="M1090.65 933.352C1090.65 933.352 1095.03 935.474 1095.16 938.391L1090.65 933.352Z" fill="black"/>
<path d="M1095.16 939.452C1094.5 939.452 1093.97 938.922 1093.97 938.391C1093.97 936.535 1091.05 934.811 1090.12 934.28C1089.59 934.015 1089.32 933.352 1089.59 932.689C1089.85 932.158 1090.52 931.893 1091.18 932.158C1091.71 932.423 1096.22 934.678 1096.35 938.259C1096.35 938.922 1095.82 939.452 1095.16 939.452Z" fill="#E6F3FC"/>
<path d="M1354.16 617.46C1353.76 617.46 1353.5 617.195 1353.37 616.93C1352.97 615.206 1352.57 613.349 1352.17 611.493C1352.04 611.095 1352.3 610.697 1352.7 610.564C1353.1 610.432 1353.5 610.697 1353.63 611.095C1354.03 612.951 1354.43 614.675 1354.82 616.399C1354.96 616.797 1354.69 617.195 1354.29 617.328C1354.29 617.46 1354.16 617.46 1354.16 617.46Z" fill="#1D458A"/>
<path d="M1351.11 617.063C1350.71 617.063 1350.45 616.797 1350.32 616.532C1349.25 612.686 1348.19 608.575 1347.4 604.597C1347.27 604.199 1347.53 603.801 1347.93 603.668C1348.33 603.536 1348.72 603.801 1348.86 604.199C1349.65 608.177 1350.71 612.156 1351.77 616.002C1351.91 616.399 1351.64 616.797 1351.24 616.93C1351.24 617.063 1351.24 617.063 1351.11 617.063Z" fill="#1D458A"/>
<path d="M1547.25 756.309C1508.66 756.309 1471.4 745.302 1439.44 724.614C1407.34 703.794 1383.07 674.751 1369.01 640.536C1368.88 640.138 1369.01 639.74 1369.41 639.475C1369.81 639.342 1370.21 639.475 1370.47 639.873C1384.4 673.822 1408.4 702.733 1440.23 723.288C1471.93 743.844 1508.93 754.718 1547.25 754.718C1666.61 754.718 1700.03 633.772 1709.18 561.629C1714.75 517.998 1705.47 482.059 1681.33 454.741C1651.36 420.658 1599.24 401.827 1534.65 401.827C1483.73 401.827 1439.97 417.343 1408.14 446.651C1375.12 477.02 1357.61 519.988 1357.61 570.912C1357.61 585.5 1359.2 600.088 1362.12 612.951C1362.25 613.349 1361.99 613.747 1361.59 613.88C1361.19 614.012 1360.79 613.747 1360.66 613.349C1357.74 600.353 1356.15 585.765 1356.15 571.045C1356.15 519.59 1373.79 476.357 1407.08 445.59C1439.3 416.017 1483.33 400.368 1534.65 400.368C1599.64 400.368 1652.15 419.332 1682.52 453.812C1706.79 481.396 1716.34 517.866 1710.64 561.894C1701.49 634.568 1667.94 756.309 1547.25 756.309Z" fill="#1D458A"/>
<path d="M1375.25 661.091C1375.25 661.091 1368.22 662.417 1368.48 667.589C1368.48 668.252 1368.88 668.783 1369.55 669.048L1371.27 669.711C1371.27 669.711 1377.1 664.274 1375.25 661.091Z" fill="#D67D58"/>
<path d="M1885.69 731.775C1885.69 731.775 1922.83 677.403 1988.34 677.403C2053.85 677.403 2093.77 762.94 2093.77 827.392C2093.77 891.843 2072.82 957.753 2000.14 957.753H1879.86C1879.86 957.753 1818.99 959.875 1814.35 923.14C1809.84 886.14 1885.69 731.775 1885.69 731.775Z" fill="#FBDCB5"/>
<path d="M1333.74 638.281C1333.74 638.281 1338.51 631.12 1338.91 628.865C1339.31 626.611 1339.57 619.715 1343.68 617.46C1347.8 615.206 1355.75 616.002 1356.68 617.328C1356.68 617.328 1359.2 613.217 1362.12 613.084C1365.04 612.951 1369.15 614.808 1368.62 617.858C1368.62 617.858 1372.06 620.378 1370.08 624.091C1370.08 624.091 1373.13 626.213 1372.6 628.202C1372.06 630.192 1370.47 632.844 1370.47 632.844C1370.47 632.844 1372.73 635.894 1371.4 638.546C1370.08 641.199 1363.98 644.116 1362.78 642.657C1362.78 642.657 1351.38 654.062 1350.32 659.234C1350.32 659.234 1336.52 649.819 1335.2 646.106C1333.87 642.392 1333.74 638.281 1333.74 638.281Z" fill="#F3A07D"/>
<path d="M1359.73 627.141C1358.8 627.141 1358.01 626.744 1357.48 625.948C1355.09 622.367 1359.6 616.93 1359.73 616.797C1360 616.532 1360.53 616.399 1360.79 616.665C1361.06 616.93 1361.19 617.46 1360.93 617.726C1359.86 619.052 1357.34 622.898 1358.67 625.152C1358.8 625.417 1359.2 625.815 1360.13 625.55C1362.78 625.02 1367.03 620.908 1367.82 617.593C1367.95 617.195 1368.35 616.93 1368.75 617.063C1369.15 617.195 1369.41 617.593 1369.28 617.991C1368.48 621.704 1363.84 626.478 1360.39 627.141C1360.13 627.141 1359.86 627.141 1359.73 627.141Z" fill="#D67D58"/>
<path d="M1362.78 633.109C1361.99 633.109 1361.32 632.844 1360.79 632.313C1358.54 629.926 1360 626.213 1360.13 625.948C1360.26 625.55 1360.79 625.417 1361.19 625.55C1361.59 625.683 1361.72 626.213 1361.59 626.611C1361.59 626.611 1360.39 629.661 1361.99 631.252C1362.38 631.65 1362.78 631.65 1363.31 631.65C1365.04 631.252 1367.69 628.733 1369.41 623.959C1369.54 623.561 1369.94 623.296 1370.34 623.561C1370.74 623.693 1371 624.091 1370.74 624.489C1369.01 629.131 1366.23 632.579 1363.44 633.242C1363.31 633.109 1363.05 633.109 1362.78 633.109Z" fill="#D67D58"/>
<path d="M1365.04 637.485C1364.24 637.485 1363.71 637.22 1363.31 636.69C1362.12 635.231 1362.65 632.446 1362.78 632.048C1362.91 631.65 1363.31 631.385 1363.71 631.385C1364.11 631.518 1364.37 631.916 1364.37 632.313C1364.11 633.374 1364.11 635.098 1364.64 635.629C1364.77 635.761 1364.9 635.894 1365.04 635.894C1365.04 635.894 1365.04 635.894 1365.17 635.894C1367.16 635.894 1369.01 634.037 1369.94 632.313C1370.08 631.916 1370.61 631.783 1371 632.048C1371.4 632.181 1371.53 632.711 1371.27 633.109C1370.08 635.231 1367.69 637.485 1365.04 637.485Z" fill="#D67D58"/>
<path d="M1362.91 643.188C1362.65 643.188 1362.38 643.055 1362.25 642.923C1360 639.873 1362.25 636.955 1363.71 635.894C1364.11 635.629 1364.51 635.761 1364.77 636.027C1365.04 636.425 1364.9 636.822 1364.64 637.088C1364.51 637.22 1361.59 639.475 1363.44 641.994C1363.71 642.392 1363.58 642.79 1363.31 643.055C1363.18 643.188 1363.05 643.188 1362.91 643.188Z" fill="#D67D58"/>
<path d="M1747.64 943.696C1747.9 943.829 1748.17 943.961 1748.43 943.961H1756.79C1757.59 943.961 1758.38 943.298 1758.38 942.503C1758.38 941.707 1757.72 940.911 1756.92 940.911H1748.57C1747.77 940.911 1746.98 941.574 1746.98 942.37C1746.98 942.9 1747.24 943.431 1747.64 943.696Z" fill="#FA9746"/>
<path d="M1670.72 917.04C1670.59 918.366 1670.72 919.56 1670.99 920.621C1671.25 921.682 1671.78 922.61 1672.71 923.14L1732.92 961.599C1734.51 962.527 1736.5 962.13 1737.56 960.671L1738.22 959.743L1741.54 954.703L1742.73 952.847L1755.33 933.882L1723.64 912.133C1715.94 909.216 1680.27 909.614 1674.43 911.736C1671.78 912.664 1670.85 914.918 1670.72 917.04Z" fill="#FA9746"/>
<path d="M1693.93 932.026C1693.8 932.424 1693.93 932.954 1694.33 933.219L1694.46 933.352C1696.32 934.015 1699.63 934.546 1703.88 935.076C1711.04 936.004 1720.72 937.331 1727.61 940.779C1738.09 946.083 1741.01 954.173 1741.01 954.173C1741.14 954.438 1741.27 954.571 1741.41 954.703L1742.6 952.847C1741.67 950.592 1737.96 943.829 1728.54 939.054C1721.25 935.341 1711.3 934.015 1704.14 933.087C1700.29 932.556 1696.85 932.158 1695.26 931.495C1694.72 931.23 1694.06 931.495 1693.93 932.026Z" fill="#F5821F"/>
<path d="M1670.72 917.04C1670.59 918.366 1670.72 919.56 1670.99 920.621C1671.12 921.682 1671.78 922.61 1672.71 923.141L1732.92 961.599C1734.51 962.528 1736.5 962.13 1737.56 960.671L1738.09 959.743L1670.72 917.04Z" fill="#1D458A"/>
<path d="M1705.73 918.631C1705.86 918.764 1706 918.764 1706.13 918.764C1706.93 919.029 1707.72 918.499 1707.99 917.703C1708.12 917.04 1709.58 911.47 1707.85 907.757C1707.46 906.961 1706.53 906.696 1705.86 907.094C1705.07 907.492 1704.8 908.42 1705.2 909.083C1706.26 911.338 1705.6 915.449 1705.2 916.908C1704.94 917.571 1705.2 918.234 1705.73 918.631Z" fill="#FFF5E8"/>
<path d="M1698.31 917.836C1698.44 917.968 1698.57 917.969 1698.7 917.969C1699.5 918.234 1700.29 917.703 1700.56 916.908C1700.69 916.245 1702.15 910.675 1700.43 906.961C1700.03 906.166 1699.1 905.9 1698.44 906.298C1697.64 906.696 1697.38 907.624 1697.77 908.288C1698.84 910.542 1698.17 914.653 1697.77 916.112C1697.51 916.775 1697.77 917.438 1698.31 917.836Z" fill="#FFF5E8"/>
<path d="M1690.61 917.703C1690.75 917.836 1690.88 917.836 1691.01 917.836C1691.81 918.101 1692.6 917.571 1692.87 916.775C1693 916.112 1694.46 910.542 1692.74 906.829C1692.34 906.033 1691.41 905.768 1690.75 906.166C1689.95 906.564 1689.69 907.492 1690.08 908.155C1691.14 910.409 1690.48 914.521 1690.08 915.979C1689.82 916.642 1690.08 917.305 1690.61 917.703Z" fill="#FFF5E8"/>
<path d="M1840.74 939.054C1841 939.054 1841.27 938.922 1841.53 938.789L1848.56 934.413C1849.22 934.015 1849.49 932.954 1849.09 932.291C1848.69 931.628 1847.63 931.363 1846.97 931.76L1839.94 936.137C1839.28 936.535 1839.01 937.596 1839.41 938.259C1839.81 938.789 1840.21 939.054 1840.74 939.054Z" fill="#FA9746"/>
<path d="M1761.7 958.151C1762.36 959.345 1763.16 960.273 1763.82 960.936C1764.61 961.732 1765.54 962.129 1766.6 962.129L1838.08 961.997C1839.94 961.997 1841.4 960.538 1841.4 958.681V957.62L1841.53 951.52V949.266L1841.93 926.456L1803.6 925.262C1795.51 926.854 1765.81 946.613 1761.96 951.52C1760.11 953.775 1760.64 956.162 1761.7 958.151Z" fill="#FA9746"/>
<path d="M1789.28 958.151C1789.41 958.681 1789.81 958.947 1790.34 958.947C1790.47 958.947 1790.47 958.947 1790.61 958.947C1792.6 958.549 1795.65 957.09 1799.49 955.366C1805.99 952.316 1814.88 948.205 1822.57 947.409C1834.24 946.215 1841 951.387 1841.13 951.52C1841.27 951.653 1841.53 951.785 1841.67 951.785V949.531C1839.68 948.205 1832.91 944.491 1822.3 945.552C1814.21 946.348 1805.06 950.592 1798.56 953.775C1794.98 955.499 1791.93 956.825 1790.21 957.223C1789.41 957.09 1789.15 957.62 1789.28 958.151Z" fill="#F5821F"/>
<path d="M1761.7 958.151C1762.36 959.345 1763.16 960.273 1763.82 960.936C1764.48 961.732 1765.54 962.129 1766.6 962.129H1838.08C1839.94 962.129 1841.4 960.671 1841.4 958.814V957.753L1761.7 958.151Z" fill="#1D458A"/>
<path d="M1791.93 940.513C1792.07 940.513 1792.2 940.513 1792.33 940.38C1793.13 940.115 1793.52 939.32 1793.39 938.524C1793.26 937.861 1791.4 932.424 1787.95 930.302C1787.29 929.904 1786.23 930.037 1785.83 930.832C1785.44 931.495 1785.57 932.556 1786.36 932.954C1788.49 934.28 1790.08 938.126 1790.47 939.452C1790.61 940.115 1791.27 940.513 1791.93 940.513Z" fill="#FFF5E8"/>
<path d="M1785.3 943.829C1785.44 943.829 1785.57 943.829 1785.7 943.696C1786.5 943.431 1786.89 942.635 1786.76 941.839C1786.63 941.176 1784.77 935.739 1781.32 933.617C1780.66 933.219 1779.6 933.352 1779.2 934.148C1778.8 934.811 1778.94 935.872 1779.73 936.269C1781.85 937.596 1783.45 941.442 1783.84 942.768C1784.11 943.431 1784.64 943.829 1785.3 943.829Z" fill="#FFF5E8"/>
<path d="M1778.67 947.939C1778.8 947.939 1778.94 947.939 1779.07 947.807C1779.87 947.542 1780.26 946.746 1780.13 945.95C1780 945.287 1778.14 939.85 1774.69 937.728C1774.03 937.33 1772.97 937.463 1772.57 938.258C1772.17 938.922 1772.31 939.982 1773.1 940.38C1775.22 941.706 1776.81 945.552 1777.21 946.879C1777.48 947.542 1778.14 947.939 1778.67 947.939Z" fill="#FFF5E8"/>
<path d="M1865.14 786.281C1865.14 786.281 1899.62 730.582 1916.59 724.482C1933.44 718.381 1939.67 717.188 1950.54 715.729C1961.42 714.27 1966.19 715.199 1966.19 715.199C1966.19 715.199 2000.67 725.941 2012.21 740.528C2023.75 755.116 2029.45 789.331 2031.57 809.886C2033.56 830.309 2035.42 849.273 2006.51 851.793C2006.51 851.793 2006.24 863.065 2004.92 868.37L1952.53 861.739L1865.14 786.281Z" fill="#FA9746"/>
<path d="M1907.84 794.37C1907.71 794.37 1907.71 794.37 1907.58 794.37C1906.78 794.238 1906.12 793.442 1906.25 792.646L1911.42 758.962C1911.55 758.166 1912.35 757.503 1913.15 757.636C1913.94 757.768 1914.6 758.564 1914.47 759.36L1909.3 793.044C1909.17 793.84 1908.5 794.37 1907.84 794.37Z" fill="#F5821F"/>
<path d="M1923.62 828.983C1922.16 828.983 1920.71 828.983 1919.38 828.851C1918.58 828.851 1917.92 828.055 1917.92 827.259C1917.92 826.463 1918.72 825.8 1919.51 825.8C1939.54 827.127 1978.53 817.048 1985.82 815.058C1984.89 803.388 1976.01 771.693 1976.01 771.295C1975.74 770.499 1976.27 769.571 1977.07 769.439C1977.86 769.173 1978.79 769.704 1978.92 770.499C1979.32 771.958 1988.61 805.377 1989 816.119C1989 816.782 1988.61 817.445 1987.94 817.711C1986.22 818.241 1947.1 828.983 1923.62 828.983Z" fill="#F5821F"/>
<path d="M1926.54 850.732H1843.92L1831.72 781.639H1914.21L1926.54 850.732Z" fill="#A1CAFA"/>
<path d="M1854 821.557C1854 821.557 1830.26 805.51 1818.32 811.345C1812.36 814.263 1773.63 847.682 1720.58 906.298C1720.58 906.298 1733.85 933.352 1758.12 936.004L1818.19 874.338L1854 821.557Z" fill="#052569"/>
<path d="M1953.99 862.137C1953.99 862.137 1892.99 799.41 1865.14 806.173C1837.29 812.937 1807.58 858.424 1796.31 921.814C1796.31 921.814 1810.5 932.821 1844.32 931.628L1863.28 888.13C1863.28 888.13 1902.93 912.664 1931.05 917.305C1959.16 921.947 1989.8 924.069 2000.41 868.105L1953.99 862.137Z" fill="#1D458A"/>
<path d="M1529.22 768.908C1422.59 768.908 1335.73 682.177 1335.73 575.421C1335.73 468.665 1422.46 381.934 1529.22 381.934C1635.97 381.934 1722.71 468.798 1722.71 575.421C1722.71 682.045 1635.84 768.908 1529.22 768.908ZM1529.22 383.526C1423.39 383.526 1337.32 469.594 1337.32 575.421C1337.32 681.249 1423.39 767.317 1529.22 767.317C1635.05 767.317 1721.12 681.249 1721.12 575.421C1721.12 469.594 1635.05 383.526 1529.22 383.526Z" fill="#1D458A"/>
<path d="M1354.29 627.141C1354.03 627.141 1353.63 626.876 1353.63 626.611C1353.37 625.683 1353.1 624.754 1352.7 623.959C1352.57 623.561 1352.84 623.163 1353.23 623.03C1353.63 622.898 1354.03 623.163 1354.16 623.561C1354.43 624.489 1354.69 625.417 1355.09 626.213C1355.22 626.611 1354.96 627.009 1354.56 627.141C1354.56 627.141 1354.43 627.141 1354.29 627.141Z" fill="#1D458A"/>
<path d="M1532.53 768.908C1500.31 768.908 1467.82 759.094 1438.77 740.396C1410.66 722.36 1386.79 697.03 1369.81 667.059C1368.75 665.07 1368.22 663.213 1367.69 661.224C1367.29 659.765 1366.89 658.174 1366.23 656.715C1364.9 653.665 1363.31 651.808 1361.59 649.951C1358.01 645.84 1354.29 641.729 1353.63 626.478C1353.63 626.081 1353.9 625.683 1354.43 625.683C1354.82 625.683 1355.22 625.948 1355.22 626.478C1355.89 641.199 1359.2 645.045 1362.78 649.023C1364.51 651.012 1366.23 653.002 1367.69 656.184C1368.35 657.776 1368.88 659.367 1369.28 660.959C1369.81 662.815 1370.21 664.672 1371.27 666.396C1388.11 696.102 1411.72 721.299 1439.7 739.202C1468.48 757.636 1500.7 767.449 1532.67 767.449C1581.47 767.449 1627.62 746.761 1662.5 709.098C1697.24 671.701 1716.34 622.765 1716.34 571.178C1716.34 466.941 1638.76 388.433 1535.98 388.433C1485.06 388.433 1437.45 405.01 1402.17 435.113C1364.37 467.207 1344.48 510.837 1344.48 561.231C1344.48 575.421 1346.07 590.009 1349.26 604.464C1349.39 604.862 1349.12 605.26 1348.72 605.392C1348.33 605.525 1347.93 605.26 1347.8 604.862C1344.61 590.274 1343.02 575.686 1343.02 561.364C1343.02 511.235 1363.71 466.146 1401.24 434.185C1436.92 403.816 1484.79 387.239 1536.11 387.239C1639.82 387.239 1718.07 466.411 1718.07 571.575C1718.07 623.561 1698.84 672.894 1663.82 710.557C1628.28 747.955 1581.73 768.908 1532.53 768.908Z" fill="#1D458A"/>
<path d="M1534.26 763.603C1467.28 763.603 1404.82 725.145 1371.4 663.08C1371 662.285 1371.27 661.224 1371.53 660.163C1371.67 659.5 1371.93 658.704 1371.93 658.041C1371.93 655.654 1368.75 651.145 1365.7 648.625C1357.08 641.464 1356.68 636.822 1356.28 630.987C1356.02 628.468 1355.75 625.55 1354.82 621.969C1354.69 621.572 1354.96 621.174 1355.36 621.041C1355.75 620.908 1356.15 621.174 1356.28 621.572C1357.34 625.285 1357.61 628.202 1357.74 630.855C1358.27 636.557 1358.54 640.668 1366.63 647.564C1369.41 649.951 1373.39 654.858 1373.39 658.174C1373.39 659.102 1373.13 660.03 1372.86 660.693C1372.73 661.356 1372.46 662.152 1372.6 662.417C1405.88 723.951 1467.68 762.145 1534.12 762.145C1584.78 762.145 1626.16 748.087 1657.06 720.238C1688.23 692.256 1707.32 651.675 1713.95 599.425C1720.45 548.5 1704.67 498.371 1669.26 458.321C1633.19 417.343 1581.07 392.941 1529.88 392.941C1479.88 392.941 1434.13 409.916 1401.24 440.816C1366.89 473.042 1348.59 517.07 1348.59 568.127C1348.59 582.052 1350.18 597.038 1353.37 611.227C1353.5 611.625 1353.23 612.023 1352.84 612.156C1352.44 612.288 1352.04 612.023 1351.91 611.625C1348.72 597.303 1347.13 582.317 1347.13 568.26C1347.13 516.672 1365.43 472.378 1400.18 439.888C1433.47 408.723 1479.49 391.615 1529.88 391.615C1581.47 391.615 1633.99 416.282 1670.32 457.525C1705.86 497.973 1721.91 548.5 1715.28 599.822C1708.52 652.338 1689.29 693.317 1657.86 721.564C1627.09 749.413 1585.31 763.603 1534.26 763.603Z" fill="#1D458A"/>
<path d="M1226.58 684.829C1226.58 684.829 1276.71 685.625 1282.55 682.177C1288.25 678.729 1333.74 628.07 1333.74 628.07C1333.74 628.07 1348.46 648.095 1360.93 650.614L1336.13 694.51V721.697H1226.45V684.829H1226.58Z" fill="#F5821F"/>
<path d="M1343.55 691.593C1343.55 691.593 1353.1 682.575 1354.03 676.872C1354.96 671.17 1356.02 661.887 1357.48 659.898C1359.73 657.113 1362.91 658.173 1362.91 660.295C1362.91 662.417 1364.11 670.639 1365.3 672.363C1366.5 674.087 1374.32 664.406 1375.38 661.091C1375.38 661.091 1378.56 660.428 1379.49 665.335C1379.49 665.335 1382.94 668.252 1382.67 671.17C1382.41 674.087 1381.75 675.546 1381.75 675.546C1381.75 675.546 1384.53 677.801 1382.67 682.177C1382.67 682.177 1384.27 684.034 1382.28 688.543C1380.29 693.052 1374.98 696.632 1371.67 699.815C1368.35 702.998 1364.37 709.363 1364.37 709.363C1364.37 709.363 1348.33 705.12 1343.55 691.593Z" fill="#F3A07D"/>
<path d="M1372.6 678.464C1372.33 678.464 1372.07 678.331 1371.93 678.199C1371.67 677.801 1371.8 677.403 1372.07 677.138C1377.9 672.894 1378.56 665.335 1378.56 665.335C1378.56 664.937 1378.96 664.539 1379.36 664.672C1379.76 664.672 1380.15 665.07 1380.02 665.467C1380.02 665.865 1379.36 673.822 1372.86 678.464C1372.86 678.464 1372.73 678.464 1372.6 678.464Z" fill="#D67D58"/>
<path d="M1376.04 683.238C1375.78 683.238 1375.65 683.105 1375.51 682.973C1375.25 682.708 1375.25 682.177 1375.65 681.912C1379.09 679.127 1381.08 675.281 1381.08 675.281C1381.35 674.883 1381.75 674.751 1382.14 675.016C1382.54 675.281 1382.67 675.679 1382.41 676.077C1382.28 676.209 1380.15 680.188 1376.57 683.238C1376.31 683.238 1376.18 683.238 1376.04 683.238Z" fill="#D67D58"/>
<path d="M1378.83 688.277C1378.56 688.277 1378.43 688.145 1378.17 688.012C1377.9 687.614 1377.9 687.216 1378.3 686.951C1381.48 684.432 1381.75 682.31 1381.75 682.31C1381.75 681.912 1382.14 681.647 1382.54 681.647C1382.94 681.647 1383.2 682.044 1383.2 682.442C1383.2 682.575 1382.94 685.227 1379.09 688.145C1379.23 688.145 1378.96 688.277 1378.83 688.277Z" fill="#D67D58"/>
<path d="M1239.31 642.525C1240.38 641.729 1241.7 640.403 1241.3 639.607C1240.91 638.812 1239.05 638.414 1237.86 638.148C1234.54 629.131 1230.43 621.571 1230.43 621.571C1196.21 610.034 1193.03 655.123 1193.03 655.123C1193.03 655.123 1236.93 674.485 1241.04 661.224C1242.63 656.317 1241.44 649.288 1239.31 642.525Z" fill="#F3A07D"/>
<path d="M1234.81 650.747C1233.48 650.747 1232.55 650.482 1232.42 650.482C1232.02 650.349 1231.76 649.951 1231.89 649.553C1232.02 649.156 1232.42 648.89 1232.82 649.023C1232.82 649.023 1236.93 649.951 1240.51 647.564C1240.91 647.299 1241.3 647.432 1241.57 647.829C1241.83 648.227 1241.7 648.625 1241.3 648.89C1239.05 650.349 1236.53 650.747 1234.81 650.747Z" fill="#D67D58"/>
<path d="M1222.21 645.575C1221.94 645.575 1221.81 645.442 1221.54 645.31C1218.76 641.597 1213.72 642.79 1213.59 642.923C1213.19 643.055 1212.79 642.79 1212.66 642.392C1212.53 641.994 1212.79 641.597 1213.19 641.464C1213.45 641.331 1219.42 639.873 1222.87 644.382C1223.14 644.779 1223 645.177 1222.74 645.442C1222.47 645.442 1222.34 645.575 1222.21 645.575Z" fill="#D67D58"/>
<path d="M1142.11 793.575C1142.11 793.575 1112.93 829.248 1122.21 856.169C1131.36 883.09 1148.34 892.241 1148.34 892.241L1117.57 889.191C1117.57 889.191 1129.11 932.954 1112.53 951.786C1112.53 951.786 1178.58 959.875 1231.89 959.875C1285.2 959.875 1304.16 952.714 1307.35 927.782C1309.2 913.194 1293.69 891.18 1293.69 891.18C1293.69 891.18 1311.72 866.248 1317.16 840.123C1322.6 813.998 1323.66 788.668 1305.23 780.578C1286.79 772.489 1226.72 804.317 1226.72 804.317L1142.11 793.575Z" fill="#1D458A"/>
<path d="M1217.43 647.166C1217.17 647.166 1216.77 646.901 1216.64 646.636C1215.84 643.984 1217.3 641.729 1217.43 641.596C1217.7 641.199 1218.1 641.199 1218.49 641.331C1218.89 641.597 1218.89 641.994 1218.76 642.392C1218.76 642.392 1217.56 644.249 1218.23 646.105C1218.36 646.503 1218.1 646.901 1217.7 647.034C1217.56 647.166 1217.56 647.166 1217.43 647.166Z" fill="#D67D58"/>
<path d="M1233.77 637.043C1234.69 636.597 1234.92 635.166 1234.28 633.847C1233.64 632.529 1232.38 631.822 1231.46 632.269C1230.53 632.715 1230.3 634.146 1230.94 635.465C1231.58 636.783 1232.84 637.49 1233.77 637.043Z" fill="#1D2954"/>
<path d="M1227.78 633.905C1227.64 633.905 1227.64 633.905 1227.51 633.905C1226.85 633.772 1226.58 633.109 1226.72 632.446C1227.51 629.131 1229.77 628.07 1229.9 627.937C1230.43 627.672 1231.22 627.937 1231.49 628.468C1231.76 628.998 1231.49 629.661 1230.96 630.059C1230.83 630.059 1229.5 630.855 1228.97 632.976C1228.71 633.64 1228.31 633.905 1227.78 633.905Z" fill="#1D2954"/>
<path d="M1220.62 680.453C1220.62 680.453 1286.66 718.514 1296.61 717.851C1306.55 717.055 1345.94 682.442 1345.94 682.442C1345.94 682.442 1357.21 702.202 1370.47 706.578C1370.47 706.578 1338.91 765.195 1292.36 766.653C1262.79 767.582 1245.55 755.514 1245.55 755.514L1228.97 815.721C1228.97 815.721 1168.1 814.926 1138.92 791.187C1138.92 791.187 1151.92 717.188 1153.91 711.75C1155.9 706.446 1220.62 680.453 1220.62 680.453Z" fill="#FA9746"/>
<path d="M1229.1 622.367C1226.72 623.428 1225.39 625.152 1225.39 630.059C1225.39 634.966 1224.59 638.414 1222.21 638.546C1219.82 638.679 1220.62 635.629 1215.58 636.292C1210.54 637.088 1208.15 641.066 1210.27 646.371C1212.53 651.543 1220.48 651.145 1220.48 651.145C1226.98 658.571 1219.69 678.596 1218.76 682.707C1217.83 686.951 1213.85 716.657 1212.53 732.571C1211.73 742.385 1203.11 744.241 1191.97 743.711C1198.34 728.593 1198.07 716.127 1198.07 716.127C1195.02 725.145 1184.94 739.467 1182.42 742.915C1178.31 742.517 1173.93 741.987 1169.69 741.589C1149.8 739.998 1141.04 733.102 1142.37 724.084C1144.63 708.965 1176.19 683.238 1178.04 659.367C1178.97 648.493 1182.02 624.091 1188.52 618.919C1198.47 611.095 1212.39 610.83 1220.08 611.36C1226.45 611.758 1228.84 613.747 1230.03 618.124C1230.96 621.439 1231.36 621.439 1229.1 622.367Z" fill="#1D2954"/>
<path d="M1296.61 732.704C1296.47 732.704 1296.21 732.704 1296.08 732.571C1295.28 732.306 1294.88 731.378 1295.15 730.582C1297.27 724.747 1295.15 718.381 1295.15 718.249C1294.88 717.453 1295.28 716.525 1296.08 716.259C1296.87 715.994 1297.8 716.392 1298.06 717.188C1298.2 717.453 1300.45 724.614 1298.06 731.51C1297.8 732.306 1297.27 732.704 1296.61 732.704Z" fill="#F5821F"/>
<path d="M1245.68 757.105C1245.55 757.105 1245.41 757.105 1245.15 756.973C1236.53 754.188 1224.73 744.905 1224.2 744.507C1223.53 743.976 1223.4 743.048 1223.93 742.385C1224.46 741.722 1225.39 741.589 1226.05 742.12C1226.19 742.252 1237.99 751.403 1246.08 754.055C1246.87 754.32 1247.27 755.116 1247.14 756.044C1246.87 756.707 1246.34 757.105 1245.68 757.105Z" fill="#F5821F"/>
<path d="M1195.02 917.173C1194.89 917.173 1194.76 917.173 1194.62 917.173C1174.86 911.735 1148.47 894.363 1147.41 893.567C1146.75 893.037 1146.48 892.108 1147.01 891.445C1147.54 890.782 1148.47 890.517 1149.13 891.047C1149.4 891.18 1176.32 908.95 1195.55 914.255C1196.35 914.52 1196.88 915.316 1196.61 916.112C1196.35 916.642 1195.68 917.173 1195.02 917.173Z" fill="#052569"/>
<path d="M1293.69 892.639C1293.29 892.639 1292.76 892.506 1292.49 892.108C1268.36 861.872 1228.57 832.431 1228.17 832.166C1227.78 831.901 1227.51 831.37 1227.51 830.972V818.374C1227.51 817.578 1228.17 816.782 1229.1 816.782C1230.03 816.782 1230.69 817.445 1230.69 818.374V830.309C1235.87 834.155 1272.2 862.005 1295.01 890.384C1295.54 891.047 1295.41 891.976 1294.75 892.506C1294.35 892.506 1293.95 892.639 1293.69 892.639Z" fill="#052569"/>
<path d="M1267.3 864.524C1266.77 864.524 1266.37 864.259 1266.1 863.861C1265.57 863.198 1265.71 862.27 1266.37 861.739C1282.15 850.202 1298.73 817.711 1298.86 817.445C1299.26 816.65 1300.19 816.385 1300.98 816.782C1301.78 817.18 1302.04 818.109 1301.65 818.904C1300.98 820.23 1284.54 852.191 1268.23 864.259C1267.83 864.391 1267.56 864.524 1267.3 864.524Z" fill="#052569"/>
<path d="M1349.26 638.148C1349.12 638.148 1348.99 638.148 1348.99 638.016C1348.59 637.883 1348.46 637.353 1348.59 636.955C1350.85 632.181 1347.66 627.274 1347.53 627.141L1347 626.346L1347.8 625.948C1353.1 623.693 1355.49 620.776 1356.02 618.787C1356.15 618.256 1356.15 617.726 1356.02 617.46C1355.75 617.063 1355.89 616.665 1356.15 616.399C1356.55 616.134 1356.95 616.267 1357.21 616.532C1357.61 617.195 1357.74 618.123 1357.48 619.184C1356.68 621.969 1353.63 624.754 1349.12 626.876C1350.05 628.6 1351.91 632.976 1349.79 637.353C1349.79 638.016 1349.52 638.148 1349.26 638.148Z" fill="#D67D58"/>
<path d="M1966.06 715.198C1952.93 725.94 1944.44 720.503 1944.44 720.503L1944.05 719.044L1941.92 709.894L1957.31 697.295L1962.61 692.919C1962.21 699.682 1966.06 715.198 1966.06 715.198Z" fill="#C3604A"/>
<path d="M1957.44 697.295C1957.04 714.27 1947.76 718.249 1944.18 719.177L1942.06 710.026L1957.44 697.295Z" fill="#9A2B1E"/>
<path d="M1921.9 680.453C1924.82 689.869 1930.78 712.414 1944.18 711.353C1957.57 710.292 1964.34 688.41 1964.34 688.41C1964.34 688.41 1968.45 679.923 1966.46 671.833C1964.6 663.743 1921.9 680.453 1921.9 680.453Z" fill="#C3604A"/>
<path d="M1921.9 680.453C1918.05 678.596 1918.58 668.12 1926.14 659.234C1933.7 650.217 1946.7 649.686 1953.2 651.543C1959.7 653.399 1966.86 662.019 1966.99 674.883C1967.12 687.614 1963.01 692.256 1963.01 692.256C1963.01 692.256 1959.56 689.338 1959.56 688.808C1959.7 688.145 1964.2 683.503 1964.87 680.188C1965.53 676.872 1964.47 673.027 1960.89 672.231C1957.31 671.435 1954.13 675.679 1953.99 677.668C1953.86 679.657 1953.73 682.442 1952.67 682.84C1951.61 683.238 1950.54 680.851 1950.81 679.127C1951.21 677.403 1950.68 674.22 1948.95 674.22C1947.23 674.22 1934.23 686.421 1921.9 680.453Z" fill="#1D2954"/>
<path d="M1957.44 683.238C1957.04 683.238 1956.64 682.973 1956.64 682.442C1956.38 676.209 1960.76 674.485 1960.89 674.353C1961.29 674.22 1961.68 674.353 1961.82 674.751C1961.95 675.148 1961.82 675.546 1961.42 675.679C1961.29 675.679 1957.97 677.138 1958.1 682.177C1958.1 682.84 1957.84 683.105 1957.44 683.238Z" fill="#9A2B1E"/>
<path d="M1961.15 680.983C1960.89 680.983 1960.49 680.718 1960.36 680.453C1960.09 679.657 1958.63 679.127 1957.97 678.994C1957.57 678.862 1957.31 678.464 1957.44 678.066C1957.57 677.668 1957.97 677.403 1958.37 677.535C1958.63 677.668 1961.29 678.331 1961.82 680.055C1961.95 680.453 1961.68 680.851 1961.29 680.983H1961.15Z" fill="#9A2B1E"/>
<path d="M1936.75 701.672C1935.56 701.672 1933.7 701.141 1933.3 700.478C1933.17 700.213 1932.91 699.682 1934.5 697.163L1931.98 690.267C1931.85 689.869 1931.98 689.471 1932.38 689.338C1932.77 689.206 1933.17 689.338 1933.3 689.736L1935.96 696.897C1936.09 697.163 1935.96 697.428 1935.82 697.561C1935.29 698.356 1934.76 699.285 1934.63 699.682C1935.03 699.815 1936.49 700.213 1936.89 700.08C1937.28 699.948 1937.68 700.08 1937.81 700.478C1937.95 700.876 1937.81 701.274 1937.42 701.406C1937.42 701.672 1937.15 701.672 1936.75 701.672Z" fill="#9A2B1E"/>
<path d="M1937.68 705.783C1936.22 705.783 1935.16 705.385 1935.16 705.385C1934.76 705.252 1934.63 704.854 1934.76 704.457C1934.9 704.059 1935.29 703.926 1935.69 704.059C1935.82 704.191 1940.2 705.65 1942.99 701.274C1943.25 700.876 1943.65 700.876 1944.05 701.009C1944.44 701.274 1944.44 701.672 1944.31 702.069C1942.32 705.12 1939.67 705.783 1937.68 705.783Z" fill="#9A2B1E"/>
<path d="M1939.84 692.382C1940.77 692.148 1941.25 690.923 1940.93 689.645C1940.6 688.367 1939.59 687.52 1938.67 687.754C1937.75 687.988 1937.26 689.213 1937.59 690.491C1937.91 691.769 1938.92 692.616 1939.84 692.382Z" fill="#1D2954"/>
<path d="M1929.4 695.155C1930.32 694.921 1930.8 693.695 1930.48 692.417C1930.16 691.139 1929.15 690.293 1928.22 690.526C1927.3 690.76 1926.81 691.986 1927.14 693.264C1927.46 694.542 1928.47 695.388 1929.4 695.155Z" fill="#1D2954"/>
<path d="M1935.69 683.768C1936.35 683.105 1937.15 682.84 1938.08 682.575C1938.48 682.442 1939.01 682.442 1939.54 682.575C1940.07 682.707 1940.6 682.973 1941 683.37C1941.26 683.636 1941.26 684.166 1941 684.431C1940.86 684.564 1940.73 684.564 1940.73 684.564L1940.47 684.697C1939.8 684.829 1939.27 684.962 1938.61 684.962C1937.95 684.962 1937.15 685.095 1936.49 684.962H1936.35C1935.96 684.962 1935.56 684.564 1935.69 684.034C1935.43 684.166 1935.56 683.901 1935.69 683.768Z" fill="#1D2954"/>
<path d="M1923.76 686.686C1924.42 685.89 1925.21 685.492 1926.01 685.227C1926.41 685.095 1926.94 685.095 1927.47 685.095C1928 685.095 1928.53 685.36 1928.93 685.625C1929.33 685.89 1929.33 686.421 1929.06 686.686C1928.93 686.819 1928.93 686.819 1928.8 686.951L1928.53 687.084C1927.87 687.349 1927.34 687.482 1926.67 687.614C1926.01 687.747 1925.35 687.88 1924.55 687.88H1924.42C1924.02 687.88 1923.62 687.482 1923.62 687.084C1923.62 687.084 1923.62 686.819 1923.76 686.686Z" fill="#1D2954"/>
<path d="M838.145 387.372C838.145 387.372 830.188 388.83 831.514 395.063L834.167 396.124C834.167 395.992 840.002 390.554 838.145 387.372Z" fill="#9A2B1E"/>
<path d="M1061.47 614.012C1059.48 615.073 1057.36 616.002 1055.37 616.93C1032.43 627.407 1008.69 632.579 986.015 632.579C959.491 632.579 934.294 625.55 913.075 611.625C883.236 592.131 865.597 567.995 860.823 539.88C856.845 516.407 862.415 494.791 866.128 480.468C866.658 478.479 867.056 476.622 867.587 474.898C867.719 474.5 868.117 474.235 868.515 474.368C868.913 474.5 869.178 474.898 869.046 475.296C868.648 477.02 868.117 478.877 867.587 480.866C859.895 510.439 845.572 565.608 913.87 610.299C952.993 635.894 1005.64 637.883 1054.71 615.471C1054.98 615.339 1055.37 615.206 1055.64 615.073C1014.39 622.5 968.509 624.224 933.763 609.106C909.892 598.629 893.447 580.991 885.092 556.722C873.422 523.303 876.074 494.525 892.784 470.92C920.634 431.798 984.158 414.16 1034.69 414.16C1067.31 414.16 1094.1 425.167 1112.13 445.855C1130.83 467.339 1138.53 497.973 1133.75 532.056C1129.64 561.231 1103.78 591.6 1066.51 611.493L1061.47 614.012ZM1034.69 415.751C984.556 415.751 921.562 433.124 894.11 471.848C877.666 494.923 875.146 523.303 886.551 556.192C894.906 580.063 910.953 597.303 934.426 607.647C970.366 623.428 1018.51 620.776 1060.94 612.554C1099.8 593.059 1128.05 561.231 1132.16 531.791C1136.8 498.106 1129.37 468.002 1110.94 446.916C1093.17 426.493 1066.78 415.751 1034.69 415.751Z" fill="#1D458A"/>
<path d="M1080.7 594.65C1071.82 594.65 1064.26 592.794 1058.95 589.081C1043.44 577.941 1030.57 543.859 1022.22 510.837C991.717 537.626 950.208 561.364 904.72 561.364C890.132 561.364 875.013 558.977 859.762 553.407C818.518 538.289 809.898 503.676 809.765 477.285C809.765 448.905 819.712 415.088 837.084 384.321C853.662 355.146 874.085 333.795 891.723 327.296C900.741 323.981 908.963 321.196 916.523 319.074C921.562 310.322 927.53 302.365 934.559 295.336C957.899 271.863 991.717 259.53 1032.3 259.53C1071.95 259.53 1105.9 275.311 1133.09 306.476C1178.84 358.727 1195.82 444.396 1188.52 498.636C1183.48 536.697 1157.36 569.321 1118.63 586.03C1105.37 591.6 1091.98 594.65 1080.7 594.65ZM1023.68 509.644C1024.74 513.887 1025.8 517.998 1026.99 522.242C1033.89 546.378 1045.16 577.278 1059.88 587.887C1071.29 596.109 1094.63 594.783 1118.1 584.572C1125.93 581.124 1133.35 577.145 1139.98 572.504C1126.06 544.124 1076.06 506.991 1037.74 496.249C1033.49 500.626 1028.72 505.135 1023.68 509.644ZM1039.06 494.791C1077.52 505.93 1127.12 543.063 1141.31 571.443C1166.64 553.54 1183.22 527.414 1187.2 498.239C1194.36 444.396 1177.51 359.124 1132.03 307.271C1105.11 276.505 1071.55 260.856 1032.3 260.856C992.115 260.856 958.695 273.056 935.62 296.264C929.121 302.763 923.419 310.189 918.645 318.411C939.333 312.841 953.921 312.178 965.193 316.952C975.538 313.504 986.014 311.78 996.359 311.78C1023.01 311.78 1044.76 323.185 1059.09 344.802C1081.5 378.486 1080.84 426.891 1071.69 448.905C1067.31 460.31 1055.64 477.418 1039.06 494.791ZM915.594 320.931C908.566 322.92 900.874 325.572 892.386 328.623C856.977 341.752 811.357 416.149 811.357 477.153C811.357 503.013 819.977 537.095 860.293 551.816C915.329 571.973 965.326 549.826 997.685 527.812C1005.38 522.64 1013.6 516.142 1021.82 508.848C1020.36 502.88 1019.04 496.912 1017.84 491.21C969.702 480.07 898.089 462.83 898.752 391.615C898.884 382.067 899.68 372.916 901.139 364.031C878.594 389.493 865.332 415.751 862.945 421.587C861.221 425.83 861.354 432.328 863.078 438.827C863.21 439.224 862.945 439.622 862.547 439.755C862.149 439.888 861.751 439.622 861.619 439.224C859.63 432.328 859.629 425.565 861.486 421.056C863.873 415.221 877.533 388.035 900.741 362.175C901.006 361.909 901.272 361.644 901.537 361.246C904.322 346.526 909.096 332.999 915.594 320.931ZM1019.57 491.608C1020.63 496.78 1021.82 502.217 1023.28 507.654C1027.52 503.808 1031.9 499.697 1036.01 495.586C1030.97 494.26 1025.4 492.934 1019.57 491.608ZM1019.3 489.884C1019.3 490.016 1019.3 490.016 1019.3 489.884C1025.53 491.343 1031.37 492.669 1036.41 493.995C1036.67 494.128 1036.94 494.128 1037.2 494.26C1051.79 479.275 1064.52 462.83 1070.62 448.375C1079.64 426.759 1080.31 379.017 1058.16 345.73C1043.97 324.512 1022.75 313.372 996.624 313.372C988.402 313.372 978.455 314.565 967.58 317.881C975.272 321.727 981.24 328.092 986.545 337.243C1002.46 364.296 1011.74 418.669 1013.2 448.64C1013.6 457.923 1015.72 473.042 1019.3 489.884ZM902.996 361.909C901.272 371.325 900.343 381.271 900.211 391.615C899.547 461.239 969.702 478.346 1017.31 489.486C1014 473.042 1012.01 458.321 1011.48 448.64C1009.89 418.934 1000.74 364.827 984.953 338.038C979.384 328.623 973.15 322.124 964.928 318.676C946.759 324.909 925.275 337.508 902.996 361.909ZM917.716 320.268C911.218 331.805 906.576 344.802 903.659 358.992C922.358 338.834 942.383 324.909 962.939 317.616C951.932 313.77 937.609 314.698 917.716 320.268Z" fill="#1D458A"/>
<path d="M833.769 383.393C833.636 383.393 833.504 383.393 833.504 383.393C833.106 383.26 832.973 382.73 833.106 382.332C850.611 342.547 900.343 293.745 943.974 287.114C944.372 286.981 944.77 287.379 944.903 287.777C944.903 288.175 944.637 288.573 944.24 288.705C909.626 294.01 856.049 333.927 834.565 382.995C834.299 383.128 834.034 383.393 833.769 383.393Z" fill="#1D458A"/>
<path d="M1058.69 586.694C1052.85 586.694 1046.75 586.296 1040.52 585.633C1011.61 582.45 988.004 574.493 969.968 562.027C961.215 562.823 952.993 562.425 945.301 561.099C926.204 557.518 911.218 547.572 900.609 531.525C871.3 528.077 849.683 516.805 836.156 497.973C826.343 484.314 821.17 467.074 820.507 446.784C819.977 430.472 822.762 412.303 828.199 395.461C828.332 395.063 828.73 394.798 829.128 394.931C829.525 395.063 829.791 395.461 829.658 395.859C811.091 453.812 830.852 487.895 837.35 497.045C850.346 515.213 871.3 526.221 899.415 529.801C898.885 528.873 898.354 527.945 897.824 527.016C880.981 497.576 882.838 458.454 889.469 440.153C895.171 424.239 901.404 407.131 913.472 395.063C911.351 386.443 910.953 377.823 912.544 369.203C917.451 342.282 935.62 316.157 961.48 299.315C987.341 282.34 1017.84 276.77 1047.15 283.666C1057.1 286.053 1070.62 292.153 1079.51 308.2C1090.25 305.813 1101.66 305.548 1113.06 307.802C1124.2 309.924 1133.35 318.146 1139.72 331.673C1145.02 342.945 1147.81 357.003 1148.34 371.988C1148.87 372.651 1149.53 373.314 1150.06 374.11C1158.95 385.382 1163.99 397.45 1166.51 408.988C1167.57 409.386 1168.63 410.049 1169.69 410.579C1178.05 415.884 1181.76 464.024 1166.37 507.522C1165.05 511.368 1163.59 514.948 1162 518.529C1180.57 502.615 1186.8 487.497 1188.79 478.346C1188.92 477.948 1189.32 477.683 1189.72 477.816C1190.11 477.948 1190.38 478.346 1190.25 478.744C1188.12 488.558 1181.36 504.869 1160.41 521.844C1151.65 540.676 1139.85 555.661 1125.13 566.536C1106.83 579.798 1084.55 586.694 1058.69 586.694ZM972.222 561.762C989.86 573.432 1012.8 580.991 1040.65 584.041C1074.07 587.754 1102.06 581.389 1124.07 565.077C1137.86 554.866 1149 541.074 1157.62 523.701C1149.67 529.801 1139.98 536.034 1127.92 541.869C1114.12 548.765 1090.25 557.385 1064.79 561.231C1038.8 565.21 1015.85 563.486 997.818 556.192C988.932 559.109 980.445 560.833 972.222 561.762ZM1000.07 555.661C1044.76 572.504 1105.9 551.152 1127.25 540.676C1140.51 534.178 1150.99 527.414 1159.21 520.651C1161.2 516.274 1163.06 511.633 1164.78 506.859C1180.43 462.432 1175.53 416.017 1168.63 411.773C1167.97 411.375 1167.3 410.977 1166.64 410.712C1168.89 422.648 1168.36 433.92 1166.24 442.805C1160.01 468.665 1145.42 490.68 1127.25 501.554C1113.73 509.644 1098.74 511.765 1082.43 508.052C1072.35 516.672 1061.34 524.762 1049.94 531.923C1032.7 542.4 1015.85 550.489 1000.07 555.661ZM902.465 531.658C912.809 546.643 927.132 556.059 945.433 559.507C952.462 560.833 959.889 561.231 967.846 560.568C959.491 554.468 952.33 547.439 946.494 539.482C944.505 536.83 942.781 534.045 941.19 531.393C933.896 532.321 926.204 532.851 918.247 532.719C912.809 532.586 907.505 532.188 902.465 531.658ZM942.781 531.127C944.24 533.647 945.964 536.167 947.688 538.554C953.788 546.909 961.348 554.203 970.233 560.436C978.323 559.64 986.678 558.048 995.43 555.396C993.176 554.468 991.054 553.407 988.932 552.213C978.057 546.113 969.172 537.626 962.674 526.751C956.441 528.608 949.81 530.066 942.781 531.127ZM964.265 526.353C970.763 536.83 979.251 545.052 989.86 550.887C992.513 552.346 995.165 553.672 997.818 554.733C1014.13 549.694 1031.37 541.471 1049.01 530.464C1060.02 523.568 1070.62 515.744 1080.44 507.522C1080.17 507.522 1079.91 507.389 1079.78 507.389C1070.89 505.002 1063.33 499.167 1057.1 491.74C1053.25 492.934 1049.41 493.597 1045.69 493.597C1038 493.597 1031.64 491.873 1026.33 488.823C1010.68 504.074 990.126 518.396 964.265 526.353ZM901.404 530.067C906.709 530.73 912.412 530.995 918.247 531.127C925.939 531.26 933.365 530.862 940.394 529.934C920.369 494.128 925.939 450.364 930.315 426.759C929.519 425.83 928.724 424.769 927.928 423.841C921.164 415.088 916.39 405.938 913.738 396.655C902.465 408.325 896.63 424.637 890.795 440.683C884.297 458.852 882.573 497.31 899.15 526.353C899.813 527.547 900.609 528.873 901.404 530.067ZM931.641 428.217C927.397 451.956 922.358 494.791 942.118 529.669C949.014 528.74 955.645 527.282 962.011 525.425C954.982 513.224 950.473 498.239 948.881 480.601C947.555 467.472 947.688 455.271 949.014 444.264C942.648 439.622 936.813 434.185 931.641 428.217ZM950.208 445.325C949.014 456.067 949.014 467.737 950.208 480.468C951.932 498.106 956.308 512.959 963.337 525.027C989.065 517.203 1009.36 503.145 1024.87 487.895C1015.19 481.794 1009.22 471.318 1005.24 460.576C998.878 462.167 993.309 462.963 988.667 462.698C978.986 462.034 964.133 455.669 950.208 445.325ZM1083.75 506.726C1099.14 510.041 1113.46 507.787 1126.32 500.228C1144.23 489.619 1158.55 468.002 1164.65 442.54C1166.77 433.655 1167.3 422.25 1164.92 410.182C1159.48 408.192 1152.72 408.192 1145.16 409.518C1142.11 425.167 1136.93 440.418 1129.77 453.414C1120.09 470.654 1103.65 489.619 1083.75 506.726ZM1058.69 491.077C1064.92 498.371 1071.95 503.676 1080.17 505.798C1080.7 505.93 1081.37 506.063 1081.9 506.196C1102.06 489.088 1118.63 469.991 1128.45 452.353C1135.47 439.622 1140.65 424.637 1143.56 409.386C1134.41 411.11 1124.07 414.558 1113.46 418.006C1111.07 418.802 1108.55 419.597 1106.03 420.393C1103.91 436.572 1097.55 452.751 1088 466.278C1079.38 478.611 1069.17 487.099 1058.69 491.077ZM1027.52 487.629C1032.56 490.414 1038.53 492.006 1045.69 492.006C1049.14 492.006 1052.59 491.475 1056.04 490.282C1051.13 484.049 1047.02 476.755 1043.57 469.328C1038.93 475.296 1033.62 481.529 1027.52 487.629ZM1044.63 467.87C1048.34 476.092 1052.59 483.651 1057.5 489.751C1079.78 481.662 1099.93 452.486 1104.31 421.189C1102.59 421.719 1100.73 422.382 1099.01 422.913C1089.72 425.83 1077.39 431.268 1064.13 437.235C1058.69 447.447 1052.32 457.791 1044.63 467.87ZM1006.97 460.178C1011.21 471.45 1017.05 481.264 1026.2 486.834C1032.56 480.468 1038.13 473.97 1042.91 467.737C1040.26 461.637 1038 455.404 1036.14 449.569C1025.8 453.945 1015.72 457.658 1006.97 460.178ZM1037.6 448.905C1039.46 454.873 1041.58 460.708 1043.97 466.278C1050.86 457.128 1056.83 447.712 1061.87 438.296C1061.61 438.429 1061.21 438.561 1060.94 438.694C1053.25 442.009 1045.43 445.59 1037.6 448.905ZM950.473 443.601C964.398 454.077 979.118 460.443 988.932 461.106C993.309 461.371 998.746 460.576 1004.85 459.117C1002.59 452.751 1000.87 446.253 999.409 440.551C998.083 435.379 997.42 429.809 996.624 423.841C994.767 409.121 992.911 394.002 980.842 386.045C977.129 388.963 973.548 392.278 970.1 396.124C959.491 408.325 952.86 424.239 950.473 443.601ZM982.036 385.117C994.369 393.605 996.359 409.253 998.083 423.708C998.746 429.544 999.542 435.113 1000.74 440.153C1002.33 446.518 1004.18 452.751 1006.31 458.586C1015.06 456.199 1025.27 452.353 1035.61 447.977C1034.55 444.396 1033.62 441.081 1032.83 437.898C1026.33 412.303 1024.21 386.443 1025.14 368.805C1012.94 370.529 996.491 374.64 982.036 385.117ZM1026.73 368.805C1025.67 389.228 1028.85 420.128 1037.21 447.447C1044.9 444.131 1052.72 440.683 1060.28 437.235C1061.21 436.837 1062.14 436.44 1063.07 436.042C1074.34 414.425 1081.1 393.074 1084.28 375.834C1067.71 367.214 1046.89 367.214 1042.64 367.612C1041.98 367.744 1040.92 367.744 1039.59 367.744C1036.67 367.877 1032.17 368.142 1026.73 368.805ZM931.906 426.361C937.079 432.461 942.914 437.898 949.014 442.54C951.666 423.311 958.297 407.397 968.907 395.196C972.222 391.483 975.67 388.167 979.384 385.382C974.079 382.332 966.918 380.476 957.104 380.476C954.717 380.476 952.462 380.608 950.208 380.741C938.537 395.329 935.222 409.253 934.294 414.027C934.028 415.354 933.763 417.078 933.365 418.934C932.967 421.056 932.437 423.443 931.906 426.361ZM1085.74 376.63C1082.56 393.472 1076.06 414.027 1065.32 434.981C1077.92 429.278 1089.72 424.106 1098.61 421.321C1100.6 420.658 1102.59 420.128 1104.57 419.465C1104.97 415.884 1105.24 412.303 1105.24 408.723C1105.24 397.981 1101.39 388.963 1093.7 382.2C1091.31 380.078 1088.66 378.221 1085.74 376.63ZM915.064 395.461C917.982 406.601 923.817 416.017 929.121 422.913C929.652 423.576 930.182 424.239 930.58 424.769C930.978 422.515 931.376 420.393 931.774 418.536C932.172 416.68 932.437 414.956 932.702 413.63C933.498 408.855 936.813 395.329 947.953 380.873C933.498 382.332 922.888 387.769 915.064 395.461ZM1086.01 375.038C1089.19 376.762 1092.11 378.752 1094.76 381.139C1102.72 388.3 1106.83 397.583 1106.83 408.855C1106.83 412.171 1106.7 415.619 1106.3 419.067C1108.55 418.271 1110.81 417.608 1113.06 416.812C1123.94 413.232 1134.55 409.651 1143.96 408.06C1146.22 396.257 1147.15 384.189 1146.75 372.651C1136.14 360.185 1118.1 346.526 1088.13 341.089C1088.53 347.056 1088.53 353.687 1088 360.848C1087.6 365.092 1086.94 369.866 1086.01 375.038ZM1154.7 406.866C1158.15 406.866 1161.47 407.264 1164.52 408.325C1162 397.318 1157.09 385.78 1148.6 375.038C1148.47 374.906 1148.34 374.64 1148.21 374.508C1148.47 385.382 1147.54 396.655 1145.42 407.662C1148.74 407.131 1151.79 406.866 1154.7 406.866ZM1022.09 282.34C1001.13 282.34 980.445 288.573 962.011 300.641C936.681 317.35 918.645 343.078 913.87 369.468C912.279 378.221 912.809 386.311 914.666 393.737C923.021 385.913 934.028 380.476 949.545 379.017C953.258 374.508 957.634 369.866 963.072 365.357C981.24 350.372 1004.98 341.221 1034.02 338.038C1043.31 323.451 1059.35 312.841 1077.79 308.332C1069.17 293.082 1056.17 287.246 1046.62 284.992C1038.4 283.268 1030.31 282.34 1022.09 282.34ZM957.104 378.884C967.448 378.884 975.007 380.873 980.577 384.321C995.563 373.182 1012.67 369.071 1025.27 367.479C1025.53 362.307 1026.2 357.931 1026.99 354.483C1028.19 349.311 1030.18 344.537 1032.83 340.028C1004.71 343.343 981.638 352.361 963.867 366.949C958.96 370.927 954.849 375.038 951.534 379.149C953.391 378.884 955.247 378.884 957.104 378.884ZM1047.02 365.888C1055.9 365.888 1071.69 367.744 1084.55 374.243C1085.48 369.336 1086.01 364.694 1086.27 360.583C1086.8 353.289 1086.8 346.658 1086.41 340.558C1078.18 339.099 1069.03 338.304 1058.95 338.304C1050.47 338.304 1042.51 338.702 1034.82 339.497C1031.9 344.139 1029.78 349.178 1028.58 354.483C1027.79 357.798 1027.26 362.042 1026.86 366.949C1032.17 366.286 1036.67 366.153 1039.59 366.02C1040.92 366.02 1041.98 365.888 1042.51 365.888C1043.7 365.888 1045.16 365.888 1047.02 365.888ZM1087.87 339.365C1117.31 344.669 1135.47 357.798 1146.48 370.132C1145.82 356.074 1143.03 342.945 1137.99 332.336C1131.89 319.34 1123.14 311.383 1112.53 309.393C1101.52 307.272 1090.38 307.537 1080.04 309.659C1084.02 317.218 1086.8 326.899 1087.87 339.365ZM1058.95 336.845C1069.03 336.845 1078.05 337.641 1086.27 338.967C1085.21 326.766 1082.3 317.218 1078.45 309.791C1060.55 314.035 1045.03 324.114 1035.88 337.906C1043.17 337.243 1050.86 336.845 1058.95 336.845Z" fill="#1D458A"/>
<path d="M888.673 609.106C833.238 609.106 810.163 513.224 809.898 512.296C809.765 511.898 810.03 511.5 810.428 511.368C810.826 511.235 811.224 511.5 811.357 511.898C811.622 512.826 834.299 607.514 888.54 607.514C888.673 607.514 888.805 607.514 888.938 607.514C934.559 607.116 983.362 561.629 983.362 494.791C983.362 434.981 966.917 406.601 926.602 396.655C869.708 382.597 848.755 394.798 831.912 420.393C808.704 455.404 818.385 523.303 862.547 552.611C862.945 552.876 862.945 553.274 862.812 553.672C862.547 554.07 862.149 554.07 861.751 553.937C816.927 524.231 807.113 455.271 830.719 419.597C853.529 384.984 883.368 384.454 927.132 395.196C968.244 405.275 985.086 434.185 985.086 494.791C985.086 549.561 946.494 608.575 889.203 609.106C888.938 609.106 888.805 609.106 888.673 609.106Z" fill="#1D458A"/>
<path d="M868.25 475.826H868.117C867.719 475.694 867.454 475.296 867.587 474.898C868.25 472.113 868.648 470.257 868.913 468.533C868.913 468.135 869.311 467.87 869.841 467.87C870.239 467.87 870.504 468.267 870.504 468.798C870.239 470.522 869.841 472.511 869.178 475.296C868.913 475.694 868.648 475.826 868.25 475.826Z" fill="#1D458A"/>
<path d="M625.957 912.664C625.692 912.531 625.426 912.399 625.294 912.133L620.785 905.105C620.387 904.442 620.519 903.513 621.315 902.983C621.978 902.585 622.907 902.718 623.437 903.513L627.946 910.542C628.344 911.205 628.211 912.133 627.416 912.664C626.885 912.796 626.355 912.796 625.957 912.664Z" fill="#052569"/>
<path d="M687.492 953.244C687.492 955.631 657.122 952.714 656.061 952.316L618.663 934.678C616.939 933.882 616.276 931.893 617.071 930.302L617.469 929.373L619.989 923.803L620.917 921.682L625.294 912.001L626.753 908.685L630.201 900.861L665.477 916.112C666.936 917.173 667.201 919.162 667.731 921.947C667.997 922.875 668.262 923.803 668.527 924.997C668.925 926.191 669.455 927.517 670.251 928.975C670.516 929.506 670.914 930.169 671.312 930.699C671.577 930.965 671.71 931.363 671.975 931.628C673.036 933.087 674.097 934.147 675.158 935.076C675.954 935.739 676.882 936.402 677.678 936.932C682.319 939.983 686.563 941.441 687.359 950.194C687.491 950.99 687.492 952.051 687.492 953.244Z" fill="#1D458A"/>
<path d="M664.416 951.785C664.151 952.183 663.62 952.316 663.222 952.051L663.09 951.918C661.498 950.724 659.376 948.072 656.592 944.889C652.083 939.319 645.717 931.893 639.086 927.782C629.007 921.814 620.652 923.538 620.652 923.538C620.387 923.538 620.254 923.538 619.989 923.538L620.917 921.416C623.304 921.018 630.996 920.488 640.147 925.925C647.176 930.169 653.541 937.861 658.183 943.431C660.703 946.481 662.825 949 664.283 950.194C664.681 950.724 664.814 951.388 664.416 951.785Z" fill="#052569"/>
<path d="M662.294 929.771C662.162 929.771 662.029 929.639 661.896 929.506C661.233 928.976 660.968 928.047 661.498 927.384C661.896 926.854 665.212 922.212 669.19 921.151C669.986 920.886 670.782 921.417 671.047 922.212C671.312 923.008 670.782 923.804 669.986 924.069C667.466 924.732 664.814 927.915 664.018 928.976C663.62 929.771 662.825 930.036 662.294 929.771Z" fill="#E6F3FC"/>
<path d="M667.599 934.943C667.466 934.943 667.334 934.811 667.201 934.678C666.538 934.147 666.273 933.219 666.803 932.556C667.201 932.026 670.517 927.384 674.495 926.323C675.291 926.058 676.086 926.588 676.352 927.384C676.617 928.18 676.086 928.975 675.291 929.241C672.771 929.904 670.119 933.087 669.323 934.147C668.925 934.943 668.129 935.208 667.599 934.943Z" fill="#E6F3FC"/>
<path d="M672.638 940.778C672.506 940.778 672.373 940.646 672.24 940.513C671.577 939.983 671.312 939.054 671.843 938.391C672.24 937.861 675.556 933.219 679.534 932.158C680.33 931.893 681.126 932.424 681.391 933.219C681.656 934.015 681.126 934.811 680.33 935.076C677.81 935.739 675.158 938.922 674.362 939.983C673.964 940.778 673.169 941.044 672.638 940.778Z" fill="#E6F3FC"/>
<path d="M758.309 636.292C758.309 636.292 758.575 643.984 739.876 647.829L738.549 627.141C738.682 627.009 756.851 628.865 758.309 636.292Z" fill="#1D2954"/>
<path d="M649.165 643.055H708.578C708.578 643.055 707.384 858.424 682.319 895.424C676.749 909.614 672.108 919.029 672.108 919.029C642.932 918.632 627.681 903.513 627.681 903.513C627.681 903.513 644.523 835.481 649.165 802.725C653.806 769.969 648.634 720.37 649.165 691.725C649.563 667.457 649.297 648.36 649.165 643.055C649.165 642.127 649.165 641.597 649.165 641.597V643.055Z" fill="#FA9746"/>
<path d="M696.112 666.661V850.334C692.531 866.911 686.961 882.958 682.187 895.424C690.542 829.248 655.133 666.661 655.133 666.661H696.112Z" fill="#F5821F"/>
<path d="M704.732 938.789C704.467 938.789 704.201 938.656 703.936 938.524L696.907 934.148C696.244 933.75 695.979 932.689 696.377 932.026C696.775 931.363 697.836 931.097 698.499 931.495L705.528 935.872C706.191 936.269 706.456 937.33 706.058 937.993C705.66 938.524 705.262 938.789 704.732 938.789Z" fill="#052569"/>
<path d="M783.772 957.886C783.109 959.079 782.313 960.008 781.65 960.671C780.854 961.467 779.926 961.864 778.865 961.864L707.384 961.732C705.527 961.732 704.069 960.273 704.069 958.416V957.355L703.936 951.255V949.001L703.538 926.191L741.865 924.997C749.954 926.588 779.661 946.348 783.507 951.255C785.363 953.51 784.833 955.897 783.772 957.886Z" fill="#1D458A"/>
<path d="M756.188 957.886C756.055 958.416 755.657 958.682 755.127 958.682C754.994 958.682 754.994 958.682 754.862 958.682C752.872 958.284 749.822 956.825 745.976 955.101C739.478 952.051 730.592 947.94 722.901 947.144C711.23 945.95 704.467 951.122 704.334 951.255C704.202 951.388 703.936 951.52 703.804 951.52V949.266C705.793 947.94 712.556 944.226 723.166 945.287C731.256 946.083 740.406 950.327 746.905 953.509C750.485 955.234 753.535 956.56 755.259 956.957C756.055 956.825 756.32 957.355 756.188 957.886Z" fill="#052569"/>
<path d="M783.772 957.886C783.109 959.079 782.313 960.008 781.65 960.671C780.987 961.467 779.926 961.864 778.865 961.864H707.384C705.528 961.864 704.069 960.406 704.069 958.549V957.488L783.772 957.886Z" fill="#FA9746"/>
<path d="M753.535 940.248C753.403 940.248 753.27 940.248 753.137 940.115C752.342 939.85 751.944 939.054 752.076 938.259C752.209 937.595 754.066 932.158 757.514 930.036C758.177 929.638 759.238 929.771 759.636 930.567C760.033 931.23 759.901 932.291 759.105 932.689C756.983 934.015 755.392 937.861 754.994 939.187C754.861 939.85 754.198 940.248 753.535 940.248Z" fill="#E6F3FC"/>
<path d="M760.166 943.563C760.033 943.563 759.901 943.563 759.768 943.431C758.973 943.165 758.575 942.37 758.707 941.574C758.84 940.911 760.697 935.474 764.145 933.352C764.808 932.954 765.869 933.087 766.267 933.882C766.664 934.545 766.532 935.606 765.736 936.004C763.614 937.33 762.023 941.176 761.625 942.502C761.36 943.165 760.829 943.563 760.166 943.563Z" fill="#E6F3FC"/>
<path d="M766.797 947.674C766.664 947.674 766.532 947.674 766.399 947.542C765.603 947.276 765.205 946.481 765.338 945.685C765.471 945.022 767.327 939.585 770.776 937.463C771.439 937.065 772.5 937.198 772.897 937.993C773.295 938.656 773.163 939.717 772.367 940.115C770.245 941.441 768.654 945.287 768.256 946.613C767.99 947.276 767.327 947.674 766.797 947.674Z" fill="#E6F3FC"/>
<path d="M755.524 926.589C755.524 926.589 726.349 940.911 698.764 926.589C698.764 926.589 692.664 761.349 675.688 727.001C658.846 692.654 651.154 652.339 652.082 642.525L743.987 627.805C743.987 627.805 743.987 628.6 744.119 630.192C744.252 632.579 744.385 636.557 744.517 641.729C745.578 669.976 748.098 734.163 749.291 765.858C750.883 807.367 755.524 926.589 755.524 926.589Z" fill="#FA9746"/>
<path d="M744.65 641.862C739.08 641.862 732.184 642.525 724.094 644.912C703.671 651.012 669.853 648.758 669.853 648.758L744.119 630.192C744.252 632.711 744.385 636.557 744.65 641.862Z" fill="#F5821F"/>
<path d="M806.317 417.873C806.317 417.873 815.866 408.855 816.794 403.153C817.723 397.45 826.608 385.78 828.597 384.321C831.25 382.465 834.3 384.852 833.637 387.372C832.974 389.361 827.271 394.268 828.332 395.992C829.525 397.716 836.952 390.554 838.146 387.372C838.146 387.372 841.328 386.709 842.257 391.615C842.257 391.615 845.705 394.533 845.44 397.45C845.174 400.368 844.511 401.827 844.511 401.827C844.511 401.827 847.296 404.081 845.44 408.458C845.44 408.458 847.031 410.314 845.042 414.823C843.053 419.332 837.748 422.913 834.432 426.095C831.117 429.278 827.138 435.644 827.138 435.644C827.138 435.644 811.224 431.4 806.317 417.873Z" fill="#C3604A"/>
<path d="M835.493 404.877C835.228 404.877 834.963 404.744 834.83 404.612C834.565 404.214 834.697 403.816 834.963 403.551C840.931 399.307 841.461 391.748 841.461 391.748C841.461 391.35 841.859 390.952 842.257 391.085C842.655 391.085 843.052 391.483 842.92 391.881C842.92 392.278 842.257 400.235 835.758 404.877C835.758 404.744 835.626 404.877 835.493 404.877Z" fill="#9A2B1E"/>
<path d="M838.809 409.518C838.543 409.518 838.411 409.386 838.278 409.253C838.013 408.988 838.013 408.457 838.411 408.192C841.859 405.407 843.848 401.561 843.981 401.561C844.113 401.164 844.644 401.031 845.042 401.296C845.439 401.561 845.572 401.959 845.307 402.357C845.174 402.49 843.052 406.468 839.472 409.518C839.206 409.518 839.074 409.518 838.809 409.518Z" fill="#9A2B1E"/>
<path d="M841.726 414.558C841.461 414.558 841.328 414.425 841.063 414.293C840.798 413.895 840.798 413.497 841.195 413.232C844.378 410.712 844.643 408.59 844.643 408.59C844.643 408.192 845.041 407.927 845.439 407.927C845.837 407.927 846.102 408.325 846.102 408.723C846.102 408.855 845.837 411.508 841.991 414.425C841.991 414.425 841.858 414.558 841.726 414.558Z" fill="#9A2B1E"/>
<path d="M836.156 459.515C836.156 459.515 842.257 453.414 843.185 451.292C844.113 449.171 845.572 442.407 850.081 441.081C854.59 439.622 863.21 441.081 863.873 442.672C863.873 442.672 865.995 440.153 869.045 440.551C871.963 440.948 875.544 443.733 874.483 446.518C874.483 446.518 877.4 449.701 874.748 452.884C874.748 452.884 877.4 455.536 876.472 457.393C875.544 459.249 873.554 461.504 873.554 461.504C873.554 461.504 875.278 464.952 873.289 467.206C871.433 469.461 864.934 471.185 864.138 469.461C864.138 469.461 850.744 478.479 848.622 483.253C848.622 483.253 836.952 471.185 836.421 467.339C835.626 463.493 836.156 459.515 836.156 459.515Z" fill="#C3604A"/>
<path d="M853.662 462.034C853.529 462.034 853.397 462.034 853.264 461.902C852.866 461.637 852.734 461.239 852.999 460.841C855.519 456.332 853.662 450.629 853.529 450.629L853.264 449.834L854.06 449.701C860.558 448.242 862.415 445.457 862.813 444.662C863.21 443.999 863.21 443.336 863.078 442.938C862.945 442.54 863.078 442.142 863.476 441.877C863.873 441.744 864.271 441.877 864.537 442.275C864.934 443.07 864.802 444.131 864.271 445.325C863.608 446.518 861.486 449.436 855.253 451.027C855.784 452.884 856.58 457.658 854.325 461.769C854.192 461.902 853.927 462.034 853.662 462.034Z" fill="#9A2B1E"/>
<path d="M866.393 460.31C865.332 460.31 864.404 459.913 863.874 458.984C862.017 456.199 864.404 452.751 864.404 452.619C864.669 452.221 865.067 452.221 865.465 452.353C865.863 452.619 865.863 453.016 865.73 453.414C865.73 453.414 863.874 456.067 865.2 458.056C865.465 458.454 865.863 458.586 866.526 458.719C868.25 458.719 871.433 456.73 874.085 452.353C874.35 451.956 874.748 451.823 875.146 452.088C875.544 452.353 875.676 452.751 875.411 453.149C872.626 457.525 869.178 460.178 866.393 460.31Z" fill="#9A2B1E"/>
<path d="M867.984 465.085C867.587 465.085 867.189 465.085 866.924 464.952C866.26 464.819 865.73 464.421 865.465 463.891C864.669 462.3 865.73 459.515 865.863 459.249C865.995 458.852 866.526 458.719 866.924 458.852C867.321 458.984 867.454 459.515 867.321 459.913C866.924 460.841 866.526 462.565 866.924 463.228C867.056 463.361 867.189 463.493 867.321 463.493C869.311 463.891 871.565 462.432 872.759 460.973C873.024 460.708 873.555 460.576 873.82 460.841C874.085 461.106 874.218 461.637 873.952 461.902C872.626 463.493 870.372 465.085 867.984 465.085Z" fill="#9A2B1E"/>
<path d="M863.873 470.257C863.608 470.257 863.343 470.124 863.21 469.859C861.619 466.543 864.404 464.024 866.128 463.228C866.526 463.095 866.924 463.228 867.189 463.626C867.321 464.024 867.189 464.422 866.791 464.687C866.658 464.819 863.343 466.411 864.669 469.328C864.802 469.726 864.669 470.124 864.271 470.389C864.139 470.124 864.006 470.257 863.873 470.257Z" fill="#9A2B1E"/>
<path d="M704.334 501.289L702.08 503.278L689.348 514.418L677.413 495.188L684.707 494.128L698.631 492.138L704.334 501.289Z" fill="#C3604A"/>
<path d="M704.334 501.289L702.08 503.278L684.707 494.128L698.631 492.138L704.334 501.289Z" fill="#9A2B1E"/>
<path d="M701.284 473.439C701.947 472.644 703.008 470.92 702.477 470.389C702.079 469.991 700.355 469.859 699.162 469.726C693.857 461.371 686.828 455.669 686.828 455.669L660.172 489.088C660.172 489.088 703.273 507.654 705.13 490.149C705.793 484.314 704.069 478.611 701.284 473.439Z" fill="#C3604A"/>
<path d="M660.172 442.407C649.828 446.518 651.95 454.741 650.226 456.465C648.634 458.189 643.595 459.78 642.932 467.87C642.269 475.561 645.982 476.092 645.982 479.54C645.982 482.988 642.932 488.16 644.921 493.862C647.043 499.83 654.867 499.697 656.459 500.891C658.05 502.085 662.161 507.389 670.384 507.124C678.606 506.859 680.197 501.156 679.8 496.78C679.402 492.404 680.993 489.884 680.595 489.353C680.198 488.823 675.158 490.812 670.782 487.629C666.405 484.314 668.395 480.07 669.721 479.275C670.914 478.479 674.893 479.805 675.954 478.877C677.015 477.948 675.423 474.633 676.352 473.97C677.28 473.307 680.993 473.705 682.85 472.511C684.839 471.318 681.391 464.819 682.85 463.626C684.309 462.432 689.216 458.586 688.95 454.475C688.95 454.475 690.144 451.69 688.287 447.845C686.431 443.999 677.015 446.253 675.954 445.59C674.76 445.06 668.66 439.092 660.172 442.407Z" fill="#1D2954"/>
<path d="M697.836 483.386C697.173 483.386 696.642 482.855 696.642 482.192C696.642 481.529 697.173 480.999 697.836 480.999C697.968 480.999 700.886 480.866 703.14 478.877C703.671 478.479 704.467 478.479 704.864 479.009C705.262 479.54 705.262 480.335 704.732 480.733C701.814 483.386 697.968 483.386 697.836 483.386Z" fill="#9A2B1E"/>
<path d="M678.871 482.59C675.821 480.733 671.047 482.059 670.782 482.059C670.384 482.192 670.119 482.59 670.251 483.12C670.384 483.518 670.782 483.784 671.312 483.651C671.312 483.651 672.373 483.386 673.699 483.253C673.699 484.181 673.965 485.507 674.76 486.701C674.893 486.966 675.158 487.099 675.423 487.099C675.556 487.099 675.689 487.099 675.954 486.966C676.352 486.701 676.352 486.171 676.086 485.773C675.556 484.977 675.291 483.916 675.291 483.253C676.219 483.253 677.28 483.518 677.943 484.049C678.076 484.181 678.208 484.181 678.341 484.181C678.606 484.181 678.871 484.049 679.004 483.783C679.402 483.386 679.269 482.855 678.871 482.59Z" fill="#9A2B1E"/>
<path d="M695.34 470.33C695.91 469.76 695.574 468.501 694.59 467.517C693.606 466.533 692.347 466.197 691.777 466.766C691.207 467.336 691.543 468.596 692.527 469.58C693.511 470.564 694.771 470.899 695.34 470.33Z" fill="#1D2954"/>
<path d="M687.226 468.93C687.094 468.93 687.094 468.93 687.226 468.93C686.165 468.93 685.502 468.135 685.635 467.206C685.768 464.156 687.624 462.432 687.89 462.167C688.553 461.504 689.614 461.637 690.277 462.3C690.94 462.963 690.807 464.024 690.144 464.554C690.144 464.554 689.083 465.615 688.95 467.339C688.818 468.267 688.022 468.93 687.226 468.93Z" fill="#1D2954"/>
<path d="M828.199 436.44C828.199 436.44 807.511 421.586 804.46 414.956C804.46 414.956 764.277 446.12 749.424 458.454C734.571 470.787 639.351 524.231 646.38 643.188C646.38 643.188 658.316 652.736 690.409 647.034C722.37 641.331 751.148 628.998 758.442 636.292C758.442 636.292 750.75 562.557 753.403 554.6C753.403 554.6 839.737 507.124 852.733 486.303C852.733 486.303 838.145 468.002 835.626 457.791L784.966 486.701C784.966 486.701 816.396 457.393 828.199 436.44Z" fill="#1D458A"/>
<path d="M727.277 554.07C727.144 554.07 726.879 554.07 726.747 553.937C725.951 553.672 725.553 552.744 725.818 551.948C736.162 523.038 782.048 486.966 784.038 485.375C784.701 484.844 785.629 484.977 786.159 485.64C786.69 486.303 786.557 487.232 785.894 487.762C785.364 488.16 738.815 524.895 728.736 553.009C728.471 553.672 727.94 554.07 727.277 554.07Z" fill="#052569"/>
<path d="M752.739 561.762C751.944 561.762 751.281 561.231 751.281 560.436C751.148 559.242 748.363 531.525 750.22 517.07C750.352 516.274 751.148 515.611 751.944 515.744C752.739 515.877 753.402 516.672 753.27 517.468C751.413 531.658 754.198 559.905 754.331 560.17C754.463 560.966 753.8 561.762 753.005 561.894C752.872 561.762 752.872 561.762 752.739 561.762Z" fill="#052569"/>
<path d="M687.492 953.244C687.492 955.632 657.122 952.714 656.061 952.316L618.663 934.678C616.939 933.882 616.276 931.893 617.071 930.302L617.469 929.374C617.469 929.374 653.674 947.277 656.989 948.338C657.52 948.47 658.581 948.735 659.907 949.001C660.835 949.133 661.896 949.266 663.09 949.531C671.179 950.725 684.441 951.786 687.359 950.062C687.491 950.99 687.492 952.051 687.492 953.244Z" fill="#FA9746"/>
<path d="M828.862 396.389C828.73 396.389 828.73 396.389 828.597 396.389C828.199 396.257 827.934 395.859 828.067 395.461C829.26 391.615 830.586 388.035 832.045 384.454C832.311 383.791 832.708 382.995 832.974 382.332C833.106 381.934 833.637 381.802 834.035 381.934C834.432 382.067 834.565 382.597 834.432 382.995C834.167 383.658 833.769 384.454 833.504 385.117C832.045 388.565 830.719 392.146 829.525 395.992C829.393 396.257 829.128 396.389 828.862 396.389Z" fill="#1D458A"/>
<path d="M864.669 445.723C864.404 445.723 864.138 445.59 864.006 445.325C863.077 443.468 862.282 441.346 861.751 439.225C861.619 438.827 861.884 438.429 862.282 438.296C862.68 438.164 863.078 438.429 863.21 438.827C863.741 440.816 864.536 442.805 865.465 444.662C865.597 445.06 865.465 445.457 865.067 445.723C864.934 445.723 864.802 445.723 864.669 445.723Z" fill="#1D458A"/>
<path d="M864.536 453.945C863.077 453.945 862.149 453.282 861.751 452.221C860.16 448.242 865.597 443.866 865.862 443.601C866.128 443.336 866.658 443.336 866.923 443.733C867.189 443.999 867.188 444.529 866.791 444.794C865.464 445.855 862.149 449.171 863.21 451.558C863.343 451.823 863.608 452.221 864.536 452.354C867.189 452.354 872.228 449.171 873.554 446.121C873.687 445.723 874.217 445.59 874.615 445.723C875.013 445.855 875.146 446.386 875.013 446.784C873.554 450.099 868.117 453.945 864.536 453.945Z" fill="#9A2B1E"/>
<path d="M272.53 958.682H190.837C157.152 881.499 160.335 813.998 174.127 763.206C174.127 763.073 174.127 762.94 174.26 762.94C174.525 761.747 174.923 760.553 175.321 759.36C192.296 699.417 223.594 663.611 223.594 663.611C348.387 855.374 272.53 958.682 272.53 958.682Z" fill="#CAE7FC"/>
<path d="M251.444 948.205C251.311 954.968 250.913 958.682 250.913 958.682H169.221C166.833 957.355 164.446 955.897 162.059 954.438C108.349 921.284 75.7248 871.288 55.9648 822.75C55.4343 821.557 54.9038 820.23 54.506 819.037C52.9146 814.926 51.3231 810.815 49.8644 806.704C49.4665 805.51 48.936 804.184 48.5382 802.99C48.4056 802.725 48.4056 802.46 48.2729 802.195C47.8751 801.134 47.6098 800.205 47.3446 799.277C46.9468 798.084 46.5489 797.023 46.2837 795.829C44.9575 791.585 43.6313 787.342 42.4377 783.231C41.7747 780.976 41.2442 778.854 40.5811 776.6C28.115 730.317 26.1257 691.593 25.7279 678.994C25.5953 676.209 25.7279 674.751 25.7279 674.751C26.391 675.016 26.9214 675.148 27.5845 675.414C90.4454 697.03 135.668 726.073 168.292 757.105C170.414 759.094 172.403 761.084 174.393 763.073C175.851 764.532 177.31 766.123 178.769 767.582C246.802 839.46 251.974 919.958 251.444 948.205Z" fill="#CAE7FC"/>
<path d="M205.16 793.177L175.321 877.918" stroke="#E6F3FC" stroke-width="3" stroke-miterlimit="10" stroke-linecap="round"/>
<path d="M219.085 958.682H215.239C203.569 924.599 173.464 876.194 140.31 828.585C139.382 827.259 138.453 826.066 137.657 824.739C134.873 820.761 132.088 816.782 129.17 812.804C128.242 811.478 127.313 810.152 126.385 808.958C85.5386 752.331 43.1009 699.948 25.5953 678.729C25.4627 675.944 25.5953 674.485 25.5953 674.485C26.2584 674.751 26.7889 674.883 27.452 675.148C44.4271 695.969 88.9867 750.607 131.292 809.754C131.557 810.019 131.69 810.284 131.955 810.682C135.536 815.589 138.984 820.496 142.432 825.535C142.697 825.8 142.83 826.198 143.095 826.463C176.912 874.736 207.547 924.201 219.085 958.682Z" fill="#E6F3FC"/>
<path d="M132.087 811.345C131.955 812.273 131.159 813.069 130.231 813.069H130.098L129.17 812.936L49.8643 806.703C49.4664 805.51 48.9359 804.184 48.5381 802.99L126.385 809.091L130.363 809.356C130.761 809.356 131.026 809.488 131.292 809.754C131.557 810.019 131.822 810.284 131.955 810.682C131.955 810.815 132.087 811.08 132.087 811.345Z" fill="#E6F3FC"/>
<path d="M143.227 826.994C143.095 827.922 142.299 828.718 141.371 828.718H141.238H140.31L55.9647 822.883C55.4342 821.689 54.9037 820.363 54.5059 819.169L137.657 825.004L141.503 825.27C141.901 825.27 142.166 825.402 142.432 825.668C142.697 825.933 142.962 826.198 143.095 826.596C143.227 826.596 143.227 826.728 143.227 826.994Z" fill="#E6F3FC"/>
<path d="M223.461 663.611C223.461 663.611 220.411 754.32 231.02 831.635" stroke="#E6F3FC" stroke-width="3" stroke-miterlimit="10" stroke-linecap="round"/>
<path d="M266.43 731.51C266.43 731.51 233.408 763.603 226.379 788.137" stroke="#E6F3FC" stroke-width="3" stroke-miterlimit="10" stroke-linecap="round"/>
<path d="M274.121 741.324C274.121 741.324 236.325 779.517 227.97 804.847" stroke="#E6F3FC" stroke-width="3" stroke-miterlimit="10" stroke-linecap="round"/>
<path d="M252.637 958.682H248.924C248.924 958.549 248.924 958.416 248.924 958.151C249.852 954.836 250.648 951.388 251.178 948.072C261.39 895.556 240.171 848.345 219.748 817.313C204.895 794.635 188.45 777.263 178.371 767.449C176.647 765.858 175.188 764.399 173.862 763.205C170.547 760.155 168.557 758.564 168.557 758.431C168.027 758.033 167.894 757.503 167.894 756.84C170.016 758.829 172.005 760.818 173.995 762.808C174.26 761.614 174.658 760.42 175.056 759.227C183.676 767.051 204.497 787.209 222.931 815.324C244.945 848.875 267.888 900.994 252.637 958.682Z" fill="#E6F3FC"/>
<path d="M379.155 937.065C378.89 937.065 378.624 936.932 378.359 936.8L371.33 932.423C370.667 932.026 370.402 930.965 370.8 930.302C371.198 929.639 372.259 929.373 372.922 929.771L379.951 934.148C380.614 934.545 380.879 935.606 380.481 936.269C380.216 936.8 379.685 937.065 379.155 937.065Z" fill="#F5821F"/>
<path d="M458.328 956.029C457.665 957.223 456.869 958.151 456.206 958.814C455.41 959.61 454.482 960.008 453.421 960.008L381.94 959.875C380.083 959.875 378.624 958.416 378.624 956.56V955.499L378.492 949.398V947.144L378.094 924.334L416.421 923.14C424.51 924.732 454.217 944.492 458.063 949.398C459.787 951.785 459.389 954.173 458.328 956.029Z" fill="#F5821F"/>
<path d="M430.743 956.162C430.611 956.692 430.213 956.958 429.682 956.958C429.55 956.958 429.55 956.958 429.417 956.958C427.428 956.56 424.378 955.101 420.532 953.377C414.033 950.327 405.148 946.216 397.456 945.42C385.786 944.226 379.022 949.399 378.89 949.531C378.757 949.664 378.492 949.796 378.359 949.796V947.542C380.348 946.216 387.112 942.502 397.721 943.563C405.811 944.359 414.962 948.603 421.46 951.786C425.041 953.51 428.091 954.836 429.815 955.234C430.478 955.101 430.876 955.632 430.743 956.162Z" fill="#FC7400"/>
<path d="M458.328 956.029C457.665 957.223 456.869 958.151 456.206 958.814C455.543 959.61 454.482 960.008 453.421 960.008H381.94C380.083 960.008 378.625 958.549 378.625 956.692V955.631L458.328 956.029Z" fill="#1D458A"/>
<path d="M414.298 949.266C414.033 949.266 413.768 949.133 413.503 949L406.474 944.624C405.811 944.226 405.546 943.165 405.944 942.502C406.341 941.839 407.402 941.574 408.065 941.972L415.094 946.348C415.757 946.746 416.022 947.807 415.625 948.47C415.359 949 414.829 949.266 414.298 949.266Z" fill="#FA9746"/>
<path d="M493.471 968.23C492.808 969.423 492.013 970.352 491.349 971.015C490.554 971.811 489.625 972.208 488.564 972.208L417.083 972.076C415.227 972.076 413.768 970.617 413.768 968.76V967.699L413.635 961.599V959.345L413.238 936.535L451.564 935.341C459.654 936.932 489.36 956.692 493.206 961.599C494.93 963.986 494.532 966.373 493.471 968.23Z" fill="#FA9746"/>
<path d="M465.887 968.363C465.754 968.893 465.356 969.158 464.826 969.158C464.693 969.158 464.693 969.158 464.561 969.158C462.571 968.76 459.521 967.302 455.675 965.578C449.177 962.527 440.292 958.416 432.6 957.621C420.929 956.427 414.166 961.599 414.033 961.732C413.901 961.864 413.635 961.997 413.503 961.997V959.743C415.492 958.416 422.255 954.703 432.865 955.764C440.955 956.56 450.105 960.803 456.604 963.986C460.184 965.71 463.234 967.036 464.958 967.434C465.622 967.302 466.019 967.832 465.887 968.363Z" fill="#F5821F"/>
<path d="M493.471 968.362C492.808 969.556 492.013 970.484 491.35 971.147C490.686 971.943 489.625 972.341 488.565 972.341H417.084C415.227 972.341 413.768 970.882 413.768 969.026V967.965L493.471 968.362Z" fill="#1D458A"/>
<path d="M463.234 950.725C463.102 950.725 462.969 950.725 462.837 950.592C462.041 950.327 461.643 949.531 461.776 948.735C461.908 948.072 463.765 942.635 467.213 940.513C467.876 940.115 468.937 940.248 469.335 941.044C469.733 941.707 469.6 942.768 468.804 943.165C466.682 944.492 465.091 948.337 464.693 949.664C464.428 950.327 463.897 950.725 463.234 950.725Z" fill="#FFF5E8"/>
<path d="M469.733 954.04C469.6 954.04 469.467 954.04 469.335 953.907C468.539 953.642 468.141 952.846 468.274 952.051C468.407 951.388 470.263 945.95 473.711 943.829C474.374 943.431 475.435 943.563 475.833 944.359C476.231 945.022 476.098 946.083 475.303 946.481C473.181 947.807 471.589 951.653 471.191 952.979C471.059 953.642 470.396 954.04 469.733 954.04Z" fill="#FFF5E8"/>
<path d="M476.364 958.151C476.231 958.151 476.098 958.151 475.966 958.018C475.17 957.753 474.772 956.958 474.905 956.162C475.037 955.499 476.894 950.061 480.342 947.94C481.005 947.542 482.066 947.674 482.464 948.47C482.862 949.133 482.729 950.194 481.933 950.592C479.812 951.918 478.22 955.764 477.822 957.09C477.69 957.621 477.027 958.151 476.364 958.151Z" fill="#FFF5E8"/>
<path d="M414.166 700.213V932.954C413.105 932.954 412.177 932.954 411.116 932.954C404.617 932.821 399.047 932.158 394.406 931.23C380.746 928.578 374.646 924.069 374.646 924.069C385.255 837.47 387.775 738.008 388.305 708.7C388.438 703.263 388.438 700.213 388.438 700.213H414.166Z" fill="#1D458A"/>
<path d="M414.166 716.259V932.954C406.342 932.954 399.843 932.291 394.539 931.23C400.374 885.477 396.926 719.442 396.926 719.442L414.166 716.259Z" fill="#052569"/>
<path d="M461.245 937.596C461.245 937.596 440.292 946.348 411.381 937.596C411.381 937.596 411.381 936.004 411.248 932.954C410.055 904.442 403.689 752.463 395.467 711.22C394.804 708.037 394.141 705.517 393.478 703.661H467.213C467.213 703.661 467.346 706.711 467.346 712.281C467.876 744.507 469.07 859.485 461.245 937.596Z" fill="#1D458A"/>
<path d="M467.346 716.259C445.331 720.768 427.56 719.177 414.033 717.453C406.607 716.525 390.427 709.496 388.438 708.7C388.571 703.263 388.571 700.213 388.571 700.213H414.166V703.793H467.213C467.213 703.793 467.213 710.822 467.346 716.259Z" fill="#052569"/>
<path d="M444.535 523.966L444.403 529.934L444.137 537.493C432.069 540.41 421.195 535.636 421.195 535.636V523.966C427.162 520.253 432.202 519.722 436.048 520.253C441.485 521.181 444.535 523.966 444.535 523.966Z" fill="#F4AB9B"/>
<path d="M444.535 523.966L444.403 529.934C441.087 527.945 437.507 522.507 436.18 520.253C441.485 521.181 444.535 523.966 444.535 523.966Z" fill="#DE846F"/>
<path d="M446.26 484.977C446.26 484.977 458.991 517.6 450.105 523.966C441.087 530.332 416.818 513.755 416.818 513.755L446.26 484.977Z" fill="#F4AB9B"/>
<path d="M445.994 491.873C446.525 484.181 445.464 475.826 442.148 474.898C438.833 473.837 427.826 472.113 415.625 478.081C403.424 484.049 403.026 493.464 406.607 502.482C410.187 511.5 419.205 527.547 425.438 527.016C431.672 526.486 434.854 523.833 434.987 520.916C435.12 517.998 434.987 516.274 433.263 514.152C431.539 512.031 427.958 507.522 430.213 504.604C433.263 500.36 436.578 502.615 438.7 504.339C440.822 506.063 443.74 504.339 444.403 502.748C445.066 501.156 445.862 493.995 445.994 491.873Z" fill="#1D2954"/>
<path d="M448.116 497.708C447.851 497.708 447.453 497.576 447.32 497.31C446.923 496.78 446.923 496.117 447.453 495.719C447.718 495.586 449.575 493.73 451.166 493.464C451.829 493.332 452.36 493.73 452.493 494.26C452.625 494.923 452.227 495.454 451.697 495.586C450.901 495.719 449.575 496.78 448.912 497.31C448.647 497.708 448.381 497.708 448.116 497.708Z" fill="#1D2954"/>
<path d="M451.431 502.35C452.237 502.35 452.89 501.4 452.89 500.228C452.89 499.056 452.237 498.106 451.431 498.106C450.626 498.106 449.973 499.056 449.973 500.228C449.973 501.4 450.626 502.35 451.431 502.35Z" fill="#1D2954"/>
<path d="M451.962 503.941C451.962 503.941 453.819 506.063 454.216 506.859C454.614 507.654 452.758 508.715 452.758 508.715L451.962 503.941Z" fill="#F4AB9B"/>
<path d="M452.36 515.213C450.105 515.213 448.249 514.683 448.249 514.683C447.586 514.55 447.32 513.887 447.453 513.224C447.586 512.561 448.249 512.296 448.912 512.429C448.912 512.429 450.901 513.092 453.156 512.826C453.819 512.826 454.349 513.224 454.349 513.887C454.349 514.55 453.951 515.081 453.288 515.081C453.023 515.213 452.625 515.213 452.36 515.213Z" fill="#DE846F"/>
<path d="M438.17 510.704C437.905 510.704 437.507 510.572 437.507 510.174C436.181 506.726 432.6 506.328 432.467 506.328C432.069 506.328 431.804 505.93 431.804 505.532C431.804 505.135 432.202 504.869 432.6 504.869C432.733 504.869 437.242 505.4 438.833 509.776C438.966 510.174 438.833 510.572 438.435 510.704C438.302 510.572 438.17 510.704 438.17 510.704Z" fill="#DE846F"/>
<path d="M412.177 544.522C412.177 544.522 376.37 576.349 374.911 590.142C373.32 603.934 389.101 631.253 389.101 631.253L412.177 544.522Z" fill="#F5821F"/>
<path d="M433.396 510.439C433.263 510.439 433.263 510.439 433.396 510.439C432.865 510.307 432.6 509.909 432.6 509.511C432.998 507.256 435.12 506.063 435.252 506.063C435.65 505.798 436.048 505.93 436.313 506.328C436.578 506.726 436.446 507.124 436.048 507.389C436.048 507.389 434.456 508.317 434.191 509.776C434.059 510.174 433.661 510.439 433.396 510.439Z" fill="#DE846F"/>
<path d="M421.195 535.769C421.195 535.769 403.954 545.45 395.732 583.776C387.51 622.102 378.89 668.65 379.42 701.008C379.42 701.008 407.535 722.625 470.926 708.833V671.966L476.629 673.159C476.629 673.159 496.256 623.693 493.074 603.668C490.023 583.776 454.747 541.471 444.138 537.626L421.195 535.769Z" fill="#FA9746"/>
<path d="M451.166 665.6C451.166 665.6 450.901 673.557 454.217 679.127C457.532 684.829 470.926 693.715 472.518 692.919C474.109 692.123 476.496 684.829 475.17 682.84C473.711 680.984 468.672 675.944 468.805 671.7C468.805 671.7 459.389 670.374 451.166 665.6Z" fill="#F4AB9B"/>
<path d="M476.496 674.485H476.364C456.206 671.966 447.188 664.804 446.79 664.539L445.994 663.876L446.26 662.948C446.392 662.682 453.156 633.772 453.553 624.356C453.819 617.593 445.729 609.636 439.894 603.801C437.905 601.812 436.181 600.088 434.987 598.629C434.457 597.966 434.589 597.037 435.252 596.507C435.915 595.977 436.844 596.109 437.374 596.772C438.435 598.098 440.159 599.822 442.148 601.679C448.381 607.912 457.002 616.399 456.736 624.489C456.338 633.374 450.901 657.378 449.708 662.682C452.227 664.406 460.98 669.313 476.894 671.435C477.69 671.568 478.353 672.363 478.22 673.159C477.955 673.955 477.292 674.485 476.496 674.485Z" fill="#F5821F"/>
<path d="M324.251 381.271V419.199C324.251 421.189 325.842 422.78 327.832 422.78H437.639C438.302 422.78 438.965 422.913 439.496 423.311L457.267 433.92C459.654 435.379 462.704 433.655 462.704 430.87V422.913V381.404C462.704 379.415 461.113 377.823 459.123 377.823H327.964C325.842 377.691 324.251 379.282 324.251 381.271Z" fill="#A1CAFA"/>
<path d="M391.621 408.06C395.21 408.06 398.119 405.15 398.119 401.561C398.119 397.973 395.21 395.063 391.621 395.063C388.032 395.063 385.123 397.973 385.123 401.561C385.123 405.15 388.032 408.06 391.621 408.06Z" fill="#E6F3FC"/>
<path d="M411.248 408.06C414.837 408.06 417.747 405.15 417.747 401.561C417.747 397.973 414.837 395.063 411.248 395.063C407.659 395.063 404.75 397.973 404.75 401.561C404.75 405.15 407.659 408.06 411.248 408.06Z" fill="#E6F3FC"/>
<path d="M372.789 408.06C376.378 408.06 379.287 405.15 379.287 401.561C379.287 397.973 376.378 395.063 372.789 395.063C369.2 395.063 366.291 397.973 366.291 401.561C366.291 405.15 369.2 408.06 372.789 408.06Z" fill="#E6F3FC"/>
<path d="M776.61 252.766L765.603 250.512C765.073 246.799 764.277 243.085 763.216 239.505L772.765 233.139C778.6 229.293 780.191 221.336 776.345 215.501L764.277 197.465C760.431 191.63 752.474 190.039 746.639 193.885L736.56 200.648C733.775 198.526 730.725 196.537 727.674 194.813L730.062 182.878C731.52 175.982 727.011 169.218 720.115 167.892L698.896 163.648C692 162.189 685.237 166.698 683.911 173.594L681.523 185.53C677.943 185.928 674.495 186.591 671.047 187.519L664.283 177.44C660.437 171.605 652.48 170.014 646.645 173.86L628.609 185.795C622.774 189.641 621.182 197.598 625.028 203.433L631.394 212.981C629.007 215.899 626.885 218.949 624.896 222.265L613.888 220.01C606.992 218.551 600.229 223.06 598.902 229.956L594.659 251.175C593.2 258.071 597.709 264.834 604.605 266.16L614.684 268.15C615.082 272.261 615.745 276.239 616.806 280.218L608.451 285.788C602.616 289.634 601.024 297.59 604.87 303.426L616.806 321.461C620.652 327.296 628.609 328.888 634.444 325.042L642.268 319.87C645.584 322.522 649.165 325.042 652.878 327.164L651.021 336.314C649.562 343.21 654.071 349.974 660.968 351.3L682.187 355.544C689.083 357.002 695.846 352.494 697.172 345.598L699.029 336.447C703.273 335.917 707.516 335.121 711.628 333.927L716.8 341.752C720.646 347.587 728.603 349.178 734.438 345.332L752.474 333.264C758.309 329.418 759.901 321.461 756.055 315.626L750.485 307.271C753.004 304.089 755.126 300.641 757.116 297.06L767.195 299.049C774.091 300.508 780.854 295.999 782.18 289.103L786.424 267.884C788.016 260.856 783.507 254.092 776.61 252.766ZM662.559 278.494C662.426 278.229 662.161 277.963 662.029 277.698C657.917 270.935 656.326 262.712 658.05 254.358C658.05 254.092 658.183 253.695 658.315 253.429C658.448 253.031 658.448 252.766 658.581 252.368C660.702 244.544 665.477 238.046 671.71 233.802C672.638 233.139 673.566 232.609 674.495 232.078C680.462 228.763 687.624 227.304 694.785 228.365C695.448 228.498 696.111 228.63 696.774 228.763C697.438 228.895 698.101 229.028 698.764 229.293C705.793 231.15 711.76 235.261 716.004 240.698C716.667 241.494 717.33 242.422 717.861 243.351C721.972 249.716 723.829 257.54 722.768 265.63C722.768 266.028 722.635 266.293 722.635 266.691C722.635 266.956 722.502 267.354 722.502 267.619C720.778 275.974 716.137 282.87 709.771 287.644C709.506 287.777 709.241 288.042 708.975 288.175C702.079 292.816 693.592 294.938 684.839 293.479C684.574 293.479 684.176 293.347 683.911 293.347C683.645 293.347 683.247 293.214 682.982 293.082C674.097 290.827 667.068 285.522 662.559 278.494Z" fill="#FBDCB5"/>
<path d="M1959.56 473.97L1948.56 471.715C1948.02 468.002 1947.23 464.289 1946.17 460.708L1955.72 454.343C1961.55 450.497 1963.14 442.54 1959.3 436.705L1947.23 418.669C1943.38 412.834 1935.43 411.242 1929.59 415.088L1919.51 421.852C1916.73 419.73 1913.68 417.741 1910.63 416.017L1913.01 404.081C1914.47 397.185 1909.96 390.422 1903.07 389.096L1881.85 384.852C1874.95 383.393 1868.19 387.902 1866.86 394.798L1864.48 406.734C1860.89 407.131 1857.45 407.794 1854 408.723L1847.24 398.644C1843.39 392.809 1835.43 391.217 1829.6 395.063L1811.56 406.999C1805.73 410.845 1804.13 418.802 1807.98 424.637L1814.35 434.185C1811.96 437.103 1809.84 440.153 1807.85 443.468L1796.84 441.214C1789.94 439.755 1783.18 444.264 1781.85 451.16L1777.61 472.379C1776.15 479.275 1780.66 486.038 1787.56 487.364L1797.64 489.353C1798.03 493.464 1798.7 497.443 1799.76 501.421L1791.4 506.991C1785.57 510.837 1783.98 518.794 1787.82 524.629L1799.76 542.665C1803.6 548.5 1811.56 550.092 1817.4 546.246L1825.22 541.074C1828.54 543.726 1832.12 546.246 1835.83 548.368L1833.97 557.518C1832.51 564.414 1837.02 571.177 1843.92 572.504L1865.14 576.747C1872.03 578.206 1878.8 573.697 1880.12 566.801L1881.98 557.651C1886.22 557.12 1890.47 556.324 1894.58 555.131L1899.75 562.955C1903.6 568.79 1911.55 570.382 1917.39 566.536L1935.43 554.468C1941.26 550.622 1942.85 542.665 1939.01 536.83L1933.44 528.475C1935.96 525.292 1938.08 521.844 1940.07 518.264L1950.15 520.253C1957.04 521.712 1963.81 517.203 1965.13 510.307L1969.38 489.088C1970.84 482.059 1966.46 475.429 1959.56 473.97ZM1833.71 507.257C1833.44 506.859 1833.18 506.461 1832.91 506.063C1827.08 496.382 1824.82 484.712 1827.21 472.776C1827.34 472.378 1827.34 471.848 1827.48 471.45C1827.61 470.92 1827.74 470.389 1827.87 469.991C1830.79 458.852 1837.69 449.701 1846.57 443.601C1847.9 442.672 1849.09 441.877 1850.55 441.214C1859.17 436.44 1869.12 434.45 1879.46 435.909C1880.39 436.042 1881.32 436.174 1882.38 436.44C1883.31 436.572 1884.24 436.837 1885.16 437.103C1895.24 439.755 1903.73 445.59 1909.7 453.282C1910.63 454.475 1911.55 455.801 1912.35 456.995C1918.19 466.146 1920.97 477.285 1919.25 488.69C1919.25 489.221 1919.11 489.751 1918.98 490.149C1918.98 490.547 1918.85 491.077 1918.72 491.475C1916.33 503.278 1909.57 513.224 1900.55 519.855C1900.15 520.12 1899.75 520.386 1899.35 520.651C1889.67 527.282 1877.47 530.332 1865.01 528.21C1864.61 528.21 1864.08 528.077 1863.68 527.945C1863.28 527.812 1862.75 527.812 1862.35 527.679C1850.15 524.762 1840.07 517.203 1833.71 507.257Z" fill="#A1CAFA"/>
<path d="M1059.22 613.88C1059.22 613.88 1155.5 598.098 1223 559.772C1294.35 519.192 1394.35 406.866 1491.95 395.726" stroke="#1D458A" stroke-miterlimit="10"/>
<path d="M660.437 222.53C668.394 217.093 677.943 214.042 688.287 214.042" stroke="#FBF1E4" stroke-width="3" stroke-miterlimit="10" stroke-linecap="round"/>
<path d="M647.573 292.418C641.871 284.329 638.555 274.515 638.555 263.773C638.555 255.816 640.412 248.257 643.727 241.626" stroke="#FBF1E4" stroke-width="3" stroke-miterlimit="10" stroke-linecap="round"/>
<path d="M1839.15 432.461C1848.3 426.228 1859.3 422.647 1871.24 422.647" stroke="#CBE1FA" stroke-width="3" stroke-miterlimit="10" stroke-linecap="round"/>
<path d="M1824.42 512.694C1817.93 503.411 1814.08 492.006 1814.08 479.805C1814.08 470.654 1816.2 462.034 1820.05 454.343" stroke="#CBE1FA" stroke-width="3" stroke-miterlimit="10" stroke-linecap="round"/>
<path d="M1774.41 45.0472C1832.58 107.561 1850.74 191.012 1766.19 263.9C1701.32 319.828 1628.44 350.045 1555.29 255.76C1502.11 189.426 1486.75 96.4097 1558.93 41.1671C1625.79 -5.72227 1724.52 -22.6478 1774.41 45.0472Z" fill="#CAE7FC" fill-opacity="0.9"/>
<path d="M1738.43 138.048C1738.43 102.853 1707.6 74.024 1669.57 74.024C1631.54 74.024 1600.71 102.853 1600.71 138.048C1600.71 151.977 1608.7 169.969 1621.53 183.234C1634.25 196.378 1637.88 218.507 1637.88 236.153V243.071H1701.27V236.211C1701.27 218.565 1704.89 196.478 1717.55 183.292C1730.42 169.89 1738.43 150.3 1738.43 138.048Z" fill="#FFE58F"/>
<path opacity="0.13" d="M1727.1 137.875C1727.1 108.478 1701.35 84.3918 1669.57 84.3918C1637.8 84.3918 1612.05 108.476 1612.05 137.875C1612.05 149.52 1618.72 164.544 1629.44 175.625C1640.07 186.607 1647.96 205.093 1647.96 219.833V225.607H1691.19V219.883C1691.19 205.14 1699.08 186.689 1709.65 175.673C1720.41 164.478 1727.1 148.114 1727.1 137.878V137.875Z" fill="#F5831F"/>
<path d="M1687.05 275.355H1652.1C1650.87 275.355 1649.76 274.62 1649.1 273.412L1644.34 262.024H1694.81L1690.05 273.412C1689.39 274.62 1688.28 275.355 1687.05 275.355H1687.05Z" fill="#393D65"/>
<path d="M1695.54 216.751H1643.61C1639.75 216.751 1636.62 219.643 1636.62 223.21V260.469C1636.62 264.036 1639.75 266.927 1643.61 266.927H1695.54C1699.39 266.927 1702.52 264.036 1702.52 260.469V223.21C1702.52 219.643 1699.39 216.751 1695.54 216.751Z" fill="#274B97"/>
<path fill-rule="evenodd" clip-rule="evenodd" d="M1635.87 231.481C1635.87 231.056 1636.25 230.711 1636.71 230.711H1673.83C1674.29 230.711 1674.67 231.056 1674.67 231.481C1674.67 231.906 1674.29 232.25 1673.83 232.25H1636.71C1636.25 232.25 1635.87 231.906 1635.87 231.481Z" fill="white"/>
<path fill-rule="evenodd" clip-rule="evenodd" d="M1664.35 248.398C1664.35 247.974 1664.73 247.629 1665.18 247.629H1702.31C1702.77 247.629 1703.15 247.974 1703.15 248.398C1703.15 248.823 1702.77 249.168 1702.31 249.168H1665.18C1664.73 249.168 1664.35 248.823 1664.35 248.398Z" fill="white"/>
<path opacity="0.95" d="M1674.27 112.316L1648.31 148.917C1646.92 150.901 1648.42 153.341 1650.93 153.341H1662.56L1648.26 178.34C1647.2 180.361 1649.95 182.237 1651.63 180.638L1690.52 144.479C1692.5 142.598 1691.09 139.383 1688.28 139.383H1670.7L1678.06 113.912C1678.63 111.738 1675.58 110.462 1674.27 112.316Z" fill="white"/>
<path opacity="0.9" d="M1577.53 139.016H1545.69" stroke="#FFF9C5" stroke-width="2" stroke-linecap="round"/>
<path opacity="0.9" d="M1786.44 139.016H1754.59" stroke="#FFF9C5" stroke-width="2" stroke-linecap="round"/>
<path d="M1588.54 98.5077L1569.6 87.8102" stroke="#FCC335" stroke-width="2" stroke-linecap="round"/>
<path opacity="0.9" d="M1588.54 98.5077L1569.6 87.8102" stroke="#FFF9C5" stroke-width="2" stroke-linecap="round"/>
<path opacity="0.9" d="M1746.65 94.7988L1764.33 82.4635" stroke="#FFF9C5" stroke-width="2" stroke-linecap="round"/>
<path opacity="0.9" d="M1660.05 57.4613L1659.19 37.3481" stroke="#FFF9C5" stroke-width="2" stroke-linecap="round"/>
<path opacity="0.9" d="M1622.36 71.2369L1591.27 42.508" stroke="#FFF9C5" stroke-width="2" stroke-linecap="round"/>
<path opacity="0.9" d="M1713.57 66.7992L1729.49 37.0738" stroke="#FFF9C5" stroke-width="2" stroke-linecap="round"/>
</svg>
