<svg width="24" height="24" viewBox="0 0 24 24" xmlns="http://www.w3.org/2000/svg" fill="none">
    <style>
        @media (prefers-color-scheme: dark) {
            rect#border, .dot_blue {
                stroke: #E5E5E5;
            }
            .dot_blue {
                fill: #E5E5E5;
            }
            .dot_orange {
                stroke: #F5821F;
                fill: #F5821F;
            }
        }
    </style>
    <g>
        <rect transform="rotate(90 22.75 1.27101)" id="border" stroke-width="1.5" stroke="#052569" rx="4.75" height="21.5" width="21.5" y="1.27101" x="22.75"/>
        <path class="dot_blue" id="svg_2" stroke-width="2" stroke="#052569" fill="#052569" d="m10.4188,7.56542c0,1.40325 -1.14114,2.54439 -2.54439,2.54439c-1.40325,0 -2.54441,-1.14114 -2.54441,-2.54439c0,-1.40325 1.14116,-2.54441 2.54441,-2.54441c1.40325,0 2.54439,1.14115 2.54439,2.54441z"/>
        <path class="dot_blue" id="svg_3" stroke-width="2" stroke="#052569" fill="#052569" d="m19,16.14651c0,1.4032 -1.1412,2.5444 -2.5444,2.5444c-1.4033,0 -2.5444,-1.1412 -2.5444,-2.5444c0,-1.4033 1.1411,-2.5444 2.5444,-2.5444c1.4032,0 2.5444,1.1411 2.5444,2.5444z"/>
        <path class="dot_orange" id="svg_4" fill-opacity="0.9" fill="#F5821F" d="m19.9999,7.56542c0,1.95554 -1.5889,3.54439 -3.5444,3.54439c-1.9556,0 -3.5444,-1.58885 -3.5444,-3.54439c0,-1.95554 1.5888,-3.54441 3.5444,-3.54441c1.9555,0 3.5444,1.58887 3.5444,3.54441z"/>
        <path class="dot_blue" id="svg_5" stroke-width="2" stroke="#052569" fill="#052569" d="m10.4189,16.14651c0,1.4032 -1.14111,2.5444 -2.54437,2.5444c-1.40325,0 -2.54441,-1.1412 -2.54441,-2.5444c0,-1.4033 1.14116,-2.5444 2.54441,-2.5444c1.40326,0 2.54437,1.1411 2.54437,2.5444z"/>
    </g>
</svg>
