<svg width="212" height="37" viewBox="0 0 212 37" fill="none" xmlns="http://www.w3.org/2000/svg">
    <g clip-path="url(#clip0)">
        <rect x="208.75" y="8.7085" width="21.5" height="21.5" rx="4.75" transform="rotate(90 208.75 8.7085)" stroke="#052569" stroke-width="1.5"/>
        <path d="M196.419 15.0029C196.419 16.4062 195.278 17.5473 193.874 17.5473C192.471 17.5473 191.33 16.4062 191.33 15.0029C191.33 13.5997 192.471 12.4585 193.874 12.4585C195.278 12.4585 196.419 13.5997 196.419 15.0029Z" fill="#052569" stroke="#052569" stroke-width="2"/>
        <path d="M205 23.5841C205 24.9873 203.859 26.1285 202.456 26.1285C201.052 26.1285 199.911 24.9873 199.911 23.5841C199.911 22.1808 201.052 21.0397 202.456 21.0397C203.859 21.0397 205 22.1808 205 23.5841Z" fill="#052569" stroke="#052569" stroke-width="2"/>
        <path d="M206 15.0029C206 16.9584 204.411 18.5473 202.455 18.5473C200.5 18.5473 198.911 16.9584 198.911 15.0029C198.911 13.0474 200.5 11.4585 202.455 11.4585C204.411 11.4585 206 13.0474 206 15.0029Z" fill="#F5821F" fill-opacity="0.9"/>
        <path d="M196.419 23.5841C196.419 24.9873 195.278 26.1285 193.875 26.1285C192.471 26.1285 191.33 24.9873 191.33 23.5841C191.33 22.1808 192.471 21.0397 193.875 21.0397C195.278 21.0397 196.419 22.1808 196.419 23.5841Z" fill="#052569" stroke="#052569" stroke-width="2"/>
        <path d="M11.4448 24.2013C11.7132 23.6204 12.0305 23.1121 12.4453 22.7974C12.7138 22.6038 13.1286 22.4585 13.5923 22.4585C14.1048 22.4585 14.5928 22.6038 14.9833 22.9911C15.3494 23.3541 15.5202 23.7898 15.5202 24.4918C15.5202 25.2906 15.1053 26.7187 13.7631 28.0016C12.4941 29.2361 10.9567 29.8171 8.54074 29.8171C6.27119 29.8171 4.48973 29.0667 3.09872 27.687C1.07321 25.6779 1 23.4026 1 19.5296C1 15.6567 1.07321 13.3814 3.09872 11.3723C4.46532 9.99257 6.24679 9.24219 8.54074 9.24219C10.9811 9.24219 12.4941 9.82313 13.7631 11.0576C15.1053 12.3163 15.5202 13.7687 15.5202 14.5675C15.5202 15.2694 15.3738 15.7051 14.9833 16.0682C14.5928 16.4555 14.1048 16.6007 13.5923 16.6007C13.1286 16.6007 12.7138 16.4555 12.4453 16.2619C12.0549 15.9472 11.7376 15.4389 11.4448 14.8579C10.8103 13.4298 9.83413 12.7762 8.44312 12.7762C7.39376 12.7762 6.61284 13.2119 6.02716 13.8655C5.17303 14.8337 5.0266 15.9472 5.0266 19.5538C5.0266 23.1605 5.17303 24.274 6.02716 25.2422C6.61284 25.8957 7.39376 26.3314 8.44312 26.3314C9.83413 26.3072 10.7859 25.6295 11.4448 24.2013Z" fill="#F5821F"/>
        <path d="M27.0144 17.9078C27.8685 17.9078 28.1858 17.932 28.5762 18.1257C29.0887 18.392 29.4303 18.9729 29.4303 19.6507C29.4303 20.3526 29.0887 20.9336 28.5762 21.1756C28.1858 21.3693 27.8685 21.3935 27.0144 21.3935H21.2307V27.0576C21.2307 27.9774 21.2063 28.3163 20.9623 28.8004C20.6694 29.3572 20.0105 29.7444 19.2296 29.7444C18.4487 29.7444 17.7898 29.3572 17.497 28.8004C17.2529 28.3163 17.2285 28.0016 17.2285 27.0576V11.8322C17.2285 11.2513 17.2285 10.5251 17.7898 9.96835C18.3511 9.41162 19.0832 9.41162 19.6689 9.41162H28.4298C29.2839 9.41162 29.6012 9.43583 29.9916 9.62947C30.5041 9.89574 30.8458 10.4767 30.8458 11.1544C30.8458 11.8322 30.5041 12.4373 29.9916 12.6794C29.6012 12.873 29.2839 12.8972 28.4298 12.8972H21.2551V17.8836H27.0144V17.9078Z" fill="#F5821F"/>
        <path d="M44.5361 9.41162C45.073 9.41162 45.2683 9.46003 45.4879 9.58106C45.7563 9.7505 45.9028 10.041 45.9028 10.3799C45.9028 10.7187 45.7563 11.0092 45.4879 11.1786C45.2683 11.2997 45.0974 11.3481 44.5361 11.3481H35.3116V18.4888H42.9743C43.5112 18.4888 43.7064 18.5372 43.9261 18.6582C44.1945 18.8277 44.3409 19.1181 44.3409 19.457C44.3409 19.7959 44.1945 20.0864 43.9261 20.2558C43.7064 20.3768 43.5356 20.4252 42.9743 20.4252H35.3116V27.7354H44.5361C45.073 27.7354 45.2683 27.7838 45.4879 27.9048C45.7563 28.0743 45.9028 28.3647 45.9028 28.7036C45.9028 29.0425 45.7563 29.333 45.4879 29.5024C45.2683 29.6234 45.0974 29.6718 44.5361 29.6718H34.433C34.0914 29.6718 33.7009 29.6718 33.4081 29.3814C33.1152 29.0909 33.1152 28.7036 33.1152 28.3647V10.7187C33.1152 10.3799 33.1152 9.99256 33.4081 9.70209C33.7009 9.41162 34.0914 9.41162 34.433 9.41162H44.5361Z" fill="#052569"/>
        <path d="M58.983 28.389C58.983 28.8973 58.9342 29.0909 58.7878 29.333C58.6414 29.5993 58.2997 29.7687 57.9337 29.7687C57.5676 29.7687 57.226 29.5751 57.0795 29.333C56.9331 29.0909 56.8843 28.8973 56.8843 28.389V21.0788C56.8843 18.5856 55.5909 17.3511 53.419 17.3511C51.2715 17.3511 49.8805 18.6098 49.8805 21.0788V28.389C49.8805 28.8973 49.8317 29.0909 49.6852 29.333C49.5388 29.5993 49.1972 29.7687 48.8311 29.7687C48.465 29.7687 48.1234 29.5751 47.977 29.333C47.8306 29.0909 47.7817 28.8973 47.7817 28.389V16.9396C47.7817 16.4313 47.8061 16.2377 47.977 15.9956C48.1234 15.7294 48.4406 15.5599 48.8311 15.5599C49.2216 15.5599 49.5388 15.7536 49.6852 15.9956C49.8317 16.2619 49.8805 16.4555 49.8805 16.9396V17.2059C50.9054 16.0924 52.272 15.4873 53.8339 15.4873C55.3713 15.4873 56.6159 15.9472 57.4944 16.7944C58.495 17.7626 58.9586 19.094 58.9586 20.7157V28.389H58.983Z" fill="#052569"/>
        <path d="M70.2822 29.5855V27.3585C69.1597 28.8351 67.8175 29.2224 66.3044 29.2224C64.8646 29.2224 63.62 28.7141 62.8635 27.9637C61.4481 26.5597 61.1309 24.4054 61.1309 22.1301C61.1309 19.8548 61.4481 17.7004 62.8635 16.2965C63.62 15.5461 64.889 15.062 66.3288 15.062C67.8663 15.062 69.1353 15.4009 70.2822 16.8774V16.5144C70.2822 16.006 70.3066 15.8124 70.4775 15.5703C70.6239 15.3041 70.9411 15.1346 71.3316 15.1346C71.722 15.1346 72.0393 15.3283 72.1857 15.5703C72.3321 15.8366 72.381 16.0302 72.381 16.5144V29.6339C72.381 33.0953 70.1602 35.6369 66.4265 35.6369C65.0842 35.6369 64.1813 35.4433 63.2784 34.9591C62.7659 34.6687 61.7898 34.0393 61.7898 33.4342C61.7898 32.8532 62.2778 32.4902 62.6683 32.4902C62.9611 32.4902 63.2052 32.6112 63.7176 33.0227C64.4986 33.652 65.3771 33.8699 66.3776 33.8699C69.1109 33.8457 70.2822 31.9576 70.2822 29.5855ZM66.7681 16.9259C63.6932 16.9259 63.2296 19.5401 63.2296 22.1543C63.2296 24.7685 63.6932 27.3343 66.7681 27.3343C69.843 27.3343 70.2578 24.7201 70.2578 22.1301C70.2578 19.5401 69.843 16.9259 66.7681 16.9259Z" fill="#052569"/>
        <path d="M76.4154 9C77.1963 9 77.8308 9.62935 77.8308 10.4039C77.8308 11.1785 77.1963 11.8079 76.4154 11.8079C75.6345 11.8079 75 11.1785 75 10.4039C75 9.62935 75.6345 9 76.4154 9ZM77.4648 28.3888C77.4648 28.8971 77.4404 29.0908 77.2695 29.3328C77.1231 29.5991 76.8059 29.7685 76.4154 29.7685C76.025 29.7685 75.7077 29.5749 75.5613 29.3328C75.4149 29.0666 75.3661 28.8729 75.3661 28.3888V16.9395C75.3661 16.4312 75.3905 16.2375 75.5613 15.9955C75.7077 15.7292 76.025 15.5598 76.4154 15.5598C76.8059 15.5598 77.1231 15.7534 77.2695 15.9955C77.416 16.2617 77.4648 16.4554 77.4648 16.9395V28.3888Z" fill="#052569"/>
        <path d="M91.9034 28.389C91.9034 28.8973 91.8546 29.0909 91.7082 29.333C91.5618 29.5993 91.2201 29.7687 90.8541 29.7687C90.488 29.7687 90.1464 29.5751 89.9999 29.333C89.8535 29.0909 89.8047 28.8973 89.8047 28.389V21.0788C89.8047 18.5856 88.5113 17.3511 86.3394 17.3511C84.1919 17.3511 82.8009 18.6098 82.8009 21.0788V28.389C82.8009 28.8973 82.7521 29.0909 82.6056 29.333C82.4592 29.5993 82.1176 29.7687 81.7515 29.7687C81.3855 29.7687 81.0438 29.5751 80.8974 29.333C80.751 29.0909 80.7021 28.8973 80.7021 28.389V16.9396C80.7021 16.4313 80.7266 16.2377 80.8974 15.9956C81.0438 15.7294 81.3611 15.5599 81.7515 15.5599C82.142 15.5599 82.4592 15.7536 82.6056 15.9956C82.7521 16.2619 82.8009 16.4555 82.8009 16.9396V17.2059C83.8258 16.0924 85.1924 15.4873 86.7543 15.4873C88.2917 15.4873 89.5363 15.9472 90.4148 16.7944C91.4154 17.7626 91.879 19.094 91.879 20.7157V28.389H91.9034Z" fill="#052569"/>
        <path d="M96.1012 23.1845C96.1012 26.2345 97.5654 28.0257 100.299 28.0257C101.397 28.0257 102.471 27.7352 103.325 27.009C103.764 26.6459 103.984 26.5007 104.301 26.5007C104.74 26.5007 105.179 26.9364 105.179 27.3963C105.179 28.0257 104.276 28.655 103.715 28.9939C102.861 29.5022 101.641 29.7927 100.201 29.7927C96.4672 29.7927 94.0269 27.5658 94.0269 22.6278C94.0269 18.0045 96.2964 15.4629 99.8593 15.4629C103.447 15.4629 105.619 18.0529 105.643 21.95C105.643 22.2405 105.619 22.6278 105.35 22.8941C105.082 23.1603 104.764 23.1603 104.423 23.1603H96.1012V23.1845ZM103.569 21.6112C103.52 20.6187 103.447 20.1104 103.129 19.3358C102.593 18.0529 101.372 17.2541 99.8349 17.2541C98.2975 17.2541 97.0529 18.0771 96.5404 19.3358C96.2232 20.1104 96.15 20.6187 96.1012 21.6112H103.569Z" fill="#052569"/>
        <path d="M113.701 10.3585H122.584C124.474 10.3585 126.013 10.8445 127.201 11.8165C128.389 12.7705 128.983 14.0125 128.983 15.5425C128.983 16.3705 128.776 17.1265 128.362 17.8105C127.948 18.4945 127.381 19.0615 126.661 19.5115C127.561 19.9435 128.281 20.5375 128.821 21.2935C129.361 22.0315 129.631 22.8595 129.631 23.7775C129.631 25.4155 129.019 26.7385 127.795 27.7465C126.589 28.7545 124.996 29.2585 123.016 29.2585H113.701V10.3585ZM122.341 13.5985H117.616V18.0805H122.341C123.169 18.0805 123.835 17.8825 124.339 17.4865C124.843 17.0725 125.095 16.5235 125.095 15.8395C125.095 15.1555 124.843 14.6155 124.339 14.2195C123.835 13.8055 123.169 13.5985 122.341 13.5985ZM122.719 26.0185C123.619 26.0185 124.339 25.8025 124.879 25.3705C125.419 24.9205 125.689 24.3175 125.689 23.5615C125.689 22.8415 125.419 22.2565 124.879 21.8065C124.339 21.3565 123.619 21.1315 122.719 21.1315H117.616V26.0185H122.719ZM135.993 15.1915V23.3725C135.993 24.2725 136.254 24.9925 136.776 25.5325C137.316 26.0725 138.027 26.3425 138.909 26.3425C139.539 26.3425 140.097 26.2255 140.583 25.9915C141.087 25.7395 141.501 25.3885 141.825 24.9385V15.1915H145.524V29.2585H141.825V28.1245C141.285 28.5745 140.682 28.9255 140.016 29.1775C139.35 29.4115 138.63 29.5285 137.856 29.5285C136.236 29.5285 134.904 29.0065 133.86 27.9625C132.816 26.9005 132.294 25.5505 132.294 23.9125V15.1915H135.993ZM150.783 13.5175C150.207 13.5175 149.712 13.3105 149.298 12.8965C148.884 12.4825 148.677 11.9875 148.677 11.4115C148.677 10.8355 148.884 10.3405 149.298 9.92654C149.712 9.51254 150.207 9.30554 150.783 9.30554C151.359 9.30554 151.854 9.51254 152.268 9.92654C152.682 10.3405 152.889 10.8355 152.889 11.4115C152.889 11.9875 152.682 12.4825 152.268 12.8965C151.854 13.3105 151.359 13.5175 150.783 13.5175ZM152.646 15.1915V29.2585H148.947V15.1915H152.646ZM159.778 9.54854V29.2585H156.079V10.3585L159.778 9.54854ZM173.714 29.2585V28.0975C173.156 28.5475 172.535 28.8895 171.851 29.1235C171.167 29.3395 170.456 29.4475 169.718 29.4475C168.728 29.4475 167.792 29.2585 166.91 28.8805C166.046 28.5025 165.29 27.9895 164.642 27.3415C163.994 26.6935 163.481 25.9285 163.103 25.0465C162.743 24.1645 162.563 23.2195 162.563 22.2115C162.563 21.2035 162.752 20.2585 163.13 19.3765C163.508 18.4945 164.021 17.7295 164.669 17.0815C165.317 16.4335 166.082 15.9295 166.964 15.5695C167.864 15.1915 168.818 15.0025 169.826 15.0025C170.51 15.0025 171.176 15.1015 171.824 15.2995C172.49 15.4795 173.102 15.7495 173.66 16.1095V10.3585L177.359 9.54854V29.2585H173.714ZM166.208 22.2115C166.208 23.3455 166.604 24.3085 167.396 25.1005C168.188 25.8925 169.16 26.2885 170.312 26.2885C170.996 26.2885 171.617 26.1715 172.175 25.9375C172.751 25.7035 173.246 25.3705 173.66 24.9385V19.4575C173.264 19.0435 172.769 18.7195 172.175 18.4855C171.599 18.2515 170.978 18.1345 170.312 18.1345C169.142 18.1345 168.161 18.5305 167.369 19.3225C166.595 20.0965 166.208 21.0595 166.208 22.2115Z" fill="#052569"/>
    </g>
    <defs>
        <clipPath id="clip0">
            <rect width="212" height="36.3019" fill="white" transform="translate(0 0.358521)"/>
        </clipPath>
    </defs>
</svg>
