<svg width="212" height="35" viewBox="0 0 212 35" fill="none" xmlns="http://www.w3.org/2000/svg">
    <g clip-path="url(#clip0)">
        <rect x="208.75" y="8.9668" width="21.5" height="21.5" rx="4.75" transform="rotate(90 208.75 8.9668)" stroke="#052569" stroke-width="1.5"/>
        <mask id="path-2-inside-1" fill="white">
            <path d="M197.419 15.6771C197.419 17.5575 195.83 19.0852 193.874 19.0852C191.919 19.0852 190.33 17.5575 190.33 15.6771C190.33 13.7968 191.919 12.269 193.874 12.269C195.83 12.269 197.419 13.7968 197.419 15.6771Z"/>
        </mask>
        <path d="M197.419 15.6771C197.419 17.5575 195.83 19.0852 193.874 19.0852C191.919 19.0852 190.33 17.5575 190.33 15.6771C190.33 13.7968 191.919 12.269 193.874 12.269C195.83 12.269 197.419 13.7968 197.419 15.6771Z" fill="#052569" stroke="#052569" stroke-width="4" mask="url(#path-2-inside-1)"/>
        <mask id="path-3-inside-2" fill="white">
            <path d="M206 23.9284C206 25.8087 204.411 27.3364 202.456 27.3364C200.5 27.3364 198.911 25.8087 198.911 23.9284C198.911 22.048 200.5 20.5203 202.456 20.5203C204.411 20.5203 206 22.048 206 23.9284Z"/>
        </mask>
        <path d="M206 23.9284C206 25.8087 204.411 27.3364 202.456 27.3364C200.5 27.3364 198.911 25.8087 198.911 23.9284C198.911 22.048 200.5 20.5203 202.456 20.5203C204.411 20.5203 206 22.048 206 23.9284Z" fill="#052569" stroke="#052569" stroke-width="4" mask="url(#path-3-inside-2)"/>
        <path d="M206 15.6771C206 17.5575 204.411 19.0852 202.455 19.0852C200.5 19.0852 198.911 17.5575 198.911 15.6771C198.911 13.7968 200.5 12.269 202.455 12.269C204.411 12.269 206 13.7968 206 15.6771Z" fill="#F5821F" fill-opacity="0.9"/>
        <mask id="path-5-inside-3" fill="white">
            <path d="M197.419 23.9284C197.419 25.8087 195.83 27.3364 193.874 27.3364C191.919 27.3364 190.33 25.8087 190.33 23.9284C190.33 22.048 191.919 20.5203 193.874 20.5203C195.83 20.5203 197.419 22.048 197.419 23.9284Z"/>
        </mask>
        <path d="M197.419 23.9284C197.419 25.8087 195.83 27.3364 193.874 27.3364C191.919 27.3364 190.33 25.8087 190.33 23.9284C190.33 22.048 191.919 20.5203 193.874 20.5203C195.83 20.5203 197.419 22.048 197.419 23.9284Z" fill="#052569" stroke="#052569" stroke-width="4" mask="url(#path-5-inside-3)"/>
        <path d="M11.4448 23.0012C11.7132 22.4426 12.0305 21.9539 12.4453 21.6513C12.7138 21.4651 13.1286 21.3254 13.5923 21.3254C14.1048 21.3254 14.5928 21.4651 14.9833 21.8375C15.3494 22.1866 15.5202 22.6056 15.5202 23.2805C15.5202 24.0486 15.1053 25.4218 13.7631 26.6554C12.4941 27.8424 10.9567 28.401 8.54074 28.401C6.27119 28.401 4.48973 27.6795 3.09872 26.3528C1.07321 24.421 1 22.2332 1 18.5092C1 14.7852 1.07321 12.5974 3.09872 10.6656C4.46532 9.33895 6.24679 8.61743 8.54074 8.61743C10.9811 8.61743 12.4941 9.17603 13.7631 10.363C15.1053 11.5733 15.5202 12.9698 15.5202 13.7379C15.5202 14.4128 15.3738 14.8318 14.9833 15.1809C14.5928 15.5533 14.1048 15.693 13.5923 15.693C13.1286 15.693 12.7138 15.5533 12.4453 15.3671C12.0549 15.0645 11.7376 14.5758 11.4448 14.0172C10.8103 12.644 9.83413 12.0155 8.44312 12.0155C7.39376 12.0155 6.61284 12.4345 6.02716 13.0629C5.17303 13.9939 5.0266 15.0645 5.0266 18.5325C5.0266 22.0004 5.17303 23.0711 6.02716 24.002C6.61284 24.6305 7.39376 25.0494 8.44312 25.0494C9.83413 25.0261 10.7859 24.3744 11.4448 23.0012Z" fill="#F5821F"/>
        <path d="M27.0144 16.9497C27.8685 16.9497 28.1858 16.973 28.5762 17.1592C29.0887 17.4152 29.4303 17.9738 29.4303 18.6255C29.4303 19.3005 29.0887 19.8591 28.5762 20.0918C28.1858 20.278 27.8685 20.3013 27.0144 20.3013H21.2307V25.7476C21.2307 26.632 21.2063 26.9579 20.9623 27.4233C20.6694 27.9587 20.0105 28.3311 19.2296 28.3311C18.4487 28.3311 17.7898 27.9587 17.497 27.4233C17.2529 26.9579 17.2285 26.6553 17.2285 25.7476V11.1077C17.2285 10.5492 17.2285 9.85091 17.7898 9.31559C18.3511 8.78027 19.0832 8.78027 19.6689 8.78027H28.4298C29.2839 8.78027 29.6012 8.80355 29.9916 8.98975C30.5041 9.24577 30.8458 9.80436 30.8458 10.4561C30.8458 11.1077 30.5041 11.6896 29.9916 11.9224C29.6012 12.1086 29.2839 12.1318 28.4298 12.1318H21.2551V16.9264H27.0144V16.9497Z" fill="#F5821F"/>
        <path d="M44.5361 8.78027C45.073 8.78027 45.2683 8.82682 45.4879 8.9432C45.7563 9.10612 45.9028 9.38542 45.9028 9.71126C45.9028 10.0371 45.7563 10.3164 45.4879 10.4793C45.2683 10.5957 45.0974 10.6423 44.5361 10.6423H35.3116V17.5083H42.9743C43.5112 17.5083 43.7064 17.5549 43.9261 17.6712C44.1945 17.8342 44.3409 18.1134 44.3409 18.4393C44.3409 18.7651 44.1945 19.0444 43.9261 19.2074C43.7064 19.3237 43.5356 19.3703 42.9743 19.3703H35.3116V26.3993H44.5361C45.073 26.3993 45.2683 26.4458 45.4879 26.5622C45.7563 26.7251 45.9028 27.0044 45.9028 27.3303C45.9028 27.6561 45.7563 27.9354 45.4879 28.0983C45.2683 28.2147 45.0974 28.2612 44.5361 28.2612H34.433C34.0914 28.2612 33.7009 28.2612 33.4081 27.9819C33.1152 27.7026 33.1152 27.3303 33.1152 27.0044V10.0371C33.1152 9.71126 33.1152 9.33887 33.4081 9.05957C33.7009 8.78027 34.0914 8.78027 34.433 8.78027H44.5361Z" fill="#052569"/>
        <path d="M58.983 27.0278C58.983 27.5165 58.9342 27.7027 58.7878 27.9355C58.6414 28.1915 58.2997 28.3544 57.9337 28.3544C57.5676 28.3544 57.226 28.1682 57.0795 27.9355C56.9331 27.7027 56.8843 27.5165 56.8843 27.0278V19.9988C56.8843 17.6015 55.5909 16.4145 53.419 16.4145C51.2715 16.4145 49.8805 17.6248 49.8805 19.9988V27.0278C49.8805 27.5165 49.8317 27.7027 49.6852 27.9355C49.5388 28.1915 49.1972 28.3544 48.8311 28.3544C48.465 28.3544 48.1234 28.1682 47.977 27.9355C47.8306 27.7027 47.7817 27.5165 47.7817 27.0278V16.0188C47.7817 15.53 47.8061 15.3438 47.977 15.1111C48.1234 14.8551 48.4406 14.6921 48.8311 14.6921C49.2216 14.6921 49.5388 14.8783 49.6852 15.1111C49.8317 15.3671 49.8805 15.5533 49.8805 16.0188V16.2748C50.9054 15.2042 52.272 14.6223 53.8339 14.6223C55.3713 14.6223 56.6159 15.0645 57.4944 15.8792C58.495 16.8101 58.9586 18.0903 58.9586 19.6497V27.0278H58.983Z" fill="#052569"/>
        <path d="M70.2822 28.1782V26.037C69.1597 27.4567 67.8175 27.8291 66.3044 27.8291C64.8646 27.8291 63.62 27.3403 62.8635 26.6188C61.4481 25.2689 61.1309 23.1974 61.1309 21.0096C61.1309 18.8218 61.4481 16.7503 62.8635 15.4004C63.62 14.6789 64.889 14.2134 66.3288 14.2134C67.8663 14.2134 69.1353 14.5392 70.2822 15.959V15.6099C70.2822 15.1211 70.3066 14.9349 70.4775 14.7021C70.6239 14.4461 70.9411 14.2832 71.3316 14.2832C71.722 14.2832 72.0393 14.4694 72.1857 14.7021C72.3321 14.9582 72.381 15.1444 72.381 15.6099V28.2248C72.381 31.5531 70.1602 33.9969 66.4265 33.9969C65.0842 33.9969 64.1813 33.8107 63.2784 33.3452C62.7659 33.0659 61.7898 32.4608 61.7898 31.8789C61.7898 31.3203 62.2778 30.9712 62.6683 30.9712C62.9611 30.9712 63.2052 31.0876 63.7176 31.4832C64.4986 32.0884 65.3771 32.2979 66.3776 32.2979C69.1109 32.2746 70.2822 30.4592 70.2822 28.1782ZM66.7681 16.0055C63.6932 16.0055 63.2296 18.5192 63.2296 21.0329C63.2296 23.5466 63.6932 26.0137 66.7681 26.0137C69.843 26.0137 70.2578 23.5 70.2578 21.0096C70.2578 18.5192 69.843 16.0055 66.7681 16.0055Z" fill="#052569"/>
        <path d="M76.4154 8.38452C77.1963 8.38452 77.8308 8.98967 77.8308 9.73446C77.8308 10.4792 77.1963 11.0844 76.4154 11.0844C75.6345 11.0844 75 10.4792 75 9.73446C75 8.98967 75.6345 8.38452 76.4154 8.38452ZM77.4648 27.0276C77.4648 27.5164 77.4404 27.7026 77.2695 27.9353C77.1231 28.1913 76.8059 28.3543 76.4154 28.3543C76.025 28.3543 75.7077 28.1681 75.5613 27.9353C75.4149 27.6793 75.3661 27.4931 75.3661 27.0276V16.0186C75.3661 15.5299 75.3905 15.3437 75.5613 15.1109C75.7077 14.8549 76.025 14.692 76.4154 14.692C76.8059 14.692 77.1231 14.8782 77.2695 15.1109C77.416 15.3669 77.4648 15.5531 77.4648 16.0186V27.0276Z" fill="#052569"/>
        <path d="M91.9034 27.0278C91.9034 27.5165 91.8546 27.7027 91.7082 27.9355C91.5618 28.1915 91.2201 28.3544 90.8541 28.3544C90.488 28.3544 90.1464 28.1682 89.9999 27.9355C89.8535 27.7027 89.8047 27.5165 89.8047 27.0278V19.9988C89.8047 17.6015 88.5113 16.4145 86.3394 16.4145C84.1919 16.4145 82.8009 17.6248 82.8009 19.9988V27.0278C82.8009 27.5165 82.7521 27.7027 82.6056 27.9355C82.4592 28.1915 82.1176 28.3544 81.7515 28.3544C81.3855 28.3544 81.0438 28.1682 80.8974 27.9355C80.751 27.7027 80.7021 27.5165 80.7021 27.0278V16.0188C80.7021 15.53 80.7266 15.3438 80.8974 15.1111C81.0438 14.8551 81.3611 14.6921 81.7515 14.6921C82.142 14.6921 82.4592 14.8783 82.6056 15.1111C82.7521 15.3671 82.8009 15.5533 82.8009 16.0188V16.2748C83.8258 15.2042 85.1924 14.6223 86.7543 14.6223C88.2917 14.6223 89.5363 15.0645 90.4148 15.8792C91.4154 16.8101 91.879 18.0903 91.879 19.6497V27.0278H91.9034Z" fill="#052569"/>
        <path d="M96.1012 22.0235C96.1012 24.9561 97.5654 26.6785 100.299 26.6785C101.397 26.6785 102.471 26.3992 103.325 25.7009C103.764 25.3518 103.984 25.2122 104.301 25.2122C104.74 25.2122 105.179 25.6311 105.179 26.0733C105.179 26.6785 104.276 27.2836 103.715 27.6095C102.861 28.0982 101.641 28.3775 100.201 28.3775C96.4672 28.3775 94.0269 26.2363 94.0269 21.4882C94.0269 17.0427 96.2964 14.5989 99.8593 14.5989C103.447 14.5989 105.619 17.0893 105.643 20.8365C105.643 21.1158 105.619 21.4882 105.35 21.7442C105.082 22.0003 104.764 22.0002 104.423 22.0002H96.1012V22.0235ZM103.569 20.5107C103.52 19.5564 103.447 19.0676 103.129 18.3228C102.593 17.0893 101.372 16.3212 99.8349 16.3212C98.2975 16.3212 97.0529 17.1126 96.5404 18.3228C96.2232 19.0676 96.15 19.5564 96.1012 20.5107H103.569Z" fill="#052569"/>
        <path d="M113.764 10.1168H122.976C124.936 10.1168 126.532 10.6208 127.764 11.6288C128.996 12.6181 129.612 13.9061 129.612 15.4928C129.612 16.3515 129.397 17.1355 128.968 17.8448C128.539 18.5541 127.951 19.1421 127.204 19.6088C128.137 20.0568 128.884 20.6728 129.444 21.4568C130.004 22.2221 130.284 23.0808 130.284 24.0328C130.284 25.7315 129.649 27.1035 128.38 28.1488C127.129 29.1941 125.477 29.7168 123.424 29.7168H113.764V10.1168ZM122.724 13.4768H117.824V18.1248H122.724C123.583 18.1248 124.273 17.9195 124.796 17.5088C125.319 17.0795 125.58 16.5101 125.58 15.8008C125.58 15.0915 125.319 14.5315 124.796 14.1208C124.273 13.6915 123.583 13.4768 122.724 13.4768ZM123.116 26.3568C124.049 26.3568 124.796 26.1328 125.356 25.6848C125.916 25.2181 126.196 24.5928 126.196 23.8088C126.196 23.0621 125.916 22.4555 125.356 21.9888C124.796 21.5221 124.049 21.2888 123.116 21.2888H117.824V26.3568H123.116ZM136.882 15.1288V23.6128C136.882 24.5461 137.153 25.2928 137.694 25.8528C138.254 26.4128 138.991 26.6928 139.906 26.6928C140.559 26.6928 141.138 26.5715 141.642 26.3288C142.165 26.0675 142.594 25.7035 142.93 25.2368V15.1288H146.766V29.7168H142.93V28.5408C142.37 29.0075 141.745 29.3715 141.054 29.6328C140.363 29.8755 139.617 29.9968 138.814 29.9968C137.134 29.9968 135.753 29.4555 134.67 28.3728C133.587 27.2715 133.046 25.8715 133.046 24.1728V15.1288H136.882ZM152.22 13.3928C151.622 13.3928 151.109 13.1781 150.68 12.7488C150.25 12.3195 150.036 11.8061 150.036 11.2088C150.036 10.6115 150.25 10.0981 150.68 9.6688C151.109 9.23946 151.622 9.0248 152.22 9.0248C152.817 9.0248 153.33 9.23946 153.76 9.6688C154.189 10.0981 154.404 10.6115 154.404 11.2088C154.404 11.8061 154.189 12.3195 153.76 12.7488C153.33 13.1781 152.817 13.3928 152.22 13.3928ZM154.152 15.1288V29.7168H150.316V15.1288H154.152ZM161.548 9.2768V29.7168H157.712V10.1168L161.548 9.2768ZM175.999 29.7168V28.5128C175.421 28.9795 174.777 29.3341 174.067 29.5768C173.358 29.8008 172.621 29.9128 171.855 29.9128C170.829 29.9128 169.858 29.7168 168.943 29.3248C168.047 28.9328 167.263 28.4008 166.591 27.7288C165.919 27.0568 165.387 26.2635 164.995 25.3488C164.622 24.4341 164.435 23.4541 164.435 22.4088C164.435 21.3635 164.631 20.3835 165.023 19.4688C165.415 18.5541 165.947 17.7608 166.619 17.0888C167.291 16.4168 168.085 15.8941 168.999 15.5208C169.933 15.1288 170.922 14.9328 171.967 14.9328C172.677 14.9328 173.367 15.0355 174.039 15.2408C174.73 15.4275 175.365 15.7075 175.943 16.0808V10.1168L179.779 9.2768V29.7168H175.999ZM168.215 22.4088C168.215 23.5848 168.626 24.5835 169.447 25.4048C170.269 26.2261 171.277 26.6368 172.471 26.6368C173.181 26.6368 173.825 26.5155 174.403 26.2728C175.001 26.0301 175.514 25.6848 175.943 25.2368V19.5528C175.533 19.1235 175.019 18.7875 174.403 18.5448C173.806 18.3021 173.162 18.1808 172.471 18.1808C171.258 18.1808 170.241 18.5915 169.419 19.4128C168.617 20.2155 168.215 21.2141 168.215 22.4088Z" fill="#052569"/>
    </g>
    <defs>
        <clipPath id="clip0">
            <rect width="212" height="34.9057" fill="white" transform="translate(0 0.0754395)"/>
        </clipPath>
    </defs>
</svg>
