<svg width="32" height="32" viewBox="0 0 32 32" fill="none" xmlns="http://www.w3.org/2000/svg">
    <path d="M0 16C0 7.16344 7.16344 0 16 0C24.8366 0 32 7.16344 32 16C32 24.8366 24.8366 32 16 32C7.16344 32 0 24.8366 0 16Z" fill="#FFD8BF"/>
    <path d="M19.623 11.0469V17.8145C19.6185 18.7533 19.3223 19.5212 18.7344 20.1182C18.151 20.7152 17.3581 21.0501 16.3555 21.123L16.0068 21.1367C14.9176 21.1367 14.0495 20.8428 13.4023 20.2549C12.7552 19.667 12.4271 18.8581 12.418 17.8281V11.0469H13.7168V17.7871C13.7168 18.5072 13.915 19.0677 14.3115 19.4688C14.708 19.8652 15.2731 20.0635 16.0068 20.0635C16.7497 20.0635 17.3171 19.8652 17.709 19.4688C18.1055 19.0723 18.3037 18.514 18.3037 17.7939V11.0469H19.623Z" fill="#FA541C"/>
</svg>
